<svg width="70" height="14" viewBox="0 0 70 14" fill="none" xmlns="http://www.w3.org/2000/svg">
<path fill-rule="evenodd" clip-rule="evenodd" d="M0 14H51.4401V0H0V14Z" fill="#0A84FF"/>
<path fill-rule="evenodd" clip-rule="evenodd" d="M69.9999 6.99991C69.9999 10.8659 67.0389 14 63.3862 14C59.7336 14 56.7726 10.8659 56.7726 6.99991C56.7726 3.13394 59.7336 0 63.3862 0C67.0389 0 69.9999 3.13394 69.9999 6.99991Z" fill="#0A84FF"/>
<mask id="mask0_63_1001" style="mask-type:alpha" maskUnits="userSpaceOnUse" x="0" y="0" width="70" height="14">
<path fill-rule="evenodd" clip-rule="evenodd" d="M0 14H70V0H0V14Z" fill="white"/>
</mask>
<g mask="url(#mask0_63_1001)">
<path fill-rule="evenodd" clip-rule="evenodd" d="M5.72351 10.1539V3.23926H7.16065V8.7709H10.4178V10.1539H5.72351Z" fill="white"/>
<path fill-rule="evenodd" clip-rule="evenodd" d="M11.4164 10.1538H12.8349V4.85927H11.4164V10.1538ZM11.3792 4.27647H12.8723V2.94299H11.3792V4.27647Z" fill="white"/>
<path fill-rule="evenodd" clip-rule="evenodd" d="M14.1696 10.1538V4.85928H15.588V5.61003C16.0048 5.04373 16.4933 4.7605 17.0533 4.7605C17.5883 4.7605 18.0052 4.93498 18.3039 5.28396C18.6024 5.63328 18.7519 6.11373 18.7519 6.72618V10.1538H17.3332V7.20034C17.3332 6.85136 17.2586 6.58456 17.1093 6.40011C16.9599 6.21601 16.7483 6.12369 16.4746 6.12369C16.2007 6.12369 15.9846 6.21601 15.8259 6.40011C15.6673 6.58456 15.588 6.85136 15.588 7.20034V10.1538H14.1696Z" fill="white"/>
<path fill-rule="evenodd" clip-rule="evenodd" d="M21.1314 7.09164H23.2686C23.225 6.74932 23.1113 6.47605 22.9279 6.27184C22.7443 6.0678 22.5064 5.96552 22.2138 5.96552C21.9277 5.96552 21.6897 6.06606 21.4999 6.26694C21.3101 6.46783 21.1873 6.74267 21.1314 7.09164ZM22.3539 10.2722C21.5949 10.2722 20.9695 10.0169 20.478 9.5066C19.9866 8.9966 19.741 8.3331 19.741 7.51644C19.741 6.74594 19.9742 6.09397 20.4407 5.56055C20.9075 5.02712 21.4984 4.7605 22.2138 4.7605C23.0039 4.7605 23.6075 5.03709 24.0246 5.59027C24.4412 6.14328 24.6499 6.82496 24.6499 7.6348C24.6499 7.714 24.6436 7.84566 24.6312 8.02993H21.1502C21.2184 8.36579 21.3585 8.62263 21.5699 8.80044C21.7815 8.97824 22.0491 9.06723 22.3726 9.06723C22.8143 9.06723 23.2187 8.88628 23.5859 8.52384L24.3978 9.28456C23.894 9.94316 23.2126 10.2722 22.3539 10.2722Z" fill="white"/>
<path fill-rule="evenodd" clip-rule="evenodd" d="M28.0655 10.2727C27.3187 10.2727 26.6983 10.0061 26.2037 9.47264C25.709 8.93904 25.4617 8.28726 25.4617 7.51675C25.4617 6.75289 25.7104 6.10268 26.2083 5.56593C26.706 5.02936 27.3313 4.76099 28.0842 4.76099C28.8869 4.76099 29.5493 5.07045 30.0719 5.68937L29.2414 6.57841C28.8928 6.22943 28.5041 6.05477 28.0748 6.05477C27.7262 6.05477 27.437 6.19657 27.2069 6.47962C26.9766 6.76286 26.8616 7.10851 26.8616 7.51675C26.8616 7.93164 26.9781 8.27904 27.2117 8.55878C27.4449 8.83886 27.7512 8.97873 28.131 8.97873C28.5228 8.97873 28.9054 8.79096 29.2787 8.41576L30.1094 9.30463C29.8355 9.62073 29.5432 9.86113 29.2321 10.0258C28.9209 10.1903 28.5322 10.2727 28.0655 10.2727Z" fill="white"/>
<path fill-rule="evenodd" clip-rule="evenodd" d="M33.5065 8.97809C33.8985 8.97809 34.2125 8.83822 34.4492 8.5583C34.6854 8.27839 34.8039 7.93117 34.8039 7.51628C34.8039 7.11451 34.6808 6.77043 34.435 6.48387C34.1892 6.19749 33.8735 6.0543 33.4878 6.0543C33.0958 6.0543 32.7816 6.19435 32.5452 6.47408C32.3087 6.754 32.1906 7.1014 32.1906 7.51628C32.1906 7.91805 32.3133 8.26196 32.5593 8.54834C32.8049 8.83489 33.1206 8.97809 33.5065 8.97809ZM35.4245 9.47216C34.9048 10.0056 34.2592 10.2722 33.4878 10.2722C32.7164 10.2722 32.074 10.0073 31.5606 9.47723C31.0473 8.94712 30.7908 8.29341 30.7908 7.51644C30.7908 6.74594 31.0503 6.09397 31.57 5.56055C32.0893 5.02712 32.7349 4.7605 33.5065 4.7605C34.2779 4.7605 34.9203 5.02572 35.4337 5.55565C35.947 6.08593 36.2037 6.73929 36.2037 7.51644C36.2037 8.28677 35.9437 8.93856 35.4245 9.47216Z" fill="white"/>
<path fill-rule="evenodd" clip-rule="evenodd" d="M37.2302 10.1539V4.85937H38.6487V5.92605C38.9721 5.11638 39.5042 4.72772 40.2448 4.76059V6.33114H40.1701C39.6846 6.33114 39.3098 6.48762 39.0453 6.8004C38.7809 7.11318 38.6487 7.57912 38.6487 8.19804V10.1539H37.2302Z" fill="white"/>
<path fill-rule="evenodd" clip-rule="evenodd" d="M42.2791 7.09164H44.4163C44.3727 6.74932 44.2591 6.47605 44.0757 6.27184C43.892 6.0678 43.654 5.96552 43.3618 5.96552C43.0753 5.96552 42.8374 6.06606 42.6476 6.26694C42.4578 6.46783 42.3351 6.74267 42.2791 7.09164ZM43.5015 10.2722C42.7426 10.2722 42.1172 10.0169 41.6258 9.5066C41.1342 8.9966 40.8885 8.3331 40.8885 7.51644C40.8885 6.74594 41.1218 6.09397 41.5885 5.56055C42.0553 5.02712 42.6463 4.7605 43.3618 4.7605C44.1519 4.7605 44.7553 5.03709 45.1722 5.59027C45.5888 6.14328 45.7975 6.82496 45.7975 7.6348C45.7975 7.714 45.7915 7.84566 45.7788 8.02993H42.2978C42.3662 8.36579 42.5062 8.62263 42.7177 8.80044C42.9293 8.97824 43.1969 9.06723 43.5205 9.06723C43.962 9.06723 44.3664 8.88628 44.7336 8.52384L45.5452 9.28456C45.0416 9.94316 44.3603 10.2722 43.5015 10.2722Z" fill="white"/>
</g>
</svg>
