<svg width="50" height="68" viewBox="0 0 50 68" fill="none" xmlns="http://www.w3.org/2000/svg">
<path d="M46.0865 35.9807L46.087 35.9686V35.9565V9.08696V7.94197L45.1021 8.526C42.2445 10.2207 40.3959 11.8452 39.0987 13.3289C37.939 14.6553 37.231 15.8589 36.6561 16.8363C36.5894 16.9497 36.5246 17.0599 36.461 17.167L36.5391 17.2277C35.9864 17.9758 35.5414 19.0447 35.1678 20.2748C34.7664 21.5961 34.4288 23.1684 34.1371 24.865C33.5539 28.258 33.1442 32.21 32.7859 35.7606L32.7858 35.7606L32.7849 35.7719L32.6544 37.3372L32.6034 37.95L33.168 38.0306C33.2256 38.0471 33.2829 38.0635 33.3397 38.0798C33.6902 38.194 34.0558 38.3848 34.4365 38.6647C35.8617 40.16 36.8232 41.932 37.5625 43.8093C36.5267 44.7768 35.3286 45.5666 33.949 46.3167C33.8606 46.3443 33.6609 46.3823 33.3414 46.4203C33.1454 46.4437 32.9331 46.4642 32.7163 46.484C32.5032 46.0504 32.2867 45.626 32.0718 45.2048C31.5914 44.2633 31.1191 43.3378 30.7117 42.3603C30.3645 41.5077 30.0946 40.6672 29.8337 39.8438C29.8206 39.8026 29.8076 39.7614 29.7945 39.7202C29.5513 38.9519 29.3101 38.1902 29.0225 37.4846C27.1461 32.2073 27.5227 26.628 27.9033 20.987C27.9207 20.7306 27.938 20.474 27.9551 20.2173L27.9551 20.2173L27.9556 20.2088C28.0101 19.1921 28.0807 18.1653 28.1512 17.1424C28.3301 14.5436 28.5073 11.9696 28.4125 9.64732L28.4126 9.64731L28.412 9.63671C28.2714 7.17642 27.2137 5.14359 25.6887 3.5492L25.2174 3.05649L24.7461 3.5492C23.2246 5.13989 22.1593 7.17711 22.0874 9.58564C21.9929 11.907 22.17 14.4797 22.3488 17.0772C22.4193 18.1001 22.4899 19.1269 22.5444 20.1436L22.5445 20.1449C22.5734 20.665 22.6041 21.1846 22.6348 21.7034C22.9535 27.0913 23.2673 32.3967 21.4726 37.4333L21.471 37.4379C21.2861 37.9696 21.1232 38.4948 20.9592 39.0238C20.6352 40.0686 20.3068 41.1277 19.7953 42.2786L19.7922 42.2856L19.7893 42.2926C19.3816 43.271 18.909 44.1973 18.4282 45.1396C18.2123 45.5627 17.9948 45.9891 17.7807 46.4249C17.748 46.4227 17.7156 46.4205 17.6835 46.4184L17.6645 46.4172C17.4775 46.4048 17.3035 46.3932 17.1434 46.3779C16.982 46.3626 16.8504 46.3449 16.7482 46.3236C16.6515 46.3034 16.616 46.2867 16.6158 46.2871C16.6158 46.2871 16.6158 46.2871 16.6158 46.2872C16.5501 46.2472 16.4847 46.2074 16.4196 46.1678C15.117 45.3757 13.9377 44.6586 12.941 43.7446C13.6769 41.9054 14.5808 40.1021 16.0392 38.6227C16.4842 38.3493 16.9244 38.1296 17.3598 37.9614L17.8966 37.8847L17.8456 37.2719L17.7151 35.7067L17.7152 35.7067L17.7141 35.6954C17.3558 32.1448 16.9461 28.1928 16.3629 24.7998C16.0712 23.1032 15.7336 21.5309 15.3322 20.2096C14.9421 18.925 14.4741 17.8162 13.8868 17.065L13.0615 15.6682L13.052 15.6521L13.0415 15.6366C11.9301 13.9805 11.2976 13.0943 10.9394 12.6186C10.7606 12.3811 10.6455 12.2396 10.5699 12.1531C10.532 12.1097 10.5004 12.076 10.4727 12.0489C10.4587 12.0351 10.4439 12.0214 10.4284 12.008C10.4207 12.0014 10.4123 11.9945 10.4033 11.9874C9.78974 11.4964 9.54166 11.2624 9.42319 11.139C9.37878 11.0927 9.35372 11.0636 9.32358 11.0286C9.31305 11.0164 9.3019 11.0035 9.28909 10.9888C9.23326 10.925 9.16995 10.8583 9.07102 10.7798C8.91056 10.6525 8.64989 10.4919 8.12973 10.182C7.86425 10.0237 7.519 9.81967 7.06844 9.55336C6.60859 9.28155 6.03904 8.94491 5.33266 8.526L4.34783 7.94197V9.08696V35.9565V35.9686L4.34827 35.9807C4.41473 37.775 4.59855 39.0014 4.87637 40.0172C5.12899 40.9408 5.45587 41.6733 5.80446 42.4545C5.83747 42.5285 5.87068 42.6029 5.90404 42.6779L5.90402 42.6779L5.90628 42.6829C6.19221 43.312 6.56689 43.9315 6.90943 44.4596C4.9639 47.9731 4.34783 51.97 4.34783 56.5652C4.34783 57.1198 4.58725 57.7488 4.90406 58.2288C5.06719 58.476 5.27125 58.7155 5.51214 58.8994C5.75024 59.0813 6.06571 59.2391 6.43478 59.2391H16.0533C16.5415 60.2764 17.2327 61.24 18.0303 62.0396C18.9424 63.0192 20.065 63.7902 21.3288 64.2817C22.5657 64.7627 23.8198 65.0435 25.2174 65.0435C27.9461 65.0435 30.4521 63.9227 32.3875 62.0564L32.3876 62.0565L32.3959 62.0481C33.2135 61.2306 33.8513 60.257 34.3643 59.2391H44C44.3568 59.2391 44.6704 59.0951 44.9142 58.9216C45.1612 58.7458 45.3748 58.5136 45.5467 58.2658C45.8746 57.7932 46.1251 57.1529 46.087 56.5427C46.0849 51.9597 45.4685 47.9722 43.5289 44.466C43.9058 43.8973 44.2423 43.303 44.532 42.6103C44.5539 42.5627 44.5758 42.5153 44.5977 42.4681C44.9584 41.6881 45.2975 40.955 45.558 40.0104C45.8363 39.0017 46.0201 37.7746 46.0865 35.9807ZM26.4234 10.9231C26.4544 11.7594 26.4527 12.7328 26.4161 13.8427C26.3677 15.3134 26.259 17.0038 26.0912 18.9015C25.9579 17.1477 25.9182 15.2626 26.0626 13.645L26.0627 13.645L26.0631 13.639C26.1259 12.8547 26.2341 11.8801 26.4234 10.9231ZM11.5262 48.8727C12.1539 49.372 12.9305 49.7591 13.673 50.0607C14.4383 50.3717 15.2246 50.6136 15.8851 50.798C15.4293 51.8848 15.175 53.0434 15.1201 54.2413C14.8668 54.2268 14.6166 54.2137 14.3688 54.2006C13.1767 54.1381 12.0388 54.0783 10.8757 53.8846C10.9064 53.614 10.9367 53.3197 10.9692 53.0045C11.0873 51.8596 11.2339 50.4384 11.5262 48.8727ZM38.7081 25.0442C39.1261 22.5886 39.9254 20.2504 41.5217 18.1085V32.6304C41.5217 36.1962 41.0504 38.4543 40.3237 40.0171C39.7337 38.8882 38.9872 37.626 37.3709 36.5836C37.5776 33.3512 38.0238 28.7773 38.7067 25.0524L38.7068 25.0524L38.7081 25.0442ZM10.1547 39.9704C9.44035 38.4094 8.97826 36.1608 8.97826 32.6304V18.1085C10.5744 20.2501 11.3736 22.5879 11.7917 25.0431C12.4134 28.774 12.9156 33.3998 13.0697 36.5638C11.4146 37.5539 10.6977 38.8072 10.1547 39.9704ZM39.6267 53.8858C38.214 54.1286 36.7973 54.2048 35.3807 54.2588C35.3274 53.0535 35.0724 51.8878 34.6135 50.7948C35.2774 50.6042 36.0646 50.352 36.831 50.0346C37.5724 49.7276 38.3459 49.3395 38.9708 48.8539C39.2716 50.453 39.4195 51.8921 39.5394 53.058C39.5696 53.3519 39.598 53.6284 39.6267 53.8858ZM25.2174 44.5C24.7095 44.5 24.2264 44.5434 23.7484 44.6164L25.2174 40.596L26.6864 44.6164C26.2084 44.5434 25.7253 44.5 25.2174 44.5Z" fill="url(#paint0_linear_63_1023)" stroke="white" stroke-width="1.30435"/>
<path fill-rule="evenodd" clip-rule="evenodd" d="M26.9358 7.22231C25.917 8.6724 25.5816 11.4543 25.4161 13.1909C25.0119 17.4316 25.8693 23.4261 26.4306 24.4336L24.1573 24.5801L23.9769 8.35753L25.5285 5.57442L26.9358 7.22231Z" fill="url(#paint1_linear_63_1023)"/>
<path fill-rule="evenodd" clip-rule="evenodd" d="M25.2172 37.3054L20.7969 46.8265L22.4387 46.0026L25.2172 38.3486L27.9956 46.0026L29.6373 46.8265L25.2172 37.3054Z" fill="url(#paint2_linear_63_1023)"/>
<path fill-rule="evenodd" clip-rule="evenodd" d="M25.2175 3.63467C23.777 5.1226 22.8247 7.01881 22.7197 9.25345C22.5691 12.4574 22.9553 16.1026 23.1691 19.7304C23.5135 25.574 24.0798 31.6257 22.0394 37.271C21.5062 38.7465 21.1149 40.404 20.3703 42.1788C19.1126 45.1767 17.1624 48.108 16.5754 50.7083L21.5009 46.0209L25.2175 37.8199L28.9341 46.0209L33.8595 50.7083C33.2725 48.108 31.3223 45.1767 30.0646 42.1788C29.32 40.404 28.9287 38.7465 28.3955 37.271C26.3551 31.6257 26.9214 25.574 27.2658 19.7304C27.4796 16.1026 27.8659 12.4574 27.7153 9.25345C27.6103 7.01881 26.658 5.1226 25.2175 3.63467ZM25.8947 6.3248C26.2547 6.31337 26.4634 6.72951 26.6781 7.38885C27.4215 9.67126 27.2045 15.5261 26.1478 24.14C24.2391 19.2759 24.4261 10.9989 25.1964 7.89346C25.3652 7.21303 25.5356 6.36206 25.8947 6.3248Z" fill="url(#paint3_linear_63_1023)"/>
<path fill-rule="evenodd" clip-rule="evenodd" d="M13.3098 17.1279C15.3972 19.7043 16.2928 28.3365 17.0313 35.425L13.7771 36.828C13.6116 33.6 13.1268 28.5982 12.4241 24.5802C11.8512 21.3045 10.6756 18.1837 7.83215 15.4913L9.56717 13.601L13.3098 17.1279Z" fill="url(#paint4_linear_63_1023)"/>
<path fill-rule="evenodd" clip-rule="evenodd" d="M5 8.73299L5.00001 35.5884L5.2884 37.3406L7.36321 42.2055L11.3077 47.3651C12.4385 48.8441 15.559 49.6528 16.9802 50.0416L18.2678 46.7714C17.5612 46.7027 16.6247 46.6729 16.2521 46.5124C13.5157 44.9211 11.2382 43.3137 9.68261 40.1745C8.83385 38.4616 8.30637 36.0459 8.31699 32.2774V15.857C8.63209 13.0425 11.2883 15.7435 13.3944 17.1486C12.1698 15.0667 10.616 12.0402 5 8.73299Z" fill="url(#paint5_linear_63_1023)"/>
<path fill-rule="evenodd" clip-rule="evenodd" d="M5 35.5884C5.63465 38.8775 7.78023 42.0952 10.2922 43.939C11.5934 44.8941 12.9968 45.7344 14.5061 46.1671C15.7068 46.5113 16.8728 46.8411 17.954 47.1829L17.2217 48.8041C15.5859 48.7888 13.9729 48.7129 12.6189 48.0701C10.0563 46.8536 7.8787 44.9887 6.50388 42.0153C5.70128 40.2794 5.12125 39.1293 5 35.5884Z" fill="url(#paint6_linear_63_1023)"/>
<path fill-rule="evenodd" clip-rule="evenodd" d="M15.7364 37.5985C14.0043 39.3301 12.9446 41.4353 12.1587 43.5344C10.5759 47.7621 10.3967 52.0766 10.1344 54.0499C12.1941 54.4737 14.222 54.4774 16.2596 54.6083V55.8992H7.19421L9.03129 44.7258L13.8026 38.7702L15.7364 37.5985Z" fill="url(#paint7_radial_63_1023)"/>
<path fill-rule="evenodd" clip-rule="evenodd" d="M17.0313 35.4251C12.1753 36.5265 11.3701 38.6616 10.4061 40.6333L15.0071 37.8448C15.6237 37.4711 16.4422 37.135 17.1835 36.9835L17.0313 35.4251Z" fill="url(#paint8_linear_63_1023)"/>
<path fill-rule="evenodd" clip-rule="evenodd" d="M17.1627 36.9941C13.9037 37.9295 11.6554 39.2981 10.0878 40.946C6.12381 45.1131 4.9728 50.0079 5.01156 56.2053C5.00066 56.997 5.72658 58.2074 6.47116 58.197L17.2439 58.1786L16.0532 54.7913L9.16118 54.773C8.46129 54.8251 8.56006 53.9766 8.71013 53.0702C9.84369 46.3124 12.7844 38.2104 17.1627 36.9941Z" fill="url(#paint9_linear_63_1023)"/>
<path fill-rule="evenodd" clip-rule="evenodd" d="M37.1248 17.1279C35.0374 19.7043 34.1418 28.3365 33.4033 35.425L36.6574 36.828C36.823 33.6 37.3078 28.5982 38.0105 24.5802C38.5834 21.3045 39.759 18.1837 42.6024 15.4913L40.8674 13.601L37.1248 17.1279Z" fill="url(#paint10_linear_63_1023)"/>
<path fill-rule="evenodd" clip-rule="evenodd" d="M45.4347 8.73299L45.4347 35.5884L45.1463 37.3406L43.0715 42.2055L39.127 47.3651C37.9962 48.8441 34.8757 49.6528 33.4545 50.0416L32.1669 46.7714C32.8735 46.7027 33.81 46.6729 34.1826 46.5124C36.919 44.9211 39.1965 43.3137 40.7521 40.1745C41.6008 38.4616 42.1283 36.0459 42.1177 32.2774V15.857C41.8026 13.0425 39.1464 15.7435 37.0403 17.1486C38.2649 15.0667 39.8186 12.0402 45.4347 8.73299Z" fill="url(#paint11_linear_63_1023)"/>
<path fill-rule="evenodd" clip-rule="evenodd" d="M45.4347 35.5884C44.8 38.8775 42.6545 42.0952 40.1425 43.939C38.8413 44.8941 37.4379 45.7344 35.9286 46.1671C34.7279 46.5113 33.5618 46.8411 32.4807 47.1829L33.213 48.8041C34.8488 48.7888 36.4618 48.7129 37.8157 48.0701C40.3784 46.8536 42.556 44.9887 43.9308 42.0153C44.7334 40.2794 45.3134 39.1293 45.4347 35.5884Z" fill="url(#paint12_linear_63_1023)"/>
<path fill-rule="evenodd" clip-rule="evenodd" d="M34.6982 37.5985C36.4303 39.3301 37.49 41.4353 38.2759 43.5344C39.8586 47.7621 40.0379 52.0766 40.3002 54.0499C38.2405 54.4737 36.2125 54.4774 34.175 54.6083V55.8992H43.2404L41.4033 44.7258L36.632 38.7702L34.6982 37.5985Z" fill="url(#paint13_radial_63_1023)"/>
<path fill-rule="evenodd" clip-rule="evenodd" d="M33.4032 35.4251C38.2592 36.5265 39.0645 38.6616 40.0284 40.6333L35.4275 37.8448C34.8109 37.4711 33.9923 37.135 33.2511 36.9835L33.4032 35.4251Z" fill="url(#paint14_linear_63_1023)"/>
<path fill-rule="evenodd" clip-rule="evenodd" d="M33.2717 36.9942C36.5307 37.9296 38.7791 39.2982 40.3466 40.9461C44.3106 45.1132 45.4617 50.008 45.4229 56.2054C45.4338 56.9971 44.7079 58.2075 43.9633 58.1971L33.1905 58.1788L34.3813 54.7914L41.2733 54.7731C41.9732 54.8252 41.8744 53.9767 41.7243 53.0703C40.5908 46.3125 37.65 38.2105 33.2717 36.9942Z" fill="url(#paint15_linear_63_1023)"/>
<path d="M34.6859 54.3842C34.6859 56.9345 33.6884 59.3803 31.9127 61.1836C30.1371 62.9869 27.7288 64 25.2176 64C23.9742 64 22.743 63.7513 21.5942 63.268C20.4455 62.7848 19.4017 62.0765 18.5225 61.1836C17.6433 60.2907 16.9458 59.2306 16.47 58.064C15.9942 56.8974 15.7493 55.647 15.7493 54.3842C15.7493 51.8339 16.7468 49.3881 18.5225 47.5848C20.2981 45.7815 22.7064 44.7684 25.2176 44.7684C27.7288 44.7684 30.1371 45.7815 31.9127 47.5848C33.6884 49.3881 34.6859 51.8339 34.6859 54.3842Z" fill="#2B4B7B"/>
<path fill-rule="evenodd" clip-rule="evenodd" d="M23.3166 46.4607C19.4613 47.3886 18.0439 50.1953 17.2583 52.3602C16.2581 55.1165 16.8091 58.0814 17.5787 60.0461C18.1112 60.7866 18.7453 61.446 19.4617 62.0041L21.0968 60.7542C19.8237 59.6453 18.8541 58.5765 19.1321 57.6729L24.0821 48.1439L23.3166 46.4607Z" fill="url(#paint16_linear_63_1023)"/>
<path fill-rule="evenodd" clip-rule="evenodd" d="M30.3739 46.3297C32.1871 50.555 32.4665 53.5648 31.9009 54.8605L25.1295 62.055C32.0083 61.4692 34.5435 57.7404 33.8524 50.4683C33.1094 48.7774 31.9016 47.3404 30.3739 46.3297Z" fill="url(#paint17_linear_63_1023)"/>
<path d="M32.0896 54.3842C32.0896 56.2352 31.3656 58.0103 30.0768 59.3192C28.788 60.628 27.0401 61.3633 25.2175 61.3633C23.3949 61.3633 21.6469 60.628 20.3581 59.3192C19.0694 58.0103 18.3453 56.2352 18.3453 54.3842C18.3453 52.5332 19.0694 50.758 20.3581 49.4492C21.6469 48.1403 23.3949 47.405 25.2175 47.405C27.0401 47.405 28.788 48.1403 30.0768 49.4492C31.3656 50.758 32.0896 52.5332 32.0896 54.3842Z" fill="url(#paint18_linear_63_1023)"/>
<path d="M31.2603 54.3842C31.2603 56.0118 30.6236 57.5728 29.4904 58.7237C28.3571 59.8745 26.8201 60.5211 25.2175 60.5211C24.4239 60.5211 23.6382 60.3624 22.905 60.054C22.1719 59.7456 21.5057 59.2935 20.9446 58.7237C20.3835 58.1538 19.9383 57.4773 19.6347 56.7327C19.331 55.9881 19.1747 55.1901 19.1747 54.3842C19.1747 53.5783 19.331 52.7803 19.6347 52.0357C19.9383 51.2912 20.3835 50.6146 20.9446 50.0448C21.5057 49.4749 22.1719 49.0229 22.905 48.7145C23.6382 48.4061 24.4239 48.2473 25.2175 48.2473C26.8201 48.2473 28.3571 48.8939 29.4904 50.0448C30.6236 51.1957 31.2603 52.7566 31.2603 54.3842Z" fill="white"/>
<path fill-rule="evenodd" clip-rule="evenodd" d="M20.6892 51.6053L21.898 51.4772L22.0153 53.4455L20.7614 54.9652L19.9675 54.1779C19.9331 53.289 20.1472 52.4455 20.6892 51.6053Z" fill="url(#paint19_linear_63_1023)"/>
<path fill-rule="evenodd" clip-rule="evenodd" d="M21.3117 56.7137L23.17 57.1532L24.2615 58.8102L23.2872 59.3595C22.4275 58.9716 21.7113 58.4382 21.1403 57.7574L21.3117 56.7137Z" fill="url(#paint20_linear_63_1023)"/>
<path fill-rule="evenodd" clip-rule="evenodd" d="M25.2177 52.3662L23.188 53.8757L23.9727 56.1644H26.4625L27.2474 53.8757L25.2177 52.3662Z" fill="url(#paint21_linear_63_1023)"/>
<path fill-rule="evenodd" clip-rule="evenodd" d="M25.2177 49.0556C24.768 49.0556 24.2609 49.106 23.8686 49.1981L23.3201 50.4481L25.2177 51.1583L27.1153 50.4481L26.5667 49.1981C26.1745 49.106 25.6674 49.0556 25.2177 49.0556Z" fill="url(#paint22_linear_63_1023)"/>
<path fill-rule="evenodd" clip-rule="evenodd" d="M29.7462 51.6053L28.5374 51.4772L28.4202 53.4455L29.6741 54.9652L30.4679 54.1779C30.5023 53.289 30.2882 52.4455 29.7462 51.6053Z" fill="url(#paint23_linear_63_1023)"/>
<path fill-rule="evenodd" clip-rule="evenodd" d="M29.1237 56.7137L27.2654 57.1532L26.1738 58.8102L27.1481 59.3595C28.0078 58.9716 28.724 58.4382 29.2951 57.7574L29.1237 56.7137Z" fill="url(#paint24_linear_63_1023)"/>
<defs>
<linearGradient id="paint0_linear_63_1023" x1="-78.2065" y1="35.6818" x2="59.5857" y2="33.6851" gradientUnits="userSpaceOnUse">
<stop stop-color="#4172B8"/>
<stop offset="0.2695" stop-color="#3A67A4"/>
<stop offset="0.5049" stop-color="#345B93"/>
<stop offset="0.755" stop-color="#2C4E7F"/>
<stop offset="1" stop-color="#2B4B7B"/>
</linearGradient>
<linearGradient id="paint1_linear_63_1023" x1="29.7747" y1="6.22129" x2="29.9849" y2="24.2435" gradientUnits="userSpaceOnUse">
<stop stop-color="#C98B2B"/>
<stop offset="0.181732" stop-color="#D6A02D"/>
<stop offset="0.586063" stop-color="#F5DB33"/>
<stop offset="1" stop-color="#F9E736"/>
</linearGradient>
<linearGradient id="paint2_linear_63_1023" x1="25.3862" y1="46.7196" x2="25.2811" y2="37.9156" gradientUnits="userSpaceOnUse">
<stop stop-color="#DAA62E"/>
<stop offset="0.129848" stop-color="#D8A32E"/>
<stop offset="0.311467" stop-color="#CF952C"/>
<stop offset="0.558347" stop-color="#C98B2B"/>
<stop offset="0.779089" stop-color="#C7872B"/>
<stop offset="1" stop-color="#C6872B"/>
</linearGradient>
<linearGradient id="paint3_linear_63_1023" x1="25.3865" y1="50.8626" x2="25.1763" y2="3.9426" gradientUnits="userSpaceOnUse">
<stop stop-color="#36609A"/>
<stop offset="0.0573745" stop-color="#365F99"/>
<stop offset="0.132457" stop-color="#365F99"/>
<stop offset="0.267103" stop-color="#335991"/>
<stop offset="0.408361" stop-color="#2F5488"/>
<stop offset="0.657873" stop-color="#2B4B7B"/>
<stop offset="1" stop-color="#2B4B7B"/>
</linearGradient>
<linearGradient id="paint4_linear_63_1023" x1="24.8927" y1="36.4082" x2="24.8927" y2="14.2898" gradientUnits="userSpaceOnUse">
<stop stop-color="#F9E736"/>
<stop offset="0.251656" stop-color="#F8E435"/>
<stop offset="0.496689" stop-color="#F5DA33"/>
<stop offset="0.754967" stop-color="#F2CE30"/>
<stop offset="0.81457" stop-color="#E5B92F"/>
<stop offset="0.900662" stop-color="#D39B2D"/>
<stop offset="1" stop-color="#C98C2B"/>
</linearGradient>
<linearGradient id="paint5_linear_63_1023" x1="5.07655" y1="32.6332" x2="18.1402" y2="32.5327" gradientUnits="userSpaceOnUse">
<stop stop-color="#4071B6"/>
<stop offset="0.156363" stop-color="#3C6AA9"/>
<stop offset="0.390784" stop-color="#38639F"/>
<stop offset="0.672017" stop-color="#345C94"/>
<stop offset="0.859323" stop-color="#2B4B7B"/>
<stop offset="1" stop-color="#2C4E7F"/>
</linearGradient>
<linearGradient id="paint6_linear_63_1023" x1="4.97448" y1="42.1622" x2="17.9106" y2="42.0365" gradientUnits="userSpaceOnUse">
<stop stop-color="#C7872B"/>
<stop offset="0.20788" stop-color="#CD922C"/>
<stop offset="0.39977" stop-color="#F2CF30"/>
<stop offset="0.616029" stop-color="#F3D131"/>
<stop offset="0.816106" stop-color="#F4D632"/>
<stop offset="0.885593" stop-color="#F1C930"/>
<stop offset="0.950715" stop-color="#D8A32E"/>
<stop offset="1" stop-color="#D29A2D"/>
</linearGradient>
<radialGradient id="paint7_radial_63_1023" cx="0" cy="0" r="1" gradientUnits="userSpaceOnUse" gradientTransform="translate(8.54651 55.0058) rotate(-89.3198) scale(17.1949 9.01642)">
<stop stop-color="#D7A12D"/>
<stop offset="0.18828" stop-color="#F9E736"/>
<stop offset="0.707589" stop-color="#F9E736"/>
<stop offset="1" stop-color="#F9E736"/>
</radialGradient>
<linearGradient id="paint8_linear_63_1023" x1="10.2816" y1="37.5014" x2="17.1198" y2="37.7026" gradientUnits="userSpaceOnUse">
<stop stop-color="#F5D532" stop-opacity="0.862745"/>
<stop offset="0.238975" stop-color="#F3D231"/>
<stop offset="0.403118" stop-color="#F2CF30"/>
<stop offset="0.716481" stop-color="#E0B02F"/>
<stop offset="1" stop-color="#D39B2D"/>
</linearGradient>
<linearGradient id="paint9_linear_63_1023" x1="11.2011" y1="36.9834" x2="11.2011" y2="57.8022" gradientUnits="userSpaceOnUse">
<stop stop-color="#4274BB"/>
<stop offset="0.298508" stop-color="#3C6AAA"/>
<stop offset="0.741294" stop-color="#2F5488"/>
<stop offset="0.895522" stop-color="#2B4B7B"/>
<stop offset="1" stop-color="#2B4B7B"/>
</linearGradient>
<linearGradient id="paint10_linear_63_1023" x1="25.5419" y1="36.4082" x2="25.5419" y2="14.2898" gradientUnits="userSpaceOnUse">
<stop stop-color="#F9E736"/>
<stop offset="0.251656" stop-color="#F8E435"/>
<stop offset="0.496689" stop-color="#F5DA33"/>
<stop offset="0.754967" stop-color="#F2CE30"/>
<stop offset="0.81457" stop-color="#E5B92F"/>
<stop offset="0.900662" stop-color="#D39B2D"/>
<stop offset="1" stop-color="#C98C2B"/>
</linearGradient>
<linearGradient id="paint11_linear_63_1023" x1="45.3581" y1="32.6332" x2="32.2944" y2="32.5327" gradientUnits="userSpaceOnUse">
<stop stop-color="#4071B6"/>
<stop offset="0.156363" stop-color="#3C6AA9"/>
<stop offset="0.390784" stop-color="#38639F"/>
<stop offset="0.672017" stop-color="#345C94"/>
<stop offset="0.859323" stop-color="#2B4B7B"/>
<stop offset="1" stop-color="#2C4E7F"/>
</linearGradient>
<linearGradient id="paint12_linear_63_1023" x1="45.4602" y1="42.1622" x2="32.5241" y2="42.0365" gradientUnits="userSpaceOnUse">
<stop stop-color="#C7872B"/>
<stop offset="0.20788" stop-color="#CD922C"/>
<stop offset="0.39977" stop-color="#F2CF30"/>
<stop offset="0.616029" stop-color="#F3D131"/>
<stop offset="0.816106" stop-color="#F4D632"/>
<stop offset="0.885593" stop-color="#F1C930"/>
<stop offset="0.950715" stop-color="#D8A32E"/>
<stop offset="1" stop-color="#D29A2D"/>
</linearGradient>
<radialGradient id="paint13_radial_63_1023" cx="0" cy="0" r="1" gradientUnits="userSpaceOnUse" gradientTransform="translate(41.8881 55.0058) rotate(-90.6802) scale(17.1949 9.01642)">
<stop stop-color="#D7A12D"/>
<stop offset="0.18828" stop-color="#F9E736"/>
<stop offset="0.707589" stop-color="#F9E736"/>
<stop offset="1" stop-color="#F9E736"/>
</radialGradient>
<linearGradient id="paint14_linear_63_1023" x1="40.1529" y1="37.5014" x2="33.3147" y2="37.7026" gradientUnits="userSpaceOnUse">
<stop stop-color="#F5D532" stop-opacity="0.862745"/>
<stop offset="0.238975" stop-color="#F3D231"/>
<stop offset="0.403118" stop-color="#F2CF30"/>
<stop offset="0.716481" stop-color="#E0B02F"/>
<stop offset="1" stop-color="#D39B2D"/>
</linearGradient>
<linearGradient id="paint15_linear_63_1023" x1="39.2333" y1="36.9835" x2="39.2333" y2="57.8024" gradientUnits="userSpaceOnUse">
<stop stop-color="#4274BB"/>
<stop offset="0.298508" stop-color="#3C6AAA"/>
<stop offset="0.741294" stop-color="#2F5488"/>
<stop offset="0.895522" stop-color="#2B4B7B"/>
<stop offset="1" stop-color="#2B4B7B"/>
</linearGradient>
<linearGradient id="paint16_linear_63_1023" x1="20.3463" y1="62.1154" x2="20.495" y2="46.6619" gradientUnits="userSpaceOnUse">
<stop stop-color="#2B4B7B"/>
<stop offset="0.156519" stop-color="#2E5285"/>
<stop offset="0.383897" stop-color="#37629D"/>
<stop offset="0.511713" stop-color="#3F6FB3"/>
<stop offset="0.625581" stop-color="#3B68A6"/>
<stop offset="0.815183" stop-color="#345B93"/>
<stop offset="1" stop-color="#2B4B7B"/>
</linearGradient>
<linearGradient id="paint17_linear_63_1023" x1="29.8264" y1="61.8935" x2="29.7213" y2="46.3053" gradientUnits="userSpaceOnUse">
<stop stop-color="#2B4B7B"/>
<stop offset="0.209293" stop-color="#38639F"/>
<stop offset="0.411942" stop-color="#3C69A8"/>
<stop offset="0.493204" stop-color="#3E6DB0"/>
<stop offset="0.571425" stop-color="#38639F"/>
<stop offset="0.810662" stop-color="#2E5183"/>
<stop offset="1" stop-color="#2B4B7B"/>
</linearGradient>
<linearGradient id="paint18_linear_63_1023" x1="24.8763" y1="47.341" x2="25.0865" y2="61.1166" gradientUnits="userSpaceOnUse">
<stop stop-color="#F9E736"/>
<stop offset="0.195445" stop-color="#F9E736"/>
<stop offset="0.473464" stop-color="#F5D933"/>
<stop offset="0.774374" stop-color="#E2B22F"/>
<stop offset="1" stop-color="#C7872B"/>
</linearGradient>
<linearGradient id="paint19_linear_63_1023" x1="19.9776" y1="54.1252" x2="30.3878" y2="54.2761" gradientUnits="userSpaceOnUse">
<stop stop-color="#4172B8"/>
<stop offset="0.269477" stop-color="#3A67A4"/>
<stop offset="0.504937" stop-color="#345B93"/>
<stop offset="0.755027" stop-color="#2C4E7F"/>
<stop offset="1" stop-color="#2B4B7B"/>
</linearGradient>
<linearGradient id="paint20_linear_63_1023" x1="19.9776" y1="54.1251" x2="30.3878" y2="54.276" gradientUnits="userSpaceOnUse">
<stop stop-color="#4172B8"/>
<stop offset="0.269477" stop-color="#3A67A4"/>
<stop offset="0.504937" stop-color="#345B93"/>
<stop offset="0.755027" stop-color="#2C4E7F"/>
<stop offset="1" stop-color="#2B4B7B"/>
</linearGradient>
<linearGradient id="paint21_linear_63_1023" x1="19.9775" y1="54.1251" x2="30.3877" y2="54.276" gradientUnits="userSpaceOnUse">
<stop stop-color="#4172B8"/>
<stop offset="0.269477" stop-color="#3A67A4"/>
<stop offset="0.504937" stop-color="#345B93"/>
<stop offset="0.755027" stop-color="#2C4E7F"/>
<stop offset="1" stop-color="#2B4B7B"/>
</linearGradient>
<linearGradient id="paint22_linear_63_1023" x1="19.9776" y1="54.1251" x2="30.3877" y2="54.2759" gradientUnits="userSpaceOnUse">
<stop stop-color="#4172B8"/>
<stop offset="0.269477" stop-color="#3A67A4"/>
<stop offset="0.504937" stop-color="#345B93"/>
<stop offset="0.755027" stop-color="#2C4E7F"/>
<stop offset="1" stop-color="#2B4B7B"/>
</linearGradient>
<linearGradient id="paint23_linear_63_1023" x1="19.9776" y1="54.1252" x2="30.3878" y2="54.2761" gradientUnits="userSpaceOnUse">
<stop stop-color="#4172B8"/>
<stop offset="0.269477" stop-color="#3A67A4"/>
<stop offset="0.504937" stop-color="#345B93"/>
<stop offset="0.755027" stop-color="#2C4E7F"/>
<stop offset="1" stop-color="#2B4B7B"/>
</linearGradient>
<linearGradient id="paint24_linear_63_1023" x1="19.9775" y1="54.1251" x2="30.3877" y2="54.276" gradientUnits="userSpaceOnUse">
<stop stop-color="#4172B8"/>
<stop offset="0.269477" stop-color="#3A67A4"/>
<stop offset="0.504937" stop-color="#345B93"/>
<stop offset="0.755027" stop-color="#2C4E7F"/>
<stop offset="1" stop-color="#2B4B7B"/>
</linearGradient>
</defs>
</svg>
