<svg width="0" height="0" class="hidden">
  <symbol fill="none" xmlns="http://www.w3.org/2000/svg" viewBox="0 0 89 76" id="field-2">
    <g opacity="0.7" clip-path="url(#clip0_20_11827)">
      <path d="M36.5965 5.02051L36.5965 1.33352C36.5965 1.14929 36.7459 0.999942 36.9301 0.999942L52.006 0.999942C52.1902 0.999942 52.3395 1.14929 52.3395 1.33352L52.3395 5.02051" stroke-width="1.2462"></path>
      <path d="M87.5168 5.12114C87.5168 5.9428 88.1809 6.60889 89.0001 6.60889" stroke-width="1.2462"></path>
      <path d="M1.48342 5.12114C1.48342 5.9428 0.819314 6.60889 9.15527e-05 6.60889" stroke-width="1.2462"></path>
      <path d="M44.4999 63.4686C51.527 63.4686 57.2268 69.1827 57.2268 76.2353C57.2268 83.2878 51.527 89.0019 44.4999 89.0019C37.4728 89.0019 31.773 83.2878 31.773 76.2353C31.773 69.1827 37.4728 63.4686 44.4999 63.4686Z" stroke-width="1.2462"></path>
      <rect x="0.623102" y="0.623102" width="7.68029" height="25.4538" transform="matrix(-1.19249e-08 1 1 1.19249e-08 31.1499 4.97168)" stroke-width="1.2462"></rect>
      <rect x="0.623102" y="0.623102" width="21.9627" height="50.9671" transform="matrix(-1.19249e-08 1 1 1.19249e-08 18.3937 4.97168)" stroke-width="1.2462"></rect>
      <mask id="path-7-inside-1_20_11827" fill="white">
        <rect y="76" width="71" height="89" rx="0.66715" transform="rotate(-90 0 76)"></rect>
      </mask>
      <rect y="76" width="71" height="89" rx="0.66715" transform="rotate(-90 0 76)" stroke-width="2.49241" mask="url(#path-7-inside-1_20_11827)"></rect>
      <line x1="9.15874e-05" y1="75.6118" x2="89" y2="75.6118" stroke-width="1.2462"></line>
      <path d="M33.656 28.1064C36.0794 31.4853 40.0338 33.6855 44.5005 33.6855C48.9672 33.6855 52.9216 31.4853 55.345 28.1064" stroke-width="1.2462"></path>
      <ellipse cx="44.4997" cy="19.2545" rx="0.5951" ry="0.593333" transform="rotate(-90 44.4997 19.2545)" fill="#939EA8"></ellipse>
      <path d="M44.4997 75.5657C44.8274 75.5657 45.0931 75.8321 45.0931 76.1608C45.0931 76.4894 44.8274 76.7559 44.4997 76.7559C44.1721 76.7559 43.9064 76.4894 43.9064 76.1608C43.9064 75.8321 44.1721 75.5657 44.4997 75.5657Z" fill="#939EA8"></path>
      <path opacity="0.3" fill-rule="evenodd" clip-rule="evenodd" d="M36.6692 1.51165L36.9584 1.51165L36.9584 1.80231L36.6692 1.80231L36.6692 1.95027L36.9584 1.95027L36.9584 2.24091L36.6692 2.24091L36.6692 2.38887L36.9584 2.38887L36.9584 2.67952L36.6692 2.67952L36.6692 2.82747L36.9584 2.82747L36.9584 3.11814L36.6692 3.11814L36.6692 3.26609L36.9584 3.26609L36.9584 3.55674L36.6692 3.55674L36.6692 3.70469L36.9584 3.70469L36.9584 3.99534L36.6692 3.99534L36.6692 4.14329L36.9584 4.14329L36.9584 4.43396L36.6692 4.43396L36.6692 4.58191L36.9584 4.58191L36.9584 5.02051L37.1064 5.02051L37.1064 4.58191L37.3958 4.58191L37.3958 5.02051L37.5438 5.02051L37.5438 4.58191L37.8332 4.58191L37.8332 5.02051L37.9811 5.02051L37.9811 4.58191L38.2704 4.58191L38.2704 5.02051L38.4184 5.02051L38.4184 4.58191L38.7077 4.58191L38.7077 5.02051L38.8556 5.02051L38.8556 4.58191L39.1452 4.58191L39.1452 5.02051L39.2931 5.02051L39.2931 4.58191L39.5823 4.58191L39.5823 5.02051L39.7303 5.02051L39.7303 4.58191L40.0196 4.58191L40.0196 5.02051L40.1675 5.02051L40.1675 4.58191L40.457 4.58191L40.457 5.02051L40.6049 5.02051L40.6049 4.58191L40.8943 4.58191L40.8943 5.02051L41.0423 5.02051L41.0423 4.58191L41.3315 4.58191L41.3315 5.02051L41.4794 5.02051L41.4794 4.58191L41.7689 4.58191L41.7689 5.02051L41.9168 5.02051L41.9168 4.58191L42.2062 4.58191L42.2062 5.02051L42.3542 5.02051L42.3542 4.58191L42.6435 4.58191L42.6435 5.02051L42.7914 5.02051L42.7914 4.58191L43.0808 4.58191L43.0808 5.02051L43.2287 5.02051L43.2287 4.58191L43.5181 4.58191L43.5181 5.02051L43.6661 5.02051L43.6661 4.58191L43.9555 4.58191L43.9555 5.02051L44.1034 5.02051L44.1034 4.58191L44.3928 4.58191L44.3928 5.02051L44.5407 5.02051L44.5407 4.58191L44.8301 4.58191L44.8301 5.02051L44.9781 5.02051L44.9781 4.58191L45.2673 4.58191L45.2673 5.02051L45.4152 5.02051L45.4152 4.58191L45.7047 4.58191L45.7047 5.02051L45.8526 5.02051L45.8526 4.58191L46.1419 4.58191L46.1419 5.02051L46.2898 5.02051L46.2898 4.58191L46.5792 4.58191L46.5792 5.02051L46.7271 5.02051L46.7271 4.58191L47.0165 4.58191L47.0165 5.02051L47.1645 5.02051L47.1645 4.58191L47.4538 4.58191L47.4538 5.02051L47.6018 5.02051L47.6018 4.58191L47.8912 4.58191L47.8912 5.02051L48.0391 5.02051L48.0391 4.58191L48.3284 4.58191L48.3284 5.02051L48.4764 5.02051L48.4764 4.58191L48.7657 4.58191L48.7657 5.02051L48.9137 5.02051L48.9137 4.58191L49.2032 4.58191L49.2032 5.02051L49.3511 5.02051L49.3511 4.58191L49.6404 4.58191L49.6404 5.02051L49.7884 5.02051L49.7884 4.58191L50.0777 4.58191L50.0777 5.02051L50.2257 5.02051L50.2257 4.58191L50.5148 4.58191L50.5148 5.02051L50.6628 5.02051L50.6628 4.58191L50.9522 4.58191L50.9522 5.02051L51.1002 5.02051L51.1002 4.58191L51.3896 4.58191L51.3896 5.02051L51.5375 5.02051L51.5375 4.58191L51.8268 4.58191L51.8268 5.02051L51.9748 5.02051L51.9748 4.58191L52.2664 4.58191L52.2664 4.43396L51.9748 4.43396L51.9748 4.14329L52.2664 4.14329L52.2664 3.99534L51.9748 3.99534L51.9748 3.70469L52.2664 3.70469L52.2664 3.55674L51.9748 3.55674L51.9748 3.26609L52.2664 3.26609L52.2664 3.11814L51.9748 3.11814L51.9748 2.82747L52.2664 2.82747L52.2664 2.67951L51.9748 2.67951L51.9748 2.38887L52.2664 2.38887L52.2664 2.24091L51.9748 2.24091L51.9748 1.95027L52.2664 1.95027L52.2664 1.80231L51.9748 1.80231L51.9748 1.51165L52.2664 1.51165L52.2664 1.3637L51.9748 1.3637L51.9748 1.07304L51.8268 1.07304L51.8268 1.3637L51.5375 1.3637L51.5375 1.07304L51.3896 1.07304L51.3896 1.3637L51.1002 1.3637L51.1002 1.07304L50.9522 1.07304L50.9522 1.3637L50.6628 1.3637L50.6628 1.07304L50.5148 1.07304L50.5148 1.3637L50.2257 1.3637L50.2257 1.07304L50.0777 1.07304L50.0777 1.3637L49.7884 1.3637L49.7884 1.07304L49.6404 1.07304L49.6404 1.3637L49.3511 1.3637L49.3511 1.07304L49.2032 1.07304L49.2032 1.3637L48.9137 1.3637L48.9137 1.07304L48.7657 1.07304L48.7657 1.3637L48.4764 1.3637L48.4764 1.07304L48.3284 1.07304L48.3284 1.3637L48.0391 1.3637L48.0391 1.07304L47.8912 1.07304L47.8912 1.3637L47.6018 1.3637L47.6018 1.07304L47.4538 1.07304L47.4538 1.3637L47.1645 1.3637L47.1645 1.07304L47.0165 1.07304L47.0165 1.3637L46.7271 1.3637L46.7271 1.07304L46.5792 1.07304L46.5792 1.3637L46.2898 1.3637L46.2898 1.07304L46.1419 1.07304L46.1419 1.3637L45.8526 1.3637L45.8526 1.07304L45.7047 1.07304L45.7047 1.3637L45.4152 1.3637L45.4152 1.07304L45.2673 1.07304L45.2673 1.3637L44.9781 1.3637L44.9781 1.07304L44.8301 1.07304L44.8301 1.3637L44.5407 1.3637L44.5407 1.07304L44.3928 1.07304L44.3928 1.3637L44.1034 1.3637L44.1034 1.07304L43.9555 1.07304L43.9555 1.3637L43.6661 1.3637L43.6661 1.07304L43.5181 1.07304L43.5181 1.3637L43.2287 1.3637L43.2287 1.07304L43.0808 1.07304L43.0808 1.3637L42.7914 1.3637L42.7914 1.07304L42.6435 1.07304L42.6435 1.3637L42.3542 1.3637L42.3542 1.07304L42.2062 1.07304L42.2062 1.3637L41.9168 1.3637L41.9168 1.07304L41.7689 1.07304L41.7689 1.3637L41.4794 1.3637L41.4794 1.07304L41.3315 1.07304L41.3315 1.3637L41.0423 1.3637L41.0423 1.07304L40.8943 1.07304L40.8943 1.3637L40.6049 1.3637L40.6049 1.07304L40.457 1.07304L40.457 1.3637L40.1675 1.3637L40.1675 1.07304L40.0196 1.07304L40.0196 1.3637L39.7303 1.3637L39.7303 1.07304L39.5823 1.07304L39.5823 1.3637L39.2931 1.3637L39.2931 1.07304L39.1452 1.07304L39.1452 1.3637L38.8556 1.3637L38.8556 1.07304L38.7077 1.07304L38.7077 1.3637L38.4184 1.3637L38.4184 1.07304L38.2704 1.07304L38.2704 1.3637L37.9811 1.3637L37.9811 1.07304L37.8332 1.07304L37.8332 1.3637L37.5438 1.3637L37.5438 1.07304L37.3958 1.07304L37.3958 1.3637L37.1064 1.3637L37.1064 1.07304L36.9584 1.07304L36.9584 1.3637L36.6692 1.3637L36.6692 1.51165ZM51.8268 1.51165L51.8268 1.80231L51.5375 1.80231L51.5375 1.51165L51.8268 1.51165ZM51.8268 1.95027L51.8268 2.24091L51.5375 2.24091L51.5375 1.95027L51.8268 1.95027ZM51.8268 2.38887L51.8268 2.67952L51.5375 2.67952L51.5375 2.38887L51.8268 2.38887ZM51.8268 2.82747L51.8268 3.11814L51.5375 3.11814L51.5375 2.82747L51.8268 2.82747ZM51.8268 3.26609L51.8268 3.55674L51.5375 3.55674L51.5375 3.26609L51.8268 3.26609ZM51.8268 3.70469L51.8268 3.99534L51.5375 3.99534L51.5375 3.70469L51.8268 3.70469ZM51.8268 4.14329L51.8268 4.43396L51.5375 4.43396L51.5375 4.14329L51.8268 4.14329ZM51.1002 4.43396L51.3896 4.43396L51.3896 4.14329L51.1002 4.14329L51.1002 4.43396ZM51.1002 3.99534L51.3896 3.99534L51.3896 3.70469L51.1002 3.70469L51.1002 3.99534ZM51.1002 3.55674L51.3896 3.55674L51.3896 3.26609L51.1002 3.26609L51.1002 3.55674ZM51.1002 3.11814L51.3896 3.11814L51.3896 2.82747L51.1002 2.82747L51.1002 3.11814ZM51.1002 2.67952L51.3896 2.67952L51.3896 2.38887L51.1002 2.38887L51.1002 2.67952ZM51.1002 2.24091L51.3896 2.24091L51.3896 1.95027L51.1002 1.95027L51.1002 2.24091ZM51.1002 1.80231L51.3896 1.80231L51.3896 1.51165L51.1002 1.51165L51.1002 1.80231ZM50.9522 1.51165L50.9522 1.80231L50.6628 1.80231L50.6628 1.51165L50.9522 1.51165ZM50.9522 1.95027L50.9522 2.24091L50.6628 2.24091L50.6628 1.95027L50.9522 1.95027ZM50.9522 2.38887L50.9522 2.67952L50.6628 2.67952L50.6628 2.38887L50.9522 2.38887ZM50.9522 2.82747L50.9522 3.11814L50.6628 3.11814L50.6628 2.82747L50.9522 2.82747ZM50.9522 3.26609L50.9522 3.55674L50.6628 3.55674L50.6628 3.26609L50.9522 3.26609ZM50.9522 3.70469L50.9522 3.99534L50.6628 3.99534L50.6628 3.70469L50.9522 3.70469ZM50.9522 4.14329L50.9522 4.43396L50.6628 4.43396L50.6628 4.14329L50.9522 4.14329ZM50.2257 4.43396L50.5148 4.43396L50.5148 4.14329L50.2257 4.14329L50.2257 4.43396ZM50.2257 3.99534L50.5148 3.99534L50.5148 3.70469L50.2257 3.70469L50.2257 3.99534ZM50.2257 3.55674L50.5148 3.55674L50.5148 3.26609L50.2257 3.26609L50.2257 3.55674ZM50.2257 3.11814L50.5148 3.11814L50.5148 2.82747L50.2257 2.82747L50.2257 3.11814ZM50.2257 2.67952L50.5148 2.67952L50.5148 2.38887L50.2257 2.38887L50.2257 2.67952ZM50.2257 2.24091L50.5148 2.24091L50.5148 1.95027L50.2257 1.95027L50.2257 2.24091ZM50.2257 1.80231L50.5148 1.80231L50.5148 1.51165L50.2257 1.51165L50.2257 1.80231ZM50.0777 1.51165L50.0777 1.80231L49.7884 1.80231L49.7884 1.51165L50.0777 1.51165ZM50.0777 1.95027L50.0777 2.24091L49.7884 2.24091L49.7884 1.95027L50.0777 1.95027ZM50.0777 2.38887L50.0777 2.67952L49.7884 2.67952L49.7884 2.38887L50.0777 2.38887ZM50.0777 2.82747L50.0777 3.11814L49.7884 3.11814L49.7884 2.82747L50.0777 2.82747ZM50.0777 3.26609L50.0777 3.55674L49.7884 3.55674L49.7884 3.26609L50.0777 3.26609ZM50.0777 3.70469L50.0777 3.99534L49.7884 3.99534L49.7884 3.70469L50.0777 3.70469ZM50.0777 4.14329L50.0777 4.43396L49.7884 4.43396L49.7884 4.14329L50.0777 4.14329ZM49.3511 4.43396L49.6404 4.43396L49.6404 4.14329L49.3511 4.14329L49.3511 4.43396ZM49.3511 3.99534L49.6404 3.99534L49.6404 3.70469L49.3511 3.70469L49.3511 3.99534ZM49.3511 3.55674L49.6404 3.55674L49.6404 3.26609L49.3511 3.26609L49.3511 3.55674ZM49.3511 3.11814L49.6404 3.11814L49.6404 2.82747L49.3511 2.82747L49.3511 3.11814ZM49.3511 2.67952L49.6404 2.67952L49.6404 2.38887L49.3511 2.38887L49.3511 2.67952ZM49.3511 2.24091L49.6404 2.24091L49.6404 1.95027L49.3511 1.95027L49.3511 2.24091ZM49.3511 1.80231L49.6404 1.80231L49.6404 1.51165L49.3511 1.51165L49.3511 1.80231ZM49.2032 1.51165L49.2032 1.80231L48.9137 1.80231L48.9137 1.51165L49.2032 1.51165ZM49.2032 1.95027L49.2032 2.24091L48.9137 2.24091L48.9137 1.95027L49.2032 1.95027ZM49.2032 2.38887L49.2032 2.67952L48.9137 2.67952L48.9137 2.38887L49.2032 2.38887ZM49.2032 2.82747L49.2032 3.11814L48.9137 3.11814L48.9137 2.82747L49.2032 2.82747ZM49.2032 3.26609L49.2032 3.55674L48.9137 3.55674L48.9137 3.26609L49.2032 3.26609ZM49.2032 3.70469L49.2032 3.99534L48.9137 3.99534L48.9137 3.70469L49.2032 3.70469ZM49.2032 4.14329L49.2032 4.43396L48.9137 4.43396L48.9137 4.14329L49.2032 4.14329ZM48.4764 4.43396L48.7657 4.43396L48.7657 4.14329L48.4764 4.14329L48.4764 4.43396ZM48.4764 3.99534L48.7657 3.99534L48.7657 3.70469L48.4764 3.70469L48.4764 3.99534ZM48.4764 3.55674L48.7657 3.55674L48.7657 3.26609L48.4764 3.26609L48.4764 3.55674ZM48.4764 3.11814L48.7657 3.11814L48.7657 2.82747L48.4764 2.82747L48.4764 3.11814ZM48.4764 2.67952L48.7657 2.67952L48.7657 2.38887L48.4764 2.38887L48.4764 2.67952ZM48.4764 2.24091L48.7657 2.24091L48.7657 1.95027L48.4764 1.95027L48.4764 2.24091ZM48.4764 1.80231L48.7657 1.80231L48.7657 1.51165L48.4764 1.51165L48.4764 1.80231ZM48.3284 1.51165L48.3284 1.80231L48.0391 1.80231L48.0391 1.51165L48.3284 1.51165ZM48.3284 1.95027L48.3284 2.24091L48.0391 2.24091L48.0391 1.95027L48.3284 1.95027ZM48.3284 2.38887L48.3284 2.67952L48.0391 2.67952L48.0391 2.38887L48.3284 2.38887ZM48.3284 2.82747L48.3284 3.11814L48.0391 3.11814L48.0391 2.82747L48.3284 2.82747ZM48.3284 3.26609L48.3284 3.55674L48.0391 3.55674L48.0391 3.26609L48.3284 3.26609ZM48.3284 3.70469L48.3284 3.99534L48.0391 3.99534L48.0391 3.70469L48.3284 3.70469ZM48.3284 4.14329L48.3284 4.43396L48.0391 4.43396L48.0391 4.14329L48.3284 4.14329ZM47.6018 4.43396L47.8912 4.43396L47.8912 4.14329L47.6018 4.14329L47.6018 4.43396ZM47.6018 3.99534L47.8912 3.99534L47.8912 3.70469L47.6018 3.70469L47.6018 3.99534ZM47.6018 3.55674L47.8912 3.55674L47.8912 3.26609L47.6018 3.26609L47.6018 3.55674ZM47.6018 3.11814L47.8912 3.11814L47.8912 2.82747L47.6018 2.82747L47.6018 3.11814ZM47.6018 2.67952L47.8912 2.67952L47.8912 2.38887L47.6018 2.38887L47.6018 2.67952ZM47.6018 2.24091L47.8912 2.24091L47.8912 1.95027L47.6018 1.95027L47.6018 2.24091ZM47.6018 1.80231L47.8912 1.80231L47.8912 1.51165L47.6018 1.51165L47.6018 1.80231ZM47.4538 1.51165L47.4538 1.80231L47.1645 1.80231L47.1645 1.51165L47.4538 1.51165ZM47.4538 1.95027L47.4538 2.24091L47.1645 2.24091L47.1645 1.95027L47.4538 1.95027ZM47.4538 2.38887L47.4538 2.67952L47.1645 2.67952L47.1645 2.38887L47.4538 2.38887ZM47.4538 2.82747L47.4538 3.11814L47.1645 3.11814L47.1645 2.82747L47.4538 2.82747ZM47.4538 3.26609L47.4538 3.55674L47.1645 3.55674L47.1645 3.26609L47.4538 3.26609ZM47.4538 3.70469L47.4538 3.99534L47.1645 3.99534L47.1645 3.70469L47.4538 3.70469ZM47.4538 4.14329L47.4538 4.43396L47.1645 4.43396L47.1645 4.14329L47.4538 4.14329ZM46.7271 4.43396L47.0165 4.43396L47.0165 4.14329L46.7271 4.14329L46.7271 4.43396ZM46.7271 3.99534L47.0165 3.99534L47.0165 3.70469L46.7271 3.70469L46.7271 3.99534ZM46.7271 3.55674L47.0165 3.55674L47.0165 3.26609L46.7271 3.26609L46.7271 3.55674ZM46.7271 3.11814L47.0165 3.11814L47.0165 2.82747L46.7271 2.82747L46.7271 3.11814ZM46.7271 2.67952L47.0165 2.67952L47.0165 2.38887L46.7271 2.38887L46.7271 2.67952ZM46.7271 2.24091L47.0165 2.24091L47.0165 1.95027L46.7271 1.95027L46.7271 2.24091ZM46.7271 1.80231L47.0165 1.80231L47.0165 1.51165L46.7271 1.51165L46.7271 1.80231ZM46.5792 1.51165L46.5792 1.80231L46.2898 1.80231L46.2898 1.51165L46.5792 1.51165ZM46.5792 1.95027L46.5792 2.24091L46.2898 2.24091L46.2898 1.95027L46.5792 1.95027ZM46.5792 2.38887L46.5792 2.67952L46.2898 2.67952L46.2898 2.38887L46.5792 2.38887ZM46.5792 2.82747L46.5792 3.11814L46.2898 3.11814L46.2898 2.82747L46.5792 2.82747ZM46.5792 3.26609L46.5792 3.55674L46.2898 3.55674L46.2898 3.26609L46.5792 3.26609ZM46.5792 3.70469L46.5792 3.99534L46.2898 3.99534L46.2898 3.70469L46.5792 3.70469ZM46.5792 4.14329L46.5792 4.43396L46.2898 4.43396L46.2898 4.14329L46.5792 4.14329ZM45.8526 4.43396L46.1419 4.43396L46.1419 4.14329L45.8526 4.14329L45.8526 4.43396ZM45.8526 3.99534L46.1419 3.99534L46.1419 3.70469L45.8526 3.70469L45.8526 3.99534ZM45.8526 3.55674L46.1419 3.55674L46.1419 3.26609L45.8526 3.26609L45.8526 3.55674ZM45.8526 3.11814L46.1419 3.11814L46.1419 2.82747L45.8526 2.82747L45.8526 3.11814ZM45.8526 2.67952L46.1419 2.67952L46.1419 2.38887L45.8526 2.38887L45.8526 2.67952ZM45.8526 2.24091L46.1419 2.24091L46.1419 1.95027L45.8526 1.95027L45.8526 2.24091ZM45.8526 1.80231L46.1419 1.80231L46.1419 1.51165L45.8526 1.51165L45.8526 1.80231ZM45.7047 1.51165L45.7047 1.80231L45.4152 1.80231L45.4152 1.51165L45.7047 1.51165ZM45.7047 1.95027L45.7047 2.24091L45.4152 2.24091L45.4152 1.95027L45.7047 1.95027ZM45.7047 2.38887L45.7047 2.67952L45.4152 2.67952L45.4152 2.38887L45.7047 2.38887ZM45.7047 2.82747L45.7047 3.11814L45.4152 3.11814L45.4152 2.82747L45.7047 2.82747ZM45.7047 3.26609L45.7047 3.55674L45.4152 3.55674L45.4152 3.26609L45.7047 3.26609ZM45.7047 3.70469L45.7047 3.99534L45.4152 3.99534L45.4152 3.70469L45.7047 3.70469ZM45.7047 4.14329L45.7047 4.43396L45.4152 4.43396L45.4152 4.14329L45.7047 4.14329ZM44.9781 4.43396L45.2673 4.43396L45.2673 4.14329L44.9781 4.14329L44.9781 4.43396ZM44.9781 3.99534L45.2673 3.99534L45.2673 3.70469L44.9781 3.70469L44.9781 3.99534ZM44.9781 3.55674L45.2673 3.55674L45.2673 3.26609L44.9781 3.26609L44.9781 3.55674ZM44.9781 3.11814L45.2673 3.11814L45.2673 2.82747L44.9781 2.82747L44.9781 3.11814ZM44.9781 2.67952L45.2673 2.67952L45.2673 2.38887L44.9781 2.38887L44.9781 2.67952ZM44.9781 2.24091L45.2673 2.24091L45.2673 1.95027L44.9781 1.95027L44.9781 2.24091ZM44.9781 1.80231L45.2673 1.80231L45.2673 1.51165L44.9781 1.51165L44.9781 1.80231ZM44.8301 1.51165L44.8301 1.80231L44.5407 1.80231L44.5407 1.51165L44.8301 1.51165ZM44.8301 1.95027L44.8301 2.24091L44.5407 2.24091L44.5407 1.95027L44.8301 1.95027ZM44.8301 2.38887L44.8301 2.67952L44.5407 2.67952L44.5407 2.38887L44.8301 2.38887ZM44.8301 2.82747L44.8301 3.11814L44.5407 3.11814L44.5407 2.82747L44.8301 2.82747ZM44.8301 3.26609L44.8301 3.55674L44.5407 3.55674L44.5407 3.26609L44.8301 3.26609ZM44.8301 3.70469L44.8301 3.99534L44.5407 3.99534L44.5407 3.70469L44.8301 3.70469ZM44.8301 4.14329L44.8301 4.43396L44.5407 4.43396L44.5407 4.14329L44.8301 4.14329ZM44.1034 4.43396L44.3928 4.43396L44.3928 4.14329L44.1034 4.14329L44.1034 4.43396ZM44.1034 3.99534L44.3928 3.99534L44.3928 3.70469L44.1034 3.70469L44.1034 3.99534ZM44.1034 3.55674L44.3928 3.55674L44.3928 3.26609L44.1034 3.26609L44.1034 3.55674ZM44.1034 3.11814L44.3928 3.11814L44.3928 2.82747L44.1034 2.82747L44.1034 3.11814ZM44.1034 2.67952L44.3928 2.67952L44.3928 2.38887L44.1034 2.38887L44.1034 2.67952ZM44.1034 2.24091L44.3928 2.24091L44.3928 1.95027L44.1034 1.95027L44.1034 2.24091ZM44.1034 1.80231L44.3928 1.80231L44.3928 1.51165L44.1034 1.51165L44.1034 1.80231ZM43.9555 1.51165L43.9555 1.80231L43.6661 1.80231L43.6661 1.51165L43.9555 1.51165ZM43.9555 1.95027L43.9555 2.24091L43.6661 2.24091L43.6661 1.95027L43.9555 1.95027ZM43.9555 2.38887L43.9555 2.67952L43.6661 2.67952L43.6661 2.38887L43.9555 2.38887ZM43.9555 2.82747L43.9555 3.11814L43.6661 3.11814L43.6661 2.82747L43.9555 2.82747ZM43.9555 3.26609L43.9555 3.55674L43.6661 3.55674L43.6661 3.26609L43.9555 3.26609ZM43.9555 3.70469L43.9555 3.99534L43.6661 3.99534L43.6661 3.70469L43.9555 3.70469ZM43.9555 4.14329L43.9555 4.43396L43.6661 4.43396L43.6661 4.14329L43.9555 4.14329ZM43.2287 4.43396L43.5181 4.43396L43.5181 4.14329L43.2287 4.14329L43.2287 4.43396ZM43.2287 3.99534L43.5181 3.99534L43.5181 3.70469L43.2287 3.70469L43.2287 3.99534ZM43.2287 3.55674L43.5181 3.55674L43.5181 3.26609L43.2287 3.26609L43.2287 3.55674ZM43.2287 3.11814L43.5181 3.11814L43.5181 2.82747L43.2287 2.82747L43.2287 3.11814ZM43.2287 2.67952L43.5181 2.67952L43.5181 2.38887L43.2287 2.38887L43.2287 2.67952ZM43.2287 2.24091L43.5181 2.24091L43.5181 1.95027L43.2287 1.95027L43.2287 2.24091ZM43.2287 1.80231L43.5181 1.80231L43.5181 1.51165L43.2287 1.51165L43.2287 1.80231ZM43.0808 1.51165L43.0808 1.80231L42.7914 1.80231L42.7914 1.51165L43.0808 1.51165ZM43.0808 1.95027L43.0808 2.24091L42.7914 2.24091L42.7914 1.95027L43.0808 1.95027ZM43.0808 2.38887L43.0808 2.67952L42.7914 2.67952L42.7914 2.38887L43.0808 2.38887ZM43.0808 2.82747L43.0808 3.11814L42.7914 3.11814L42.7914 2.82747L43.0808 2.82747ZM43.0808 3.26609L43.0808 3.55674L42.7914 3.55674L42.7914 3.26609L43.0808 3.26609ZM43.0808 3.70469L43.0808 3.99534L42.7914 3.99534L42.7914 3.70469L43.0808 3.70469ZM43.0808 4.14329L43.0808 4.43396L42.7914 4.43396L42.7914 4.14329L43.0808 4.14329ZM42.3542 4.43396L42.6435 4.43396L42.6435 4.14329L42.3542 4.14329L42.3542 4.43396ZM42.3542 3.99534L42.6435 3.99534L42.6435 3.70469L42.3542 3.70469L42.3542 3.99534ZM42.3542 3.55674L42.6435 3.55674L42.6435 3.26609L42.3542 3.26609L42.3542 3.55674ZM42.3542 3.11814L42.6435 3.11814L42.6435 2.82747L42.3542 2.82747L42.3542 3.11814ZM42.3542 2.67952L42.6435 2.67952L42.6435 2.38887L42.3542 2.38887L42.3542 2.67952ZM42.3542 2.24091L42.6435 2.24091L42.6435 1.95027L42.3542 1.95027L42.3542 2.24091ZM42.3542 1.80231L42.6435 1.80231L42.6435 1.51165L42.3542 1.51165L42.3542 1.80231ZM42.2062 1.51165L42.2062 1.80231L41.9168 1.80231L41.9168 1.51165L42.2062 1.51165ZM42.2062 1.95027L42.2062 2.24091L41.9168 2.24091L41.9168 1.95027L42.2062 1.95027ZM42.2062 2.38887L42.2062 2.67952L41.9168 2.67952L41.9168 2.38887L42.2062 2.38887ZM42.2062 2.82747L42.2062 3.11814L41.9168 3.11814L41.9168 2.82747L42.2062 2.82747ZM42.2062 3.26609L42.2062 3.55674L41.9168 3.55674L41.9168 3.26609L42.2062 3.26609ZM42.2062 3.70469L42.2062 3.99534L41.9168 3.99534L41.9168 3.70469L42.2062 3.70469ZM42.2062 4.14329L42.2062 4.43396L41.9168 4.43396L41.9168 4.14329L42.2062 4.14329ZM41.4794 4.43396L41.7689 4.43396L41.7689 4.14329L41.4794 4.14329L41.4794 4.43396ZM41.4794 3.99534L41.7689 3.99534L41.7689 3.70469L41.4794 3.70469L41.4794 3.99534ZM41.4794 3.55674L41.7689 3.55674L41.7689 3.26609L41.4794 3.26609L41.4794 3.55674ZM41.4794 3.11814L41.7689 3.11814L41.7689 2.82747L41.4794 2.82747L41.4794 3.11814ZM41.4794 2.67952L41.7689 2.67952L41.7689 2.38887L41.4794 2.38887L41.4794 2.67952ZM41.4794 2.24091L41.7689 2.24091L41.7689 1.95027L41.4794 1.95027L41.4794 2.24091ZM41.4794 1.80231L41.7689 1.80231L41.7689 1.51165L41.4794 1.51165L41.4794 1.80231ZM41.3315 1.51165L41.3315 1.80231L41.0423 1.80231L41.0423 1.51165L41.3315 1.51165ZM41.3315 1.95027L41.3315 2.24091L41.0423 2.24091L41.0423 1.95027L41.3315 1.95027ZM41.3315 2.38887L41.3315 2.67952L41.0423 2.67952L41.0423 2.38887L41.3315 2.38887ZM41.3315 2.82747L41.3315 3.11814L41.0423 3.11814L41.0423 2.82747L41.3315 2.82747ZM41.3315 3.26609L41.3315 3.55674L41.0423 3.55674L41.0423 3.26609L41.3315 3.26609ZM41.3315 3.70469L41.3315 3.99534L41.0423 3.99534L41.0423 3.70469L41.3315 3.70469ZM41.3315 4.14329L41.3315 4.43396L41.0423 4.43396L41.0423 4.14329L41.3315 4.14329ZM40.6049 4.43396L40.8943 4.43396L40.8943 4.14329L40.6049 4.14329L40.6049 4.43396ZM40.6049 3.99534L40.8943 3.99534L40.8943 3.70469L40.6049 3.70469L40.6049 3.99534ZM40.6049 3.55674L40.8943 3.55674L40.8943 3.26609L40.6049 3.26609L40.6049 3.55674ZM40.6049 3.11814L40.8943 3.11814L40.8943 2.82747L40.6049 2.82747L40.6049 3.11814ZM40.6049 2.67952L40.8943 2.67952L40.8943 2.38887L40.6049 2.38887L40.6049 2.67952ZM40.6049 2.24091L40.8943 2.24091L40.8943 1.95027L40.6049 1.95027L40.6049 2.24091ZM40.6049 1.80231L40.8943 1.80231L40.8943 1.51165L40.6049 1.51165L40.6049 1.80231ZM40.457 1.51165L40.457 1.80231L40.1675 1.80231L40.1675 1.51165L40.457 1.51165ZM40.457 1.95027L40.457 2.24091L40.1675 2.24091L40.1675 1.95027L40.457 1.95027ZM40.457 2.38887L40.457 2.67952L40.1675 2.67952L40.1675 2.38887L40.457 2.38887ZM40.457 2.82747L40.457 3.11814L40.1675 3.11814L40.1675 2.82747L40.457 2.82747ZM40.457 3.26609L40.457 3.55674L40.1675 3.55674L40.1675 3.26609L40.457 3.26609ZM40.457 3.70469L40.457 3.99534L40.1675 3.99534L40.1675 3.70469L40.457 3.70469ZM40.457 4.14329L40.457 4.43396L40.1675 4.43396L40.1675 4.14329L40.457 4.14329ZM39.7303 4.43396L40.0196 4.43396L40.0196 4.14329L39.7303 4.14329L39.7303 4.43396ZM39.7303 3.99534L40.0196 3.99534L40.0196 3.70469L39.7303 3.70469L39.7303 3.99534ZM39.7303 3.55674L40.0196 3.55674L40.0196 3.26609L39.7303 3.26609L39.7303 3.55674ZM39.7303 3.11814L40.0196 3.11814L40.0196 2.82747L39.7303 2.82747L39.7303 3.11814ZM39.7303 2.67952L40.0196 2.67952L40.0196 2.38887L39.7303 2.38887L39.7303 2.67952ZM39.7303 2.24091L40.0196 2.24091L40.0196 1.95027L39.7303 1.95027L39.7303 2.24091ZM39.7303 1.80231L40.0196 1.80231L40.0196 1.51165L39.7303 1.51165L39.7303 1.80231ZM39.5823 1.51165L39.5823 1.80231L39.2931 1.80231L39.2931 1.51165L39.5823 1.51165ZM39.5823 1.95027L39.5823 2.24091L39.2931 2.24091L39.2931 1.95027L39.5823 1.95027ZM39.5823 2.38887L39.5823 2.67952L39.2931 2.67952L39.2931 2.38887L39.5823 2.38887ZM39.5823 2.82747L39.5823 3.11814L39.2931 3.11814L39.2931 2.82747L39.5823 2.82747ZM39.5823 3.26609L39.5823 3.55674L39.2931 3.55674L39.2931 3.26609L39.5823 3.26609ZM39.5823 3.70469L39.5823 3.99534L39.2931 3.99534L39.2931 3.70469L39.5823 3.70469ZM39.5823 4.14329L39.5823 4.43396L39.2931 4.43396L39.2931 4.14329L39.5823 4.14329ZM38.8556 4.43396L39.1452 4.43396L39.1452 4.14329L38.8556 4.14329L38.8556 4.43396ZM38.8556 3.99534L39.1452 3.99534L39.1452 3.70469L38.8556 3.70469L38.8556 3.99534ZM38.8556 3.55674L39.1452 3.55674L39.1452 3.26609L38.8556 3.26609L38.8556 3.55674ZM38.8556 3.11814L39.1452 3.11814L39.1452 2.82747L38.8556 2.82747L38.8556 3.11814ZM38.8556 2.67952L39.1452 2.67952L39.1452 2.38887L38.8556 2.38887L38.8556 2.67952ZM38.8556 2.24091L39.1452 2.24091L39.1452 1.95027L38.8556 1.95027L38.8556 2.24091ZM38.8556 1.80231L39.1452 1.80231L39.1452 1.51165L38.8556 1.51165L38.8556 1.80231ZM38.7077 1.51165L38.7077 1.80231L38.4184 1.80231L38.4184 1.51165L38.7077 1.51165ZM38.7077 1.95027L38.7077 2.24091L38.4184 2.24091L38.4184 1.95027L38.7077 1.95027ZM38.7077 2.38887L38.7077 2.67952L38.4184 2.67952L38.4184 2.38887L38.7077 2.38887ZM38.7077 2.82747L38.7077 3.11814L38.4184 3.11814L38.4184 2.82747L38.7077 2.82747ZM38.7077 3.26609L38.7077 3.55674L38.4184 3.55674L38.4184 3.26609L38.7077 3.26609ZM38.7077 3.70469L38.7077 3.99534L38.4184 3.99534L38.4184 3.70469L38.7077 3.70469ZM38.7077 4.14329L38.7077 4.43396L38.4184 4.43396L38.4184 4.14329L38.7077 4.14329ZM37.9811 4.43396L38.2704 4.43396L38.2704 4.14329L37.9811 4.14329L37.9811 4.43396ZM37.9811 3.99534L38.2704 3.99534L38.2704 3.70469L37.9811 3.70469L37.9811 3.99534ZM37.9811 3.55674L38.2704 3.55674L38.2704 3.26609L37.9811 3.26609L37.9811 3.55674ZM37.9811 3.11814L38.2704 3.11814L38.2704 2.82747L37.9811 2.82747L37.9811 3.11814ZM37.9811 2.67952L38.2704 2.67952L38.2704 2.38887L37.9811 2.38887L37.9811 2.67952ZM37.9811 2.24091L38.2704 2.24091L38.2704 1.95027L37.9811 1.95027L37.9811 2.24091ZM37.9811 1.80231L38.2704 1.80231L38.2704 1.51165L37.9811 1.51165L37.9811 1.80231ZM37.8332 1.51165L37.8332 1.80231L37.5438 1.80231L37.5438 1.51165L37.8332 1.51165ZM37.8332 1.95027L37.8332 2.24091L37.5438 2.24091L37.5438 1.95027L37.8332 1.95027ZM37.8332 2.38887L37.8332 2.67952L37.5438 2.67952L37.5438 2.38887L37.8332 2.38887ZM37.8332 2.82747L37.8332 3.11814L37.5438 3.11814L37.5438 2.82747L37.8332 2.82747ZM37.8332 3.26609L37.8332 3.55674L37.5438 3.55674L37.5438 3.26609L37.8332 3.26609ZM37.8332 3.70469L37.8332 3.99534L37.5438 3.99534L37.5438 3.70469L37.8332 3.70469ZM37.8332 4.14329L37.8332 4.43396L37.5438 4.43396L37.5438 4.14329L37.8332 4.14329ZM37.1064 4.43396L37.3958 4.43396L37.3958 4.14329L37.1064 4.14329L37.1064 4.43396ZM37.1064 3.99534L37.3958 3.99534L37.3958 3.70469L37.1064 3.70469L37.1064 3.99534ZM37.1064 3.55674L37.3958 3.55674L37.3958 3.26609L37.1064 3.26609L37.1064 3.55674ZM37.1064 3.11814L37.3958 3.11814L37.3958 2.82747L37.1064 2.82747L37.1064 3.11814ZM37.1064 2.67952L37.3958 2.67952L37.3958 2.38887L37.1064 2.38887L37.1064 2.67952ZM37.1064 2.24091L37.3958 2.24091L37.3958 1.95027L37.1064 1.95027L37.1064 2.24091ZM37.1064 1.80231L37.3958 1.80231L37.3958 1.51165L37.1064 1.51165L37.1064 1.80231Z" fill="#939EA8"></path>
    </g>
    <defs>
      <clipPath id="clip0_20_11827">
        <rect width="76" height="89" fill="white" transform="translate(0 76) rotate(-90)"></rect>
      </clipPath>
    </defs>
  </symbol>
  <symbol fill="none" xmlns="http://www.w3.org/2000/svg" viewBox="0 0 123 72" id="field-1">
    <path d="M118.494 29.3662H121.453C121.601 29.3662 121.72 29.4861 121.72 29.6339V41.7313C121.72 41.8791 121.601 41.999 121.453 41.999H118.494"></path>
    <path d="M4.22625 29.3662H1.26767C1.11984 29.3662 1 29.4861 1 29.6339V41.7313C1 41.8791 1.11984 41.999 1.26767 41.999H4.22625"></path>
    <path d="M118.414 70.2267C117.754 70.2267 117.22 70.7596 117.22 71.417"></path>
    <path d="M118.414 1.19028C117.754 1.19028 117.22 0.657374 117.22 0"></path>
    <path d="M71.5933 35.7081C71.5933 41.347 67.0081 45.9207 61.3489 45.9207C55.6897 45.9207 51.1045 41.347 51.1045 35.7081C51.1045 30.0693 55.6897 25.4956 61.3489 25.4956C67.0081 25.4956 71.5933 30.0693 71.5933 35.7081Z"></path>
    <rect x="-0.5" y="0.5" width="6.16295" height="20.4251" transform="matrix(-1 0 0 1 117.533 24.9956)"></rect>
    <rect x="-0.5" y="0.5" width="17.6237" height="40.8979" transform="matrix(-1 0 0 1 117.533 14.7598)"></rect>
    <mask id="path-8-inside-1_20_11723" fill="white">
      <rect x="4.16476" width="114.368" height="71.4168" rx="0.535345"></rect>
    </mask>
    <rect x="4.16476" width="114.368" height="71.4168" rx="0.535345" stroke-width="0.5" mask="url(#path-8-inside-1_20_11723)"></rect>
    <rect x="4.66469" y="15.2598" width="17.6237" height="40.8979"></rect>
    <rect x="4.66469" y="25.4956" width="6.16295" height="20.4251"></rect>
    <line x1="61.8489" y1="2.18557e-08" x2="61.8489" y2="71.4168"></line>
    <path d="M22.7287 27.0068C25.44 28.9515 27.2055 32.1246 27.2055 35.7089C27.2055 39.2932 25.44 42.4663 22.7287 44.411"></path>
    <path d="M99.9691 27.0068C97.2578 28.9515 95.4923 32.1246 95.4923 35.7089C95.4923 39.2932 97.2578 42.4663 99.9691 44.411"></path>
    <path d="M4.28408 1.19028C4.94341 1.19028 5.47791 0.657374 5.47791 0"></path>
    <path d="M4.28408 70.2267C4.94341 70.2267 5.47791 70.7596 5.47791 71.417"></path>
    <ellipse cx="107.072" cy="35.7085" rx="0.47753" ry="0.476112" fill="#939EA8"></ellipse>
    <ellipse cx="15.6254" cy="35.7085" rx="0.47753" ry="0.476112" fill="#939EA8"></ellipse>
    <path d="M61.8861 35.7085C61.8861 35.9715 61.6723 36.1846 61.4086 36.1846C61.1448 36.1846 60.931 35.9715 60.931 35.7085C60.931 35.4456 61.1448 35.2324 61.4086 35.2324C61.6723 35.2324 61.8861 35.4456 61.8861 35.7085Z" fill="#939EA8"></path>
    <path opacity="0.3" fill-rule="evenodd" clip-rule="evenodd" d="M1.41061 29.4248V29.6569H1.64384V29.4248H1.76256V29.6569H1.99579V29.4248H2.11452V29.6569H2.34775V29.4248H2.46647V29.6569H2.69971V29.4248H2.81843V29.6569H3.05166V29.4248H3.17038V29.6569H3.40361V29.4248H3.52234V29.6569H3.75557V29.4248H3.87429V29.6569H4.22625V29.7756H3.87429V30.0079H4.22625V30.1266H3.87429V30.3588H4.22625V30.4775H3.87429V30.7097H4.22625V30.8284H3.87429V31.0605H4.22625V31.1793H3.87429V31.4116H4.22625V31.5303H3.87429V31.7624H4.22625V31.8811H3.87429V32.1133H4.22625V32.232H3.87429V32.4643H4.22625V32.583H3.87429V32.8152H4.22625V32.9339H3.87429V33.166H4.22625V33.2847H3.87429V33.517H4.22625V33.6357H3.87429V33.8679H4.22625V33.9866H3.87429V34.2188H4.22625V34.3375H3.87429V34.5697H4.22625V34.6884H3.87429V34.9206H4.22625V35.0393H3.87429V35.2716H4.22625V35.3903H3.87429V35.6225H4.22625V35.7412H3.87429V35.9734H4.22625V36.0921H3.87429V36.3242H4.22625V36.4429H3.87429V36.6752H4.22625V36.7939H3.87429V37.026H4.22625V37.1447H3.87429V37.3769H4.22625V37.4957H3.87429V37.7279H4.22625V37.8466H3.87429V38.0788H4.22625V38.1975H3.87429V38.4297H4.22625V38.5484H3.87429V38.7806H4.22625V38.8993H3.87429V39.1315H4.22625V39.2502H3.87429V39.4825H4.22625V39.6012H3.87429V39.8334H4.22625V39.9521H3.87429V40.1843H4.22625V40.303H3.87429V40.535H4.22625V40.6538H3.87429V40.886H4.22625V41.0048H3.87429V41.237H4.22625V41.3557H3.87429V41.5878H4.22625V41.7065H3.87429V41.9406H3.75557V41.7065H3.52233V41.9406H3.40361V41.7065H3.17038V41.9406H3.05166V41.7065H2.81843V41.9406H2.6997V41.7065H2.46647V41.9406H2.34775V41.7065H2.11452V41.9406H1.99579V41.7065H1.76256V41.9406H1.64384V41.7065H1.41061V41.9406H1.29189V41.7065H1.05865V41.5878H1.29189V41.3557H1.05865V41.237H1.29189V41.0048H1.05865V40.886H1.29189L1.29189 40.6538H1.05865V40.535H1.29189L1.29189 40.303H1.05865V40.1843H1.29189L1.29189 39.9521H1.05865V39.8334H1.29189L1.29189 39.6012H1.05865V39.4825H1.29189L1.29189 39.2502H1.05865V39.1315H1.29189L1.29189 38.8993H1.05865V38.7806H1.29189L1.29189 38.5484H1.05865V38.4297H1.29189L1.29189 38.1975H1.05865V38.0788H1.29189L1.29189 37.8466H1.05865V37.7279H1.29189L1.29189 37.4957H1.05865V37.3769H1.29189L1.29189 37.1447H1.05865V37.026H1.29189L1.29189 36.7939H1.05865V36.6752H1.29189L1.29189 36.4429H1.05865V36.3242H1.29189L1.29189 36.0921H1.05865V35.9734H1.29189L1.29189 35.7412H1.05865V35.6225H1.29189L1.29189 35.3903H1.05865V35.2716H1.29189L1.29189 35.0393H1.05865V34.9206H1.29189L1.29189 34.6884H1.05865V34.5697H1.29189L1.29189 34.3375H1.05865V34.2188H1.29189L1.29189 33.9866H1.05865V33.8679H1.29189L1.29189 33.6357H1.05865V33.517H1.29189L1.29189 33.2847H1.05865V33.166H1.29189L1.29189 32.9339H1.05865V32.8152H1.29189L1.29189 32.583H1.05865V32.4643H1.29189L1.29189 32.232H1.05865V32.1133H1.29189L1.29189 31.8811H1.05865V31.7624H1.29189L1.29189 31.5303H1.05865V31.4116H1.29189L1.29189 31.1793H1.05865V31.0605H1.29189L1.29189 30.8284H1.05865V30.7097H1.29189L1.29189 30.4775H1.05865V30.3588H1.29189L1.29189 30.1266H1.05865V30.0079H1.29189L1.29189 29.7756H1.05865V29.6569H1.29189L1.29189 29.4248H1.41061ZM1.41061 41.5878H1.64384V41.3557H1.41061V41.5878ZM1.76256 41.5878H1.99579V41.3557H1.76256V41.5878ZM2.11452 41.5878H2.34775V41.3557H2.11452V41.5878ZM2.46647 41.5878H2.6997V41.3557H2.46647V41.5878ZM2.81843 41.5878H3.05166V41.3557H2.81843V41.5878ZM3.17038 41.5878H3.40361V41.3557H3.17038V41.5878ZM3.52234 41.5878H3.75557V41.3557H3.52234V41.5878ZM3.75557 41.0048V41.237H3.52234V41.0048H3.75557ZM3.40361 41.0048V41.237H3.17038V41.0048H3.40361ZM3.05166 41.0048V41.237H2.81843V41.0048H3.05166ZM2.6997 41.0048V41.237H2.46647V41.0048H2.6997ZM2.34775 41.0048V41.237H2.11452V41.0048H2.34775ZM1.99579 41.0048V41.237H1.76256V41.0048H1.99579ZM1.64384 41.0048V41.237H1.41061V41.0048H1.64384ZM1.41061 40.886H1.64384V40.6538H1.41061V40.886ZM1.76256 40.886H1.99579V40.6538H1.76256V40.886ZM2.11452 40.886H2.34775V40.6538H2.11452V40.886ZM2.46647 40.886H2.6997V40.6538H2.46647V40.886ZM2.81843 40.886H3.05166V40.6538H2.81843V40.886ZM3.17038 40.886H3.40361V40.6538H3.17038V40.886ZM3.52234 40.886H3.75557V40.6538H3.52234V40.886ZM3.75557 40.303V40.535H3.52234V40.303H3.75557ZM3.40361 40.303V40.535H3.17038V40.303H3.40361ZM3.05166 40.303V40.535H2.81843V40.303H3.05166ZM2.6997 40.303V40.535H2.46647V40.303H2.6997ZM2.34775 40.303V40.535H2.11452V40.303H2.34775ZM1.99579 40.303V40.535H1.76256V40.303H1.99579ZM1.64384 40.303V40.535H1.41061V40.303H1.64384ZM1.41061 40.1843H1.64384V39.9521H1.41061V40.1843ZM1.76256 40.1843H1.99579V39.9521H1.76256V40.1843ZM2.11452 40.1843H2.34775V39.9521H2.11452V40.1843ZM2.46647 40.1843H2.6997V39.9521H2.46647V40.1843ZM2.81843 40.1843H3.05166V39.9521H2.81843V40.1843ZM3.17038 40.1843H3.40361V39.9521H3.17038V40.1843ZM3.52234 40.1843H3.75557V39.9521H3.52234V40.1843ZM3.75557 39.6012V39.8334H3.52234V39.6012H3.75557ZM3.40361 39.6012V39.8334H3.17038V39.6012H3.40361ZM3.05166 39.6012V39.8334H2.81843V39.6012H3.05166ZM2.6997 39.6012V39.8334H2.46647V39.6012H2.6997ZM2.34775 39.6012V39.8334H2.11452V39.6012H2.34775ZM1.99579 39.6012V39.8334H1.76256V39.6012H1.99579ZM1.64384 39.6012V39.8334H1.41061V39.6012H1.64384ZM1.41061 39.4825H1.64384V39.2502H1.41061V39.4825ZM1.76256 39.4825H1.99579V39.2502H1.76256V39.4825ZM2.11452 39.4825H2.34775V39.2502H2.11452V39.4825ZM2.46647 39.4825H2.6997V39.2502H2.46647V39.4825ZM2.81843 39.4825H3.05166V39.2502H2.81843V39.4825ZM3.17038 39.4825H3.40361V39.2502H3.17038V39.4825ZM3.52234 39.4825H3.75557V39.2502H3.52234V39.4825ZM3.75557 38.8993V39.1315H3.52234V38.8993H3.75557ZM3.40361 38.8993V39.1315H3.17038V38.8993H3.40361ZM3.05166 38.8993V39.1315H2.81843V38.8993H3.05166ZM2.6997 38.8993V39.1315H2.46647V38.8993H2.6997ZM2.34775 38.8993V39.1315H2.11452V38.8993H2.34775ZM1.99579 38.8993V39.1315H1.76256V38.8993H1.99579ZM1.64384 38.8993V39.1315H1.41061V38.8993H1.64384ZM1.41061 38.7806H1.64384V38.5484H1.41061V38.7806ZM1.76256 38.7806H1.99579V38.5484H1.76256V38.7806ZM2.11452 38.7806H2.34775V38.5484H2.11452V38.7806ZM2.46647 38.7806H2.69971V38.5484H2.46647V38.7806ZM2.81843 38.7806H3.05166V38.5484H2.81843V38.7806ZM3.17038 38.7806H3.40361V38.5484H3.17038V38.7806ZM3.52234 38.7806H3.75557V38.5484H3.52234V38.7806ZM3.75557 38.1975V38.4297H3.52234V38.1975H3.75557ZM3.40361 38.1975V38.4297H3.17038V38.1975H3.40361ZM3.05166 38.1975V38.4297H2.81843V38.1975H3.05166ZM2.69971 38.1975V38.4297H2.46647V38.1975H2.69971ZM2.34775 38.1975V38.4297H2.11452V38.1975H2.34775ZM1.99579 38.1975V38.4297H1.76256V38.1975H1.99579ZM1.64384 38.1975V38.4297H1.41061V38.1975H1.64384ZM1.41061 38.0788H1.64384V37.8466H1.41061V38.0788ZM1.76256 38.0788H1.99579V37.8466H1.76256V38.0788ZM2.11452 38.0788H2.34775V37.8466H2.11452V38.0788ZM2.46647 38.0788H2.69971V37.8466H2.46647V38.0788ZM2.81843 38.0788H3.05166V37.8466H2.81843V38.0788ZM3.17038 38.0788H3.40361V37.8466H3.17038V38.0788ZM3.52234 38.0788H3.75557V37.8466H3.52234V38.0788ZM3.75557 37.4957V37.7279H3.52234V37.4957H3.75557ZM3.40361 37.4957V37.7279H3.17038V37.4957H3.40361ZM3.05166 37.4957V37.7279H2.81843V37.4957H3.05166ZM2.69971 37.4957V37.7279H2.46647V37.4957H2.69971ZM2.34775 37.4957V37.7279H2.11452V37.4957H2.34775ZM1.99579 37.4957V37.7279H1.76256V37.4957H1.99579ZM1.64384 37.4957V37.7279H1.41061V37.4957H1.64384ZM1.41061 37.3769H1.64384V37.1447H1.41061V37.3769ZM1.76256 37.3769H1.99579V37.1447H1.76256V37.3769ZM2.11452 37.3769H2.34775V37.1447H2.11452V37.3769ZM2.46647 37.3769H2.69971V37.1447H2.46647V37.3769ZM2.81843 37.3769H3.05166V37.1447H2.81843V37.3769ZM3.17038 37.3769H3.40361V37.1447H3.17038V37.3769ZM3.52234 37.3769H3.75557V37.1447H3.52234V37.3769ZM3.75557 36.7939V37.026H3.52234V36.7939H3.75557ZM3.40361 36.7939V37.026H3.17038V36.7939H3.40361ZM3.05166 36.7939V37.026H2.81843V36.7939H3.05166ZM2.69971 36.7939V37.026H2.46647V36.7939H2.69971ZM2.34775 36.7939V37.026H2.11452V36.7939H2.34775ZM1.99579 36.7939V37.026H1.76256V36.7939H1.99579ZM1.64384 36.7939V37.026H1.41061V36.7939H1.64384ZM1.41061 36.6752H1.64384V36.4429H1.41061V36.6752ZM1.76256 36.6752H1.99579V36.4429H1.76256V36.6752ZM2.11452 36.6752H2.34775V36.4429H2.11452V36.6752ZM2.46647 36.6752H2.69971V36.4429H2.46647V36.6752ZM2.81843 36.6752H3.05166V36.4429H2.81843V36.6752ZM3.17038 36.6752H3.40361V36.4429H3.17038V36.6752ZM3.52234 36.6752H3.75557V36.4429H3.52234V36.6752ZM3.75557 36.0921V36.3242H3.52234V36.0921H3.75557ZM3.40361 36.0921V36.3242H3.17038V36.0921H3.40361ZM3.05166 36.0921V36.3242H2.81843V36.0921H3.05166ZM2.69971 36.0921V36.3242H2.46647V36.0921H2.69971ZM2.34775 36.0921V36.3242H2.11452V36.0921H2.34775ZM1.99579 36.0921V36.3242H1.76256V36.0921H1.99579ZM1.64384 36.0921V36.3242H1.41061V36.0921H1.64384ZM1.41061 35.9734H1.64384V35.7412H1.41061V35.9734ZM1.76256 35.9734H1.99579V35.7412H1.76256V35.9734ZM2.11452 35.9734H2.34775V35.7412H2.11452V35.9734ZM2.46647 35.9734H2.69971V35.7412H2.46647V35.9734ZM2.81843 35.9734H3.05166V35.7412H2.81843V35.9734ZM3.17038 35.9734H3.40361V35.7412H3.17038V35.9734ZM3.52234 35.9734H3.75557V35.7412H3.52234V35.9734ZM3.75557 35.3903V35.6225H3.52234V35.3903H3.75557ZM3.40361 35.3903V35.6225H3.17038V35.3903H3.40361ZM3.05166 35.3903V35.6225H2.81843V35.3903H3.05166ZM2.69971 35.3903V35.6225H2.46647V35.3903H2.69971ZM2.34775 35.3903V35.6225H2.11452V35.3903H2.34775ZM1.99579 35.3903V35.6225H1.76256V35.3903H1.99579ZM1.64384 35.3903V35.6225H1.41061V35.3903H1.64384ZM1.41061 35.2716H1.64384V35.0393H1.41061V35.2716ZM1.76256 35.2716H1.99579V35.0393H1.76256V35.2716ZM2.11452 35.2716H2.34775V35.0393H2.11452V35.2716ZM2.46647 35.2716H2.69971V35.0393H2.46647V35.2716ZM2.81843 35.2716H3.05166V35.0393H2.81843V35.2716ZM3.17038 35.2716H3.40361V35.0393H3.17038V35.2716ZM3.52234 35.2716H3.75557V35.0393H3.52234V35.2716ZM3.75557 34.6884V34.9206H3.52234V34.6884H3.75557ZM3.40361 34.6884V34.9206H3.17038V34.6884H3.40361ZM3.05166 34.6884V34.9206H2.81843V34.6884H3.05166ZM2.69971 34.6884V34.9206H2.46647V34.6884H2.69971ZM2.34775 34.6884V34.9206H2.11452V34.6884H2.34775ZM1.99579 34.6884V34.9206H1.76256V34.6884H1.99579ZM1.64384 34.6884V34.9206H1.41061V34.6884H1.64384ZM1.41061 34.5697H1.64384V34.3375H1.41061V34.5697ZM1.76256 34.5697H1.99579V34.3375H1.76256V34.5697ZM2.11452 34.5697H2.34775V34.3375H2.11452V34.5697ZM2.46647 34.5697H2.69971V34.3375H2.46647V34.5697ZM2.81843 34.5697H3.05166V34.3375H2.81843V34.5697ZM3.17038 34.5697H3.40361V34.3375H3.17038V34.5697ZM3.52234 34.5697H3.75557V34.3375H3.52234V34.5697ZM3.75557 33.9866V34.2188H3.52234V33.9866H3.75557ZM3.40361 33.9866V34.2188H3.17038V33.9866H3.40361ZM3.05166 33.9866V34.2188H2.81843V33.9866H3.05166ZM2.69971 33.9866V34.2188H2.46647V33.9866H2.69971ZM2.34775 33.9866V34.2188H2.11452V33.9866H2.34775ZM1.99579 33.9866V34.2188H1.76256V33.9866H1.99579ZM1.64384 33.9866V34.2188H1.41061V33.9866H1.64384ZM1.41061 33.8679H1.64384V33.6357H1.41061V33.8679ZM1.76256 33.8679H1.99579V33.6357H1.76256V33.8679ZM2.11452 33.8679H2.34775V33.6357H2.11452V33.8679ZM2.46647 33.8679H2.69971V33.6357H2.46647V33.8679ZM2.81843 33.8679H3.05166V33.6357H2.81843V33.8679ZM3.17038 33.8679H3.40361V33.6357H3.17038V33.8679ZM3.52234 33.8679H3.75557V33.6357H3.52234V33.8679ZM3.75557 33.2847V33.517H3.52234V33.2847H3.75557ZM3.40361 33.2847V33.517H3.17038V33.2847H3.40361ZM3.05166 33.2847V33.517H2.81843V33.2847H3.05166ZM2.69971 33.2847V33.517H2.46647V33.2847H2.69971ZM2.34775 33.2847V33.517H2.11452V33.2847H2.34775ZM1.99579 33.2847V33.517H1.76256V33.2847H1.99579ZM1.64384 33.2847V33.517H1.41061V33.2847H1.64384ZM1.41061 33.166H1.64384V32.9339H1.41061V33.166ZM1.76256 33.166H1.99579V32.9339H1.76256V33.166ZM2.11452 33.166H2.34775V32.9339H2.11452V33.166ZM2.46647 33.166H2.69971V32.9339H2.46647V33.166ZM2.81843 33.166H3.05166V32.9339H2.81843V33.166ZM3.17038 33.166H3.40361V32.9339H3.17038V33.166ZM3.52234 33.166H3.75557V32.9339H3.52234V33.166ZM3.75557 32.583V32.8152H3.52234V32.583H3.75557ZM3.40361 32.583V32.8152H3.17038V32.583H3.40361ZM3.05166 32.583V32.8152H2.81843V32.583H3.05166ZM2.69971 32.583V32.8152H2.46647V32.583H2.69971ZM2.34775 32.583V32.8152H2.11452V32.583H2.34775ZM1.99579 32.583V32.8152H1.76256V32.583H1.99579ZM1.64384 32.583V32.8152H1.41061V32.583H1.64384ZM1.41061 32.4643H1.64384V32.232H1.41061V32.4643ZM1.76256 32.4643H1.99579V32.232H1.76256V32.4643ZM2.11452 32.4643H2.34775V32.232H2.11452V32.4643ZM2.46647 32.4643H2.69971V32.232H2.46647V32.4643ZM2.81843 32.4643H3.05166V32.232H2.81843V32.4643ZM3.17038 32.4643H3.40361V32.232H3.17038V32.4643ZM3.52234 32.4643H3.75557V32.232H3.52234V32.4643ZM3.75557 31.8811V32.1133H3.52234V31.8811H3.75557ZM3.40361 31.8811V32.1133H3.17038V31.8811H3.40361ZM3.05166 31.8811V32.1133H2.81843V31.8811H3.05166ZM2.69971 31.8811V32.1133H2.46647V31.8811H2.69971ZM2.34775 31.8811V32.1133H2.11452V31.8811H2.34775ZM1.99579 31.8811V32.1133H1.76256V31.8811H1.99579ZM1.64384 31.8811V32.1133H1.41061V31.8811H1.64384ZM1.41061 31.7624H1.64384V31.5303H1.41061V31.7624ZM1.76256 31.7624H1.99579V31.5303H1.76256V31.7624ZM2.11452 31.7624H2.34775V31.5303H2.11452V31.7624ZM2.46647 31.7624H2.69971V31.5303H2.46647V31.7624ZM2.81843 31.7624H3.05166V31.5303H2.81843V31.7624ZM3.17038 31.7624H3.40361V31.5303H3.17038V31.7624ZM3.52234 31.7624H3.75557V31.5303H3.52234V31.7624ZM3.75557 31.1793V31.4116H3.52234V31.1793H3.75557ZM3.40361 31.1793V31.4116H3.17038V31.1793H3.40361ZM3.05166 31.1793V31.4116H2.81843V31.1793H3.05166ZM2.69971 31.1793V31.4116H2.46647V31.1793H2.69971ZM2.34775 31.1793V31.4116H2.11452V31.1793H2.34775ZM1.99579 31.1793V31.4116H1.76256V31.1793H1.99579ZM1.64384 31.1793V31.4116H1.41061V31.1793H1.64384ZM1.41061 31.0605H1.64384V30.8284H1.41061V31.0605ZM1.76256 31.0605H1.99579V30.8284H1.76256V31.0605ZM2.11452 31.0605H2.34775V30.8284H2.11452V31.0605ZM2.46647 31.0605H2.69971V30.8284H2.46647V31.0605ZM2.81843 31.0605H3.05166V30.8284H2.81843V31.0605ZM3.17038 31.0605H3.40361V30.8284H3.17038V31.0605ZM3.52234 31.0605H3.75557V30.8284H3.52234V31.0605ZM3.75557 30.4775V30.7097H3.52234V30.4775H3.75557ZM3.40361 30.4775V30.7097H3.17038V30.4775H3.40361ZM3.05166 30.4775V30.7097H2.81843V30.4775H3.05166ZM2.69971 30.4775V30.7097H2.46647V30.4775H2.69971ZM2.34775 30.4775V30.7097H2.11452V30.4775H2.34775ZM1.99579 30.4775V30.7097H1.76256V30.4775H1.99579ZM1.64384 30.4775V30.7097H1.41061V30.4775H1.64384ZM1.41061 30.3588H1.64384V30.1266H1.41061V30.3588ZM1.76256 30.3588H1.99579V30.1266H1.76256V30.3588ZM2.11452 30.3588H2.34775V30.1266H2.11452V30.3588ZM2.46647 30.3588H2.69971V30.1266H2.46647V30.3588ZM2.81843 30.3588H3.05166V30.1266H2.81843V30.3588ZM3.17038 30.3588H3.40361V30.1266H3.17038V30.3588ZM3.52234 30.3588H3.75557V30.1266H3.52234V30.3588ZM3.75557 29.7756V30.0079H3.52234V29.7756H3.75557ZM3.40361 29.7756V30.0079H3.17038V29.7756H3.40361ZM3.05166 29.7756V30.0079H2.81843V29.7756H3.05166ZM2.69971 29.7756V30.0079H2.46647V29.7756H2.69971ZM2.34775 29.7756V30.0079H2.11452V29.7756H2.34775ZM1.99579 29.7756V30.0079H1.76256V29.7756H1.99579ZM1.64384 29.7756V30.0079H1.41061V29.7756H1.64384Z" fill="#939EA8"></path>
    <path opacity="0.3" fill-rule="evenodd" clip-rule="evenodd" d="M121.31 29.4248V29.6569H121.077V29.4248H120.958V29.6569H120.725V29.4248H120.606V29.6569H120.373V29.4248H120.254V29.6569H120.021V29.4248H119.902V29.6569H119.669V29.4248H119.55V29.6569H119.317V29.4248H119.198V29.6569H118.965V29.4248H118.846V29.6569H118.494V29.7756H118.846V30.0079H118.494V30.1266H118.846V30.3588H118.494V30.4775H118.846V30.7097H118.494V30.8284H118.846V31.0605H118.494V31.1793H118.846V31.4116H118.494V31.5303H118.846V31.7624H118.494V31.8811H118.846V32.1133H118.494V32.232H118.846V32.4643H118.494V32.583H118.846V32.8152H118.494V32.9339H118.846V33.166H118.494V33.2847H118.846V33.517H118.494V33.6357H118.846V33.8679H118.494V33.9866H118.846V34.2188H118.494V34.3375H118.846V34.5697H118.494V34.6884H118.846V34.9206H118.494V35.0393H118.846V35.2716H118.494V35.3903H118.846V35.6225H118.494V35.7412H118.846V35.9734H118.494V36.0921H118.846V36.3242H118.494V36.4429H118.846V36.6752H118.494V36.7939H118.846V37.026H118.494V37.1447H118.846V37.3769H118.494V37.4957H118.846V37.7279H118.494V37.8466H118.846V38.0788H118.494V38.1975H118.846V38.4297H118.494V38.5484H118.846V38.7806H118.494V38.8993H118.846V39.1315H118.494V39.2502H118.846V39.4825H118.494V39.6012H118.846V39.8334H118.494V39.9521H118.846V40.1843H118.494V40.303H118.846V40.535H118.494V40.6538H118.846V40.886H118.494V41.0048H118.846V41.237H118.494V41.3557H118.846V41.5878H118.494V41.7065H118.846V41.9406H118.965V41.7065H119.198V41.9406H119.317V41.7065H119.55V41.9406H119.669V41.7065H119.902V41.9406H120.021V41.7065H120.254V41.9406H120.373V41.7065H120.606V41.9406H120.725V41.7065H120.958V41.9406H121.077V41.7065H121.31V41.9406H121.429V41.7065H121.662V41.5878H121.429V41.3557H121.662V41.237H121.429V41.0048H121.662V40.886H121.429V40.6538H121.662V40.535H121.429V40.303H121.662V40.1843H121.429V39.9521H121.662V39.8334H121.429V39.6012H121.662V39.4825H121.429V39.2502H121.662V39.1315H121.429V38.8993H121.662V38.7806H121.429V38.5484H121.662V38.4297H121.429V38.1975H121.662V38.0788H121.429V37.8466H121.662V37.7279H121.429V37.4957H121.662V37.3769H121.429V37.1447H121.662V37.026H121.429L121.429 36.7939H121.662V36.6752H121.429V36.4429H121.662V36.3242H121.429V36.0921H121.662V35.9734H121.429V35.7412H121.662V35.6225H121.429V35.3903H121.662V35.2716H121.429V35.0393H121.662V34.9206H121.429V34.6884H121.662V34.5697H121.429V34.3375H121.662V34.2188H121.429V33.9866H121.662V33.8679H121.429V33.6357H121.662V33.517H121.429V33.2847H121.662V33.166H121.429V32.9339H121.662V32.8152H121.429V32.583H121.662V32.4643H121.429V32.232H121.662V32.1133H121.429V31.8811H121.662V31.7624H121.429V31.5303H121.662V31.4116H121.429V31.1793H121.662V31.0605H121.429L121.429 30.8284H121.662V30.7097H121.429V30.4775H121.662V30.3588H121.429V30.1266H121.662V30.0079H121.429V29.7756H121.662V29.6569H121.429V29.4248H121.31ZM121.31 41.5878H121.077V41.3557H121.31V41.5878ZM120.958 41.5878H120.725V41.3557H120.958V41.5878ZM120.606 41.5878H120.373V41.3557H120.606V41.5878ZM120.254 41.5878H120.021V41.3557H120.254V41.5878ZM119.902 41.5878H119.669V41.3557H119.902V41.5878ZM119.55 41.5878H119.317V41.3557H119.55V41.5878ZM119.198 41.5878H118.965V41.3557H119.198V41.5878ZM118.965 41.0048V41.237H119.198V41.0048H118.965ZM119.317 41.0048V41.237H119.55V41.0048H119.317ZM119.669 41.0048V41.237H119.902V41.0048H119.669ZM120.021 41.0048V41.237H120.254V41.0048H120.021ZM120.373 41.0048V41.237H120.606V41.0048H120.373ZM120.725 41.0048V41.237H120.958V41.0048H120.725ZM121.077 41.0048V41.237H121.31V41.0048H121.077ZM121.31 40.886H121.077V40.6538H121.31V40.886ZM120.958 40.886H120.725V40.6538H120.958V40.886ZM120.606 40.886H120.373V40.6538H120.606V40.886ZM120.254 40.886H120.021V40.6538H120.254V40.886ZM119.902 40.886H119.669V40.6538H119.902V40.886ZM119.55 40.886H119.317V40.6538H119.55V40.886ZM119.198 40.886H118.965V40.6538H119.198V40.886ZM118.965 40.303V40.535H119.198V40.303H118.965ZM119.317 40.303V40.535H119.55V40.303H119.317ZM119.669 40.303V40.535H119.902V40.303H119.669ZM120.021 40.303V40.535H120.254V40.303H120.021ZM120.373 40.303V40.535H120.606V40.303H120.373ZM120.725 40.303V40.535H120.958V40.303H120.725ZM121.077 40.303V40.535H121.31V40.303H121.077ZM121.31 40.1843H121.077V39.9521H121.31V40.1843ZM120.958 40.1843H120.725V39.9521H120.958V40.1843ZM120.606 40.1843H120.373V39.9521H120.606V40.1843ZM120.254 40.1843H120.021V39.9521H120.254V40.1843ZM119.902 40.1843H119.669V39.9521H119.902V40.1843ZM119.55 40.1843H119.317V39.9521H119.55V40.1843ZM119.198 40.1843H118.965V39.9521H119.198V40.1843ZM118.965 39.6012V39.8334H119.198V39.6012H118.965ZM119.317 39.6012V39.8334H119.55V39.6012H119.317ZM119.669 39.6012V39.8334H119.902V39.6012H119.669ZM120.021 39.6012V39.8334H120.254V39.6012H120.021ZM120.373 39.6012V39.8334H120.606V39.6012H120.373ZM120.725 39.6012V39.8334H120.958V39.6012H120.725ZM121.077 39.6012V39.8334H121.31V39.6012H121.077ZM121.31 39.4825H121.077V39.2502H121.31V39.4825ZM120.958 39.4825H120.725V39.2502H120.958V39.4825ZM120.606 39.4825H120.373V39.2502H120.606V39.4825ZM120.254 39.4825H120.021V39.2502H120.254V39.4825ZM119.902 39.4825H119.669V39.2502H119.902V39.4825ZM119.55 39.4825H119.317V39.2502H119.55V39.4825ZM119.198 39.4825H118.965V39.2502H119.198V39.4825ZM118.965 38.8993V39.1315H119.198V38.8993H118.965ZM119.317 38.8993V39.1315H119.55V38.8993H119.317ZM119.669 38.8993V39.1315H119.902V38.8993H119.669ZM120.021 38.8993V39.1315H120.254V38.8993H120.021ZM120.373 38.8993V39.1315H120.606V38.8993H120.373ZM120.725 38.8993V39.1315H120.958V38.8993H120.725ZM121.077 38.8993V39.1315H121.31V38.8993H121.077ZM121.31 38.7806H121.077V38.5484H121.31V38.7806ZM120.958 38.7806H120.725V38.5484H120.958V38.7806ZM120.606 38.7806H120.373V38.5484H120.606V38.7806ZM120.254 38.7806H120.021V38.5484H120.254V38.7806ZM119.902 38.7806H119.669V38.5484H119.902V38.7806ZM119.55 38.7806H119.317V38.5484H119.55V38.7806ZM119.198 38.7806H118.965V38.5484H119.198V38.7806ZM118.965 38.1975V38.4297H119.198V38.1975H118.965ZM119.317 38.1975V38.4297H119.55V38.1975H119.317ZM119.669 38.1975V38.4297H119.902V38.1975H119.669ZM120.021 38.1975V38.4297H120.254V38.1975H120.021ZM120.373 38.1975V38.4297H120.606V38.1975H120.373ZM120.725 38.1975V38.4297H120.958V38.1975H120.725ZM121.077 38.1975V38.4297H121.31V38.1975H121.077ZM121.31 38.0788H121.077V37.8466H121.31V38.0788ZM120.958 38.0788H120.725V37.8466H120.958V38.0788ZM120.606 38.0788H120.373V37.8466H120.606V38.0788ZM120.254 38.0788H120.021V37.8466H120.254V38.0788ZM119.902 38.0788H119.669V37.8466H119.902V38.0788ZM119.55 38.0788H119.317V37.8466H119.55V38.0788ZM119.198 38.0788H118.965V37.8466H119.198V38.0788ZM118.965 37.4957V37.7279H119.198V37.4957H118.965ZM119.317 37.4957V37.7279H119.55V37.4957H119.317ZM119.669 37.4957V37.7279H119.902V37.4957H119.669ZM120.021 37.4957V37.7279H120.254V37.4957H120.021ZM120.373 37.4957V37.7279H120.606V37.4957H120.373ZM120.725 37.4957V37.7279H120.958V37.4957H120.725ZM121.077 37.4957V37.7279H121.31V37.4957H121.077ZM121.31 37.3769H121.077V37.1447H121.31V37.3769ZM120.958 37.3769H120.725V37.1447H120.958V37.3769ZM120.606 37.3769H120.373V37.1447H120.606V37.3769ZM120.254 37.3769H120.021V37.1447H120.254V37.3769ZM119.902 37.3769H119.669V37.1447H119.902V37.3769ZM119.55 37.3769H119.317V37.1447H119.55V37.3769ZM119.198 37.3769H118.965V37.1447H119.198V37.3769ZM118.965 36.7939V37.026H119.198V36.7939H118.965ZM119.317 36.7939V37.026H119.55V36.7939H119.317ZM119.669 36.7939V37.026H119.902V36.7939H119.669ZM120.021 36.7939V37.026H120.254V36.7939H120.021ZM120.373 36.7939V37.026H120.606V36.7939H120.373ZM120.725 36.7939V37.026H120.958V36.7939H120.725ZM121.077 36.7939V37.026H121.31V36.7939H121.077ZM121.31 36.6752H121.077V36.4429H121.31V36.6752ZM120.958 36.6752H120.725V36.4429H120.958V36.6752ZM120.606 36.6752H120.373V36.4429H120.606V36.6752ZM120.254 36.6752H120.021V36.4429H120.254V36.6752ZM119.902 36.6752H119.669V36.4429H119.902V36.6752ZM119.55 36.6752H119.317V36.4429H119.55V36.6752ZM119.198 36.6752H118.965V36.4429H119.198V36.6752ZM118.965 36.0921V36.3242H119.198V36.0921H118.965ZM119.317 36.0921V36.3242H119.55V36.0921H119.317ZM119.669 36.0921V36.3242H119.902V36.0921H119.669ZM120.021 36.0921V36.3242H120.254V36.0921H120.021ZM120.373 36.0921V36.3242H120.606V36.0921H120.373ZM120.725 36.0921V36.3242H120.958V36.0921H120.725ZM121.077 36.0921V36.3242H121.31V36.0921H121.077ZM121.31 35.9734H121.077V35.7412H121.31V35.9734ZM120.958 35.9734H120.725V35.7412H120.958V35.9734ZM120.606 35.9734H120.373V35.7412H120.606V35.9734ZM120.254 35.9734H120.021V35.7412H120.254V35.9734ZM119.902 35.9734H119.669V35.7412H119.902V35.9734ZM119.55 35.9734H119.317V35.7412H119.55V35.9734ZM119.198 35.9734H118.965V35.7412H119.198V35.9734ZM118.965 35.3903V35.6225H119.198V35.3903H118.965ZM119.317 35.3903V35.6225H119.55V35.3903H119.317ZM119.669 35.3903V35.6225H119.902V35.3903H119.669ZM120.021 35.3903V35.6225H120.254V35.3903H120.021ZM120.373 35.3903V35.6225H120.606V35.3903H120.373ZM120.725 35.3903V35.6225H120.958V35.3903H120.725ZM121.077 35.3903V35.6225H121.31V35.3903H121.077ZM121.31 35.2716H121.077V35.0393H121.31V35.2716ZM120.958 35.2716H120.725V35.0393H120.958V35.2716ZM120.606 35.2716H120.373V35.0393H120.606V35.2716ZM120.254 35.2716H120.021V35.0393H120.254V35.2716ZM119.902 35.2716H119.669V35.0393H119.902V35.2716ZM119.55 35.2716H119.317V35.0393H119.55V35.2716ZM119.198 35.2716H118.965V35.0393H119.198V35.2716ZM118.965 34.6884V34.9206H119.198V34.6884H118.965ZM119.317 34.6884V34.9206H119.55V34.6884H119.317ZM119.669 34.6884V34.9206H119.902V34.6884H119.669ZM120.021 34.6884V34.9206H120.254V34.6884H120.021ZM120.373 34.6884V34.9206H120.606V34.6884H120.373ZM120.725 34.6884V34.9206H120.958V34.6884H120.725ZM121.077 34.6884V34.9206H121.31V34.6884H121.077ZM121.31 34.5697H121.077V34.3375H121.31V34.5697ZM120.958 34.5697H120.725V34.3375H120.958V34.5697ZM120.606 34.5697H120.373V34.3375H120.606V34.5697ZM120.254 34.5697H120.021V34.3375H120.254V34.5697ZM119.902 34.5697H119.669V34.3375H119.902V34.5697ZM119.55 34.5697H119.317V34.3375H119.55V34.5697ZM119.198 34.5697H118.965V34.3375H119.198V34.5697ZM118.965 33.9866V34.2188H119.198V33.9866H118.965ZM119.317 33.9866V34.2188H119.55V33.9866H119.317ZM119.669 33.9866V34.2188H119.902V33.9866H119.669ZM120.021 33.9866V34.2188H120.254V33.9866H120.021ZM120.373 33.9866V34.2188H120.606V33.9866H120.373ZM120.725 33.9866V34.2188H120.958V33.9866H120.725ZM121.077 33.9866V34.2188H121.31V33.9866H121.077ZM121.31 33.8679H121.077V33.6357H121.31V33.8679ZM120.958 33.8679H120.725V33.6357H120.958V33.8679ZM120.606 33.8679H120.373V33.6357H120.606V33.8679ZM120.254 33.8679H120.021V33.6357H120.254V33.8679ZM119.902 33.8679H119.669V33.6357H119.902V33.8679ZM119.55 33.8679H119.317V33.6357H119.55V33.8679ZM119.198 33.8679H118.965V33.6357H119.198V33.8679ZM118.965 33.2847V33.517H119.198V33.2847H118.965ZM119.317 33.2847V33.517H119.55V33.2847H119.317ZM119.669 33.2847V33.517H119.902V33.2847H119.669ZM120.021 33.2847V33.517H120.254V33.2847H120.021ZM120.373 33.2847V33.517H120.606V33.2847H120.373ZM120.725 33.2847V33.517H120.958V33.2847H120.725ZM121.077 33.2847V33.517H121.31V33.2847H121.077ZM121.31 33.166H121.077V32.9339H121.31V33.166ZM120.958 33.166H120.725V32.9339H120.958V33.166ZM120.606 33.166H120.373V32.9339H120.606V33.166ZM120.254 33.166H120.021V32.9339H120.254V33.166ZM119.902 33.166H119.669V32.9339H119.902V33.166ZM119.55 33.166H119.317V32.9339H119.55V33.166ZM119.198 33.166H118.965V32.9339H119.198V33.166ZM118.965 32.583V32.8152H119.198V32.583H118.965ZM119.317 32.583V32.8152H119.55V32.583H119.317ZM119.669 32.583V32.8152H119.902V32.583H119.669ZM120.021 32.583V32.8152H120.254V32.583H120.021ZM120.373 32.583V32.8152H120.606V32.583H120.373ZM120.725 32.583V32.8152H120.958V32.583H120.725ZM121.077 32.583V32.8152H121.31V32.583H121.077ZM121.31 32.4643H121.077V32.232H121.31V32.4643ZM120.958 32.4643H120.725V32.232H120.958V32.4643ZM120.606 32.4643H120.373V32.232H120.606V32.4643ZM120.254 32.4643H120.021V32.232H120.254V32.4643ZM119.902 32.4643H119.669V32.232H119.902V32.4643ZM119.55 32.4643H119.317V32.232H119.55V32.4643ZM119.198 32.4643H118.965V32.232H119.198V32.4643ZM118.965 31.8811V32.1133H119.198V31.8811H118.965ZM119.317 31.8811V32.1133H119.55V31.8811H119.317ZM119.669 31.8811V32.1133H119.902V31.8811H119.669ZM120.021 31.8811V32.1133H120.254V31.8811H120.021ZM120.373 31.8811V32.1133H120.606V31.8811H120.373ZM120.725 31.8811V32.1133H120.958V31.8811H120.725ZM121.077 31.8811V32.1133H121.31V31.8811H121.077ZM121.31 31.7624H121.077V31.5303H121.31V31.7624ZM120.958 31.7624H120.725V31.5303H120.958V31.7624ZM120.606 31.7624H120.373V31.5303H120.606V31.7624ZM120.254 31.7624H120.021V31.5303H120.254V31.7624ZM119.902 31.7624H119.669V31.5303H119.902V31.7624ZM119.55 31.7624H119.317V31.5303H119.55V31.7624ZM119.198 31.7624H118.965V31.5303H119.198V31.7624ZM118.965 31.1793V31.4116H119.198V31.1793H118.965ZM119.317 31.1793V31.4116H119.55V31.1793H119.317ZM119.669 31.1793V31.4116H119.902V31.1793H119.669ZM120.021 31.1793V31.4116H120.254V31.1793H120.021ZM120.373 31.1793V31.4116H120.606V31.1793H120.373ZM120.725 31.1793V31.4116H120.958V31.1793H120.725ZM121.077 31.1793V31.4116H121.31V31.1793H121.077ZM121.31 31.0605H121.077V30.8284H121.31V31.0605ZM120.958 31.0605H120.725V30.8284H120.958V31.0605ZM120.606 31.0605H120.373V30.8284H120.606V31.0605ZM120.254 31.0605H120.021V30.8284H120.254V31.0605ZM119.902 31.0605H119.669V30.8284H119.902V31.0605ZM119.55 31.0605H119.317V30.8284H119.55V31.0605ZM119.198 31.0605H118.965V30.8284H119.198V31.0605ZM118.965 30.4775V30.7097H119.198V30.4775H118.965ZM119.317 30.4775V30.7097H119.55V30.4775H119.317ZM119.669 30.4775V30.7097H119.902V30.4775H119.669ZM120.021 30.4775V30.7097H120.254V30.4775H120.021ZM120.373 30.4775V30.7097H120.606V30.4775H120.373ZM120.725 30.4775V30.7097H120.958V30.4775H120.725ZM121.077 30.4775V30.7097H121.31V30.4775H121.077ZM121.31 30.3588H121.077V30.1266H121.31V30.3588ZM120.958 30.3588H120.725V30.1266H120.958V30.3588ZM120.606 30.3588H120.373V30.1266H120.606V30.3588ZM120.254 30.3588H120.021V30.1266H120.254V30.3588ZM119.902 30.3588H119.669V30.1266H119.902V30.3588ZM119.55 30.3588H119.317V30.1266H119.55V30.3588ZM119.198 30.3588H118.965V30.1266H119.198V30.3588ZM118.965 29.7756V30.0079H119.198V29.7756H118.965ZM119.317 29.7756V30.0079H119.55V29.7756H119.317ZM119.669 29.7756V30.0079H119.902V29.7756H119.669ZM120.021 29.7756V30.0079H120.254V29.7756H120.021ZM120.373 29.7756V30.0079H120.606V29.7756H120.373ZM120.725 29.7756V30.0079H120.958V29.7756H120.725ZM121.077 29.7756V30.0079H121.31V29.7756H121.077Z" fill="#939EA8"></path>
  </symbol>
  <symbol fill="none" xmlns="http://www.w3.org/2000/svg" viewBox="0 0 8 8" id="close">
    <path d="M7.75 1.32138L6.67863 0.25L4 2.92863L1.32138 0.25L0.25 1.32138L2.92863 4L0.25 6.67863L1.32138 7.75L4 5.07137L6.67863 7.75L7.75 6.67863L5.07137 4L7.75 1.32138Z" fill="white"></path>
  </symbol>
  <symbol fill="none" xmlns="http://www.w3.org/2000/svg" viewBox="0 0 8 8" id="pencil">
    <path d="M4.66559 1.59836L6.4001 3.33329C6.47317 3.40638 6.47317 3.52563 6.4001 3.59872L2.20036 7.79947L0.415852 7.99758C0.177405 8.02451 -0.0245053 7.82255 0.00241609 7.58405L0.200481 5.79911L4.40022 1.59836C4.47329 1.52527 4.59252 1.52527 4.66559 1.59836ZM7.78078 1.1579L6.84238 0.21927C6.55009 -0.07309 6.07512 -0.07309 5.78091 0.21927L5.10018 0.900161C5.02711 0.973251 5.02711 1.0925 5.10018 1.16559L6.83469 2.90052C6.90776 2.97361 7.02698 2.97361 7.10006 2.90052L7.78078 2.21963C8.07307 1.92534 8.07307 1.45026 7.78078 1.1579Z" fill="white"></path>
  </symbol>
  <symbol fill="none" xmlns="http://www.w3.org/2000/svg" viewBox="0 0 89 71" id="field-4">
    <rect x="0.5" y="0.5" width="88" height="70" fill="white"></rect>
  </symbol>
  <symbol fill="none" xmlns="http://www.w3.org/2000/svg" viewBox="0 0 89 76" id="field-3">
    <g opacity="0.7" clip-path="url(#clip0_20_11811)">
      <path d="M52.4034 70.9795L52.4034 74.6665C52.4034 74.8507 52.2541 75.0001 52.0699 75.0001L36.994 75.0001C36.8098 75.0001 36.6605 74.8507 36.6605 74.6665L36.6605 70.9795" stroke-width="1.2462"></path>
      <path d="M1.48324 70.8789C1.48324 70.0572 0.819131 69.3911 -9.15527e-05 69.3911" stroke-width="1.2462"></path>
      <path d="M87.5166 70.8789C87.5166 70.0572 88.1807 69.3911 88.9999 69.3911" stroke-width="1.2462"></path>
      <path d="M44.5001 12.5314C37.4729 12.5314 31.7732 6.81731 31.7732 -0.235258C31.7732 -7.28783 37.4729 -13.0019 44.5001 -13.0019C51.5272 -13.0019 57.227 -7.28783 57.227 -0.235257C57.227 6.81731 51.5272 12.5314 44.5001 12.5314Z" stroke-width="1.2462"></path>
      <rect x="-0.623102" y="-0.623102" width="7.68029" height="25.4538" transform="matrix(4.37114e-08 -1 -1 -4.37114e-08 56.6039 69.7821)" stroke-width="1.2462"></rect>
      <rect x="-0.623102" y="-0.623102" width="21.9627" height="50.9671" transform="matrix(4.37114e-08 -1 -1 -4.37114e-08 69.3601 69.7821)" stroke-width="1.2462"></rect>
      <mask id="path-7-inside-1_20_11811" fill="white">
        <rect x="89" width="71" height="89" rx="0.66715" transform="rotate(90 89 0)"></rect>
      </mask>
      <rect x="89" width="71" height="89" rx="0.66715" transform="rotate(90 89 0)" stroke-width="2.49241" mask="url(#path-7-inside-1_20_11811)"></rect>
      <line x1="88.9999" y1="0.388239" x2="-4.58308e-05" y2="0.388231" stroke-width="1.2462"></line>
      <path d="M55.3441 47.8936C52.9206 44.5147 48.9663 42.3145 44.4995 42.3145C40.0328 42.3145 36.0784 44.5147 33.655 47.8936" stroke-width="1.2462"></path>
      <ellipse cx="44.5003" cy="56.7455" rx="0.5951" ry="0.593333" transform="rotate(90 44.5003 56.7455)" fill="#939EA8"></ellipse>
      <path d="M44.5003 0.43434C44.1726 0.43434 43.9069 0.167905 43.9069 -0.16076C43.9069 -0.489424 44.1726 -0.755859 44.5003 -0.755859C44.828 -0.755859 45.0936 -0.489424 45.0936 -0.16076C45.0936 0.167905 44.828 0.43434 44.5003 0.43434Z" fill="#939EA8"></path>
      <path opacity="0.3" fill-rule="evenodd" clip-rule="evenodd" d="M52.3308 74.4883L52.0416 74.4883L52.0416 74.1977L52.3308 74.1977L52.3308 74.0497L52.0416 74.0497L52.0416 73.7591L52.3308 73.7591L52.3308 73.6111L52.0416 73.6111L52.0416 73.3205L52.3308 73.3205L52.3308 73.1725L52.0416 73.1725L52.0416 72.8819L52.3308 72.8819L52.3308 72.7339L52.0416 72.7339L52.0416 72.4433L52.3308 72.4433L52.3308 72.2953L52.0416 72.2953L52.0416 72.0047L52.3308 72.0047L52.3308 71.8567L52.0416 71.8567L52.0416 71.566L52.3308 71.566L52.3308 71.4181L52.0416 71.4181L52.0416 70.9795L51.8936 70.9795L51.8936 71.4181L51.6042 71.4181L51.6042 70.9795L51.4562 70.9795L51.4562 71.4181L51.1669 71.4181L51.1669 70.9795L51.0189 70.9795L51.0189 71.4181L50.7296 71.4181L50.7296 70.9795L50.5817 70.9795L50.5817 71.4181L50.2924 71.4181L50.2924 70.9795L50.1444 70.9795L50.1444 71.4181L49.8549 71.4181L49.8549 70.9795L49.7069 70.9795L49.7069 71.4181L49.4177 71.4181L49.4177 70.9795L49.2697 70.9795L49.2697 71.4181L48.9804 71.4181L48.9804 70.9795L48.8325 70.9795L48.8325 71.4181L48.543 71.4181L48.543 70.9795L48.3951 70.9795L48.3951 71.4181L48.1057 71.4181L48.1057 70.9795L47.9578 70.9795L47.9578 71.4181L47.6685 71.4181L47.6685 70.9795L47.5206 70.9795L47.5206 71.4181L47.2311 71.4181L47.2311 70.9795L47.0832 70.9795L47.0832 71.4181L46.7938 71.4181L46.7938 70.9795L46.6458 70.9795L46.6458 71.4181L46.3566 71.4181L46.3566 70.9795L46.2086 70.9795L46.2086 71.4181L45.9192 71.4181L45.9192 70.9795L45.7713 70.9795L45.7713 71.4181L45.4819 71.4181L45.4819 70.9795L45.3339 70.9795L45.3339 71.4181L45.0446 71.4181L45.0446 70.9795L44.8966 70.9795L44.8966 71.4181L44.6072 71.4181L44.6072 70.9795L44.4593 70.9795L44.4593 71.4181L44.1699 71.4181L44.1699 70.9795L44.022 70.9795L44.022 71.4181L43.7327 71.4181L43.7327 70.9795L43.5848 70.9795L43.5848 71.4181L43.2953 71.4181L43.2953 70.9795L43.1474 70.9795L43.1474 71.4181L42.8582 71.4181L42.8582 70.9795L42.7102 70.9795L42.7102 71.4181L42.4208 71.4181L42.4208 70.9795L42.2729 70.9795L42.2729 71.4181L41.9835 71.4181L41.9835 70.9795L41.8356 70.9795L41.8356 71.4181L41.5462 71.4181L41.5462 70.9795L41.3982 70.9795L41.3982 71.4181L41.1088 71.4181L41.1088 70.9795L40.9609 70.9795L40.9609 71.4181L40.6716 71.4181L40.6716 70.9795L40.5236 70.9795L40.5236 71.4181L40.2343 71.4181L40.2343 70.9795L40.0863 70.9795L40.0863 71.4181L39.7969 71.4181L39.7969 70.9795L39.6489 70.9795L39.6489 71.4181L39.3596 71.4181L39.3596 70.9795L39.2117 70.9795L39.2117 71.4181L38.9223 71.4181L38.9223 70.9795L38.7743 70.9795L38.7743 71.4181L38.4852 71.4181L38.4852 70.9795L38.3372 70.9795L38.3372 71.4181L38.0478 71.4181L38.0478 70.9795L37.8998 70.9795L37.8998 71.4181L37.6105 71.4181L37.6105 70.9795L37.4625 70.9795L37.4625 71.4181L37.1732 71.4181L37.1732 70.9795L37.0253 70.9795L37.0253 71.4181L36.7336 71.4181L36.7336 71.566L37.0253 71.566L37.0253 71.8567L36.7336 71.8567L36.7336 72.0047L37.0253 72.0047L37.0253 72.2953L36.7336 72.2953L36.7336 72.4433L37.0253 72.4433L37.0253 72.7339L36.7336 72.7339L36.7336 72.8819L37.0253 72.8819L37.0253 73.1725L36.7336 73.1725L36.7336 73.3205L37.0253 73.3205L37.0253 73.6111L36.7336 73.6111L36.7336 73.7591L37.0253 73.7591L37.0253 74.0497L36.7336 74.0497L36.7336 74.1977L37.0253 74.1977L37.0253 74.4883L36.7336 74.4883L36.7336 74.6363L37.0253 74.6363L37.0253 74.927L37.1732 74.927L37.1732 74.6363L37.4625 74.6363L37.4625 74.927L37.6105 74.927L37.6105 74.6363L37.8998 74.6363L37.8998 74.927L38.0478 74.927L38.0478 74.6363L38.3372 74.6363L38.3372 74.927L38.4852 74.927L38.4852 74.6363L38.7743 74.6363L38.7743 74.927L38.9223 74.927L38.9223 74.6363L39.2117 74.6363L39.2117 74.927L39.3596 74.927L39.3596 74.6363L39.6489 74.6363L39.6489 74.927L39.7969 74.927L39.7969 74.6363L40.0863 74.6363L40.0863 74.927L40.2343 74.927L40.2343 74.6363L40.5236 74.6363L40.5236 74.927L40.6716 74.927L40.6716 74.6363L40.9609 74.6363L40.9609 74.927L41.1088 74.927L41.1088 74.6363L41.3982 74.6363L41.3982 74.927L41.5462 74.927L41.5462 74.6363L41.8356 74.6363L41.8356 74.927L41.9835 74.927L41.9835 74.6363L42.2729 74.6363L42.2729 74.927L42.4208 74.927L42.4208 74.6363L42.7102 74.6363L42.7102 74.927L42.8582 74.927L42.8582 74.6363L43.1474 74.6363L43.1474 74.927L43.2953 74.927L43.2953 74.6363L43.5848 74.6363L43.5848 74.927L43.7327 74.927L43.7327 74.6363L44.022 74.6363L44.022 74.927L44.1699 74.927L44.1699 74.6363L44.4593 74.6363L44.4593 74.927L44.6072 74.927L44.6072 74.6363L44.8966 74.6363L44.8966 74.927L45.0446 74.927L45.0446 74.6363L45.3339 74.6363L45.3339 74.927L45.4819 74.927L45.4819 74.6363L45.7713 74.6363L45.7713 74.927L45.9192 74.927L45.9192 74.6363L46.2086 74.6363L46.2086 74.927L46.3566 74.927L46.3566 74.6363L46.6458 74.6363L46.6458 74.927L46.7938 74.927L46.7938 74.6363L47.0832 74.6363L47.0832 74.927L47.2311 74.927L47.2311 74.6363L47.5206 74.6363L47.5206 74.927L47.6685 74.927L47.6685 74.6363L47.9578 74.6363L47.9578 74.927L48.1057 74.927L48.1057 74.6363L48.3951 74.6363L48.3951 74.927L48.543 74.927L48.543 74.6363L48.8325 74.6363L48.8325 74.927L48.9804 74.927L48.9804 74.6363L49.2697 74.6363L49.2697 74.927L49.4177 74.927L49.4177 74.6363L49.7069 74.6363L49.7069 74.927L49.8549 74.927L49.8549 74.6363L50.1444 74.6363L50.1444 74.927L50.2924 74.927L50.2924 74.6363L50.5817 74.6363L50.5817 74.927L50.7296 74.927L50.7296 74.6363L51.0189 74.6363L51.0189 74.927L51.1669 74.927L51.1669 74.6363L51.4562 74.6363L51.4562 74.927L51.6042 74.927L51.6042 74.6363L51.8936 74.6363L51.8936 74.927L52.0416 74.927L52.0416 74.6363L52.3308 74.6363L52.3308 74.4883ZM37.1732 74.4883L37.1732 74.1977L37.4625 74.1977L37.4625 74.4883L37.1732 74.4883ZM37.1732 74.0497L37.1732 73.7591L37.4625 73.7591L37.4625 74.0497L37.1732 74.0497ZM37.1732 73.6111L37.1732 73.3205L37.4625 73.3205L37.4625 73.6111L37.1732 73.6111ZM37.1732 73.1725L37.1732 72.8819L37.4625 72.8819L37.4625 73.1725L37.1732 73.1725ZM37.1732 72.7339L37.1732 72.4433L37.4625 72.4433L37.4625 72.7339L37.1732 72.7339ZM37.1732 72.2953L37.1732 72.0047L37.4625 72.0047L37.4625 72.2953L37.1732 72.2953ZM37.1732 71.8567L37.1732 71.566L37.4625 71.566L37.4625 71.8567L37.1732 71.8567ZM37.8998 71.566L37.6105 71.566L37.6105 71.8567L37.8998 71.8567L37.8998 71.566ZM37.8998 72.0047L37.6105 72.0047L37.6105 72.2953L37.8998 72.2953L37.8998 72.0047ZM37.8998 72.4433L37.6105 72.4433L37.6105 72.7339L37.8998 72.7339L37.8998 72.4433ZM37.8998 72.8819L37.6105 72.8819L37.6105 73.1725L37.8998 73.1725L37.8998 72.8819ZM37.8998 73.3205L37.6105 73.3205L37.6105 73.6111L37.8998 73.6111L37.8998 73.3205ZM37.8998 73.7591L37.6105 73.7591L37.6105 74.0497L37.8998 74.0497L37.8998 73.7591ZM37.8998 74.1977L37.6105 74.1977L37.6105 74.4883L37.8998 74.4883L37.8998 74.1977ZM38.0478 74.4883L38.0478 74.1977L38.3372 74.1977L38.3372 74.4883L38.0478 74.4883ZM38.0478 74.0497L38.0478 73.7591L38.3372 73.7591L38.3372 74.0497L38.0478 74.0497ZM38.0478 73.6111L38.0478 73.3205L38.3372 73.3205L38.3372 73.6111L38.0478 73.6111ZM38.0478 73.1725L38.0478 72.8819L38.3372 72.8819L38.3372 73.1725L38.0478 73.1725ZM38.0478 72.7339L38.0478 72.4433L38.3372 72.4433L38.3372 72.7339L38.0478 72.7339ZM38.0478 72.2953L38.0478 72.0047L38.3372 72.0047L38.3372 72.2953L38.0478 72.2953ZM38.0478 71.8567L38.0478 71.566L38.3372 71.566L38.3372 71.8567L38.0478 71.8567ZM38.7743 71.566L38.4852 71.566L38.4852 71.8567L38.7743 71.8567L38.7743 71.566ZM38.7743 72.0047L38.4852 72.0047L38.4852 72.2953L38.7743 72.2953L38.7743 72.0047ZM38.7743 72.4433L38.4852 72.4433L38.4852 72.7339L38.7743 72.7339L38.7743 72.4433ZM38.7743 72.8819L38.4852 72.8819L38.4852 73.1725L38.7743 73.1725L38.7743 72.8819ZM38.7743 73.3205L38.4852 73.3205L38.4852 73.6111L38.7743 73.6111L38.7743 73.3205ZM38.7743 73.7591L38.4852 73.7591L38.4852 74.0497L38.7743 74.0497L38.7743 73.7591ZM38.7743 74.1977L38.4852 74.1977L38.4852 74.4883L38.7743 74.4883L38.7743 74.1977ZM38.9223 74.4883L38.9223 74.1977L39.2117 74.1977L39.2117 74.4883L38.9223 74.4883ZM38.9223 74.0497L38.9223 73.7591L39.2117 73.7591L39.2117 74.0497L38.9223 74.0497ZM38.9223 73.6111L38.9223 73.3205L39.2117 73.3205L39.2117 73.6111L38.9223 73.6111ZM38.9223 73.1725L38.9223 72.8819L39.2117 72.8819L39.2117 73.1725L38.9223 73.1725ZM38.9223 72.7339L38.9223 72.4433L39.2117 72.4433L39.2117 72.7339L38.9223 72.7339ZM38.9223 72.2953L38.9223 72.0047L39.2117 72.0047L39.2117 72.2953L38.9223 72.2953ZM38.9223 71.8567L38.9223 71.566L39.2117 71.566L39.2117 71.8567L38.9223 71.8567ZM39.6489 71.566L39.3596 71.566L39.3596 71.8567L39.6489 71.8567L39.6489 71.566ZM39.6489 72.0047L39.3596 72.0047L39.3596 72.2953L39.6489 72.2953L39.6489 72.0047ZM39.6489 72.4433L39.3596 72.4433L39.3596 72.7339L39.6489 72.7339L39.6489 72.4433ZM39.6489 72.8819L39.3596 72.8819L39.3596 73.1725L39.6489 73.1725L39.6489 72.8819ZM39.6489 73.3205L39.3596 73.3205L39.3596 73.6111L39.6489 73.6111L39.6489 73.3205ZM39.6489 73.7591L39.3596 73.7591L39.3596 74.0497L39.6489 74.0497L39.6489 73.7591ZM39.6489 74.1977L39.3596 74.1977L39.3596 74.4883L39.6489 74.4883L39.6489 74.1977ZM39.7969 74.4883L39.7969 74.1977L40.0863 74.1977L40.0863 74.4883L39.7969 74.4883ZM39.7969 74.0497L39.7969 73.7591L40.0863 73.7591L40.0863 74.0497L39.7969 74.0497ZM39.7969 73.6111L39.7969 73.3205L40.0863 73.3205L40.0863 73.6111L39.7969 73.6111ZM39.7969 73.1725L39.7969 72.8819L40.0863 72.8819L40.0863 73.1725L39.7969 73.1725ZM39.7969 72.7339L39.7969 72.4433L40.0863 72.4433L40.0863 72.7339L39.7969 72.7339ZM39.7969 72.2953L39.7969 72.0047L40.0863 72.0047L40.0863 72.2953L39.7969 72.2953ZM39.7969 71.8567L39.7969 71.566L40.0863 71.566L40.0863 71.8567L39.7969 71.8567ZM40.5236 71.566L40.2343 71.566L40.2343 71.8567L40.5236 71.8567L40.5236 71.566ZM40.5236 72.0047L40.2343 72.0047L40.2343 72.2953L40.5236 72.2953L40.5236 72.0047ZM40.5236 72.4433L40.2343 72.4433L40.2343 72.7339L40.5236 72.7339L40.5236 72.4433ZM40.5236 72.8819L40.2343 72.8819L40.2343 73.1725L40.5236 73.1725L40.5236 72.8819ZM40.5236 73.3205L40.2343 73.3205L40.2343 73.6111L40.5236 73.6111L40.5236 73.3205ZM40.5236 73.7591L40.2343 73.7591L40.2343 74.0497L40.5236 74.0497L40.5236 73.7591ZM40.5236 74.1977L40.2343 74.1977L40.2343 74.4883L40.5236 74.4883L40.5236 74.1977ZM40.6716 74.4883L40.6716 74.1977L40.9609 74.1977L40.9609 74.4883L40.6716 74.4883ZM40.6716 74.0497L40.6716 73.7591L40.9609 73.7591L40.9609 74.0497L40.6716 74.0497ZM40.6716 73.6111L40.6716 73.3205L40.9609 73.3205L40.9609 73.6111L40.6716 73.6111ZM40.6716 73.1725L40.6716 72.8819L40.9609 72.8819L40.9609 73.1725L40.6716 73.1725ZM40.6716 72.7339L40.6716 72.4433L40.9609 72.4433L40.9609 72.7339L40.6716 72.7339ZM40.6716 72.2953L40.6716 72.0047L40.9609 72.0047L40.9609 72.2953L40.6716 72.2953ZM40.6716 71.8567L40.6716 71.566L40.9609 71.566L40.9609 71.8567L40.6716 71.8567ZM41.3982 71.566L41.1088 71.566L41.1088 71.8567L41.3982 71.8567L41.3982 71.566ZM41.3982 72.0047L41.1088 72.0047L41.1088 72.2953L41.3982 72.2953L41.3982 72.0047ZM41.3982 72.4433L41.1088 72.4433L41.1088 72.7339L41.3982 72.7339L41.3982 72.4433ZM41.3982 72.8819L41.1088 72.8819L41.1088 73.1725L41.3982 73.1725L41.3982 72.8819ZM41.3982 73.3205L41.1088 73.3205L41.1088 73.6111L41.3982 73.6111L41.3982 73.3205ZM41.3982 73.7591L41.1088 73.7591L41.1088 74.0497L41.3982 74.0497L41.3982 73.7591ZM41.3982 74.1977L41.1088 74.1977L41.1088 74.4883L41.3982 74.4883L41.3982 74.1977ZM41.5462 74.4883L41.5462 74.1977L41.8356 74.1977L41.8356 74.4883L41.5462 74.4883ZM41.5462 74.0497L41.5462 73.7591L41.8356 73.7591L41.8356 74.0497L41.5462 74.0497ZM41.5462 73.6111L41.5462 73.3205L41.8356 73.3205L41.8356 73.6111L41.5462 73.6111ZM41.5462 73.1725L41.5462 72.8819L41.8356 72.8819L41.8356 73.1725L41.5462 73.1725ZM41.5462 72.7339L41.5462 72.4433L41.8356 72.4433L41.8356 72.7339L41.5462 72.7339ZM41.5462 72.2953L41.5462 72.0047L41.8356 72.0047L41.8356 72.2953L41.5462 72.2953ZM41.5462 71.8567L41.5462 71.566L41.8356 71.566L41.8356 71.8567L41.5462 71.8567ZM42.2729 71.566L41.9835 71.566L41.9835 71.8567L42.2729 71.8567L42.2729 71.566ZM42.2729 72.0047L41.9835 72.0047L41.9835 72.2953L42.2729 72.2953L42.2729 72.0047ZM42.2729 72.4433L41.9835 72.4433L41.9835 72.7339L42.2729 72.7339L42.2729 72.4433ZM42.2729 72.8819L41.9835 72.8819L41.9835 73.1725L42.2729 73.1725L42.2729 72.8819ZM42.2729 73.3205L41.9835 73.3205L41.9835 73.6111L42.2729 73.6111L42.2729 73.3205ZM42.2729 73.7591L41.9835 73.7591L41.9835 74.0497L42.2729 74.0497L42.2729 73.7591ZM42.2729 74.1977L41.9835 74.1977L41.9835 74.4883L42.2729 74.4883L42.2729 74.1977ZM42.4208 74.4883L42.4208 74.1977L42.7102 74.1977L42.7102 74.4883L42.4208 74.4883ZM42.4208 74.0497L42.4208 73.7591L42.7102 73.7591L42.7102 74.0497L42.4208 74.0497ZM42.4208 73.6111L42.4208 73.3205L42.7102 73.3205L42.7102 73.6111L42.4208 73.6111ZM42.4208 73.1725L42.4208 72.8819L42.7102 72.8819L42.7102 73.1725L42.4208 73.1725ZM42.4208 72.7339L42.4208 72.4433L42.7102 72.4433L42.7102 72.7339L42.4208 72.7339ZM42.4208 72.2953L42.4208 72.0047L42.7102 72.0047L42.7102 72.2953L42.4208 72.2953ZM42.4208 71.8567L42.4208 71.566L42.7102 71.566L42.7102 71.8567L42.4208 71.8567ZM43.1474 71.566L42.8582 71.566L42.8582 71.8567L43.1474 71.8567L43.1474 71.566ZM43.1474 72.0047L42.8582 72.0047L42.8582 72.2953L43.1474 72.2953L43.1474 72.0047ZM43.1474 72.4433L42.8582 72.4433L42.8582 72.7339L43.1474 72.7339L43.1474 72.4433ZM43.1474 72.8819L42.8582 72.8819L42.8582 73.1725L43.1474 73.1725L43.1474 72.8819ZM43.1474 73.3205L42.8582 73.3205L42.8582 73.6111L43.1474 73.6111L43.1474 73.3205ZM43.1474 73.7591L42.8582 73.7591L42.8582 74.0497L43.1474 74.0497L43.1474 73.7591ZM43.1474 74.1977L42.8582 74.1977L42.8582 74.4883L43.1474 74.4883L43.1474 74.1977ZM43.2953 74.4883L43.2953 74.1977L43.5848 74.1977L43.5848 74.4883L43.2953 74.4883ZM43.2953 74.0497L43.2953 73.7591L43.5848 73.7591L43.5848 74.0497L43.2953 74.0497ZM43.2953 73.6111L43.2953 73.3205L43.5848 73.3205L43.5848 73.6111L43.2953 73.6111ZM43.2953 73.1725L43.2953 72.8819L43.5848 72.8819L43.5848 73.1725L43.2953 73.1725ZM43.2953 72.7339L43.2953 72.4433L43.5848 72.4433L43.5848 72.7339L43.2953 72.7339ZM43.2953 72.2953L43.2953 72.0047L43.5848 72.0047L43.5848 72.2953L43.2953 72.2953ZM43.2953 71.8567L43.2953 71.566L43.5848 71.566L43.5848 71.8567L43.2953 71.8567ZM44.022 71.566L43.7327 71.566L43.7327 71.8567L44.022 71.8567L44.022 71.566ZM44.022 72.0047L43.7327 72.0047L43.7327 72.2953L44.022 72.2953L44.022 72.0047ZM44.022 72.4433L43.7327 72.4433L43.7327 72.7339L44.022 72.7339L44.022 72.4433ZM44.022 72.8819L43.7327 72.8819L43.7327 73.1725L44.022 73.1725L44.022 72.8819ZM44.022 73.3205L43.7327 73.3205L43.7327 73.6111L44.022 73.6111L44.022 73.3205ZM44.022 73.7591L43.7327 73.7591L43.7327 74.0497L44.022 74.0497L44.022 73.7591ZM44.022 74.1977L43.7327 74.1977L43.7327 74.4883L44.022 74.4883L44.022 74.1977ZM44.1699 74.4883L44.1699 74.1977L44.4593 74.1977L44.4593 74.4883L44.1699 74.4883ZM44.1699 74.0497L44.1699 73.7591L44.4593 73.7591L44.4593 74.0497L44.1699 74.0497ZM44.1699 73.6111L44.1699 73.3205L44.4593 73.3205L44.4593 73.6111L44.1699 73.6111ZM44.1699 73.1725L44.1699 72.8819L44.4593 72.8819L44.4593 73.1725L44.1699 73.1725ZM44.1699 72.7339L44.1699 72.4433L44.4593 72.4433L44.4593 72.7339L44.1699 72.7339ZM44.1699 72.2953L44.1699 72.0047L44.4593 72.0047L44.4593 72.2953L44.1699 72.2953ZM44.1699 71.8567L44.1699 71.566L44.4593 71.566L44.4593 71.8567L44.1699 71.8567ZM44.8966 71.566L44.6072 71.566L44.6072 71.8567L44.8966 71.8567L44.8966 71.566ZM44.8966 72.0047L44.6072 72.0047L44.6072 72.2953L44.8966 72.2953L44.8966 72.0047ZM44.8966 72.4433L44.6072 72.4433L44.6072 72.7339L44.8966 72.7339L44.8966 72.4433ZM44.8966 72.8819L44.6072 72.8819L44.6072 73.1725L44.8966 73.1725L44.8966 72.8819ZM44.8966 73.3205L44.6072 73.3205L44.6072 73.6111L44.8966 73.6111L44.8966 73.3205ZM44.8966 73.7591L44.6072 73.7591L44.6072 74.0497L44.8966 74.0497L44.8966 73.7591ZM44.8966 74.1977L44.6072 74.1977L44.6072 74.4883L44.8966 74.4883L44.8966 74.1977ZM45.0446 74.4883L45.0446 74.1977L45.3339 74.1977L45.3339 74.4883L45.0446 74.4883ZM45.0446 74.0497L45.0446 73.7591L45.3339 73.7591L45.3339 74.0497L45.0446 74.0497ZM45.0446 73.6111L45.0446 73.3205L45.3339 73.3205L45.3339 73.6111L45.0446 73.6111ZM45.0446 73.1725L45.0446 72.8819L45.3339 72.8819L45.3339 73.1725L45.0446 73.1725ZM45.0446 72.7339L45.0446 72.4433L45.3339 72.4433L45.3339 72.7339L45.0446 72.7339ZM45.0446 72.2953L45.0446 72.0047L45.3339 72.0047L45.3339 72.2953L45.0446 72.2953ZM45.0446 71.8567L45.0446 71.566L45.3339 71.566L45.3339 71.8567L45.0446 71.8567ZM45.7713 71.566L45.4819 71.566L45.4819 71.8567L45.7713 71.8567L45.7713 71.566ZM45.7713 72.0047L45.4819 72.0047L45.4819 72.2953L45.7713 72.2953L45.7713 72.0047ZM45.7713 72.4433L45.4819 72.4433L45.4819 72.7339L45.7713 72.7339L45.7713 72.4433ZM45.7713 72.8819L45.4819 72.8819L45.4819 73.1725L45.7713 73.1725L45.7713 72.8819ZM45.7713 73.3205L45.4819 73.3205L45.4819 73.6111L45.7713 73.6111L45.7713 73.3205ZM45.7713 73.7591L45.4819 73.7591L45.4819 74.0497L45.7713 74.0497L45.7713 73.7591ZM45.7713 74.1977L45.4819 74.1977L45.4819 74.4883L45.7713 74.4883L45.7713 74.1977ZM45.9192 74.4883L45.9192 74.1977L46.2086 74.1977L46.2086 74.4883L45.9192 74.4883ZM45.9192 74.0497L45.9192 73.7591L46.2086 73.7591L46.2086 74.0497L45.9192 74.0497ZM45.9192 73.6111L45.9192 73.3205L46.2086 73.3205L46.2086 73.6111L45.9192 73.6111ZM45.9192 73.1725L45.9192 72.8819L46.2086 72.8819L46.2086 73.1725L45.9192 73.1725ZM45.9192 72.7339L45.9192 72.4433L46.2086 72.4433L46.2086 72.7339L45.9192 72.7339ZM45.9192 72.2953L45.9192 72.0047L46.2086 72.0047L46.2086 72.2953L45.9192 72.2953ZM45.9192 71.8567L45.9192 71.566L46.2086 71.566L46.2086 71.8567L45.9192 71.8567ZM46.6458 71.566L46.3566 71.566L46.3566 71.8567L46.6458 71.8567L46.6458 71.566ZM46.6458 72.0047L46.3566 72.0047L46.3566 72.2953L46.6458 72.2953L46.6458 72.0047ZM46.6458 72.4433L46.3566 72.4433L46.3566 72.7339L46.6458 72.7339L46.6458 72.4433ZM46.6458 72.8819L46.3566 72.8819L46.3566 73.1725L46.6458 73.1725L46.6458 72.8819ZM46.6458 73.3205L46.3566 73.3205L46.3566 73.6111L46.6458 73.6111L46.6458 73.3205ZM46.6458 73.7591L46.3566 73.7591L46.3566 74.0497L46.6458 74.0497L46.6458 73.7591ZM46.6458 74.1977L46.3566 74.1977L46.3566 74.4883L46.6458 74.4883L46.6458 74.1977ZM46.7938 74.4883L46.7938 74.1977L47.0832 74.1977L47.0832 74.4883L46.7938 74.4883ZM46.7938 74.0497L46.7938 73.7591L47.0832 73.7591L47.0832 74.0497L46.7938 74.0497ZM46.7938 73.6111L46.7938 73.3205L47.0832 73.3205L47.0832 73.6111L46.7938 73.6111ZM46.7938 73.1725L46.7938 72.8819L47.0832 72.8819L47.0832 73.1725L46.7938 73.1725ZM46.7938 72.7339L46.7938 72.4433L47.0832 72.4433L47.0832 72.7339L46.7938 72.7339ZM46.7938 72.2953L46.7938 72.0047L47.0832 72.0047L47.0832 72.2953L46.7938 72.2953ZM46.7938 71.8567L46.7938 71.566L47.0832 71.566L47.0832 71.8567L46.7938 71.8567ZM47.5206 71.566L47.2311 71.566L47.2311 71.8567L47.5206 71.8567L47.5206 71.566ZM47.5206 72.0047L47.2311 72.0047L47.2311 72.2953L47.5206 72.2953L47.5206 72.0047ZM47.5206 72.4433L47.2311 72.4433L47.2311 72.7339L47.5206 72.7339L47.5206 72.4433ZM47.5206 72.8819L47.2311 72.8819L47.2311 73.1725L47.5206 73.1725L47.5206 72.8819ZM47.5206 73.3205L47.2311 73.3205L47.2311 73.6111L47.5206 73.6111L47.5206 73.3205ZM47.5206 73.7591L47.2311 73.7591L47.2311 74.0497L47.5206 74.0497L47.5206 73.7591ZM47.5206 74.1977L47.2311 74.1977L47.2311 74.4883L47.5206 74.4883L47.5206 74.1977ZM47.6685 74.4883L47.6685 74.1977L47.9578 74.1977L47.9578 74.4883L47.6685 74.4883ZM47.6685 74.0497L47.6685 73.7591L47.9578 73.7591L47.9578 74.0497L47.6685 74.0497ZM47.6685 73.6111L47.6685 73.3205L47.9578 73.3205L47.9578 73.6111L47.6685 73.6111ZM47.6685 73.1725L47.6685 72.8819L47.9578 72.8819L47.9578 73.1725L47.6685 73.1725ZM47.6685 72.7339L47.6685 72.4433L47.9578 72.4433L47.9578 72.7339L47.6685 72.7339ZM47.6685 72.2953L47.6685 72.0047L47.9578 72.0047L47.9578 72.2953L47.6685 72.2953ZM47.6685 71.8567L47.6685 71.566L47.9578 71.566L47.9578 71.8567L47.6685 71.8567ZM48.3951 71.566L48.1057 71.566L48.1057 71.8567L48.3951 71.8567L48.3951 71.566ZM48.3951 72.0047L48.1057 72.0047L48.1057 72.2953L48.3951 72.2953L48.3951 72.0047ZM48.3951 72.4433L48.1057 72.4433L48.1057 72.7339L48.3951 72.7339L48.3951 72.4433ZM48.3951 72.8819L48.1057 72.8819L48.1057 73.1725L48.3951 73.1725L48.3951 72.8819ZM48.3951 73.3205L48.1057 73.3205L48.1057 73.6111L48.3951 73.6111L48.3951 73.3205ZM48.3951 73.7591L48.1057 73.7591L48.1057 74.0497L48.3951 74.0497L48.3951 73.7591ZM48.3951 74.1977L48.1057 74.1977L48.1057 74.4883L48.3951 74.4883L48.3951 74.1977ZM48.543 74.4883L48.543 74.1977L48.8325 74.1977L48.8325 74.4883L48.543 74.4883ZM48.543 74.0497L48.543 73.7591L48.8325 73.7591L48.8325 74.0497L48.543 74.0497ZM48.543 73.6111L48.543 73.3205L48.8325 73.3205L48.8325 73.6111L48.543 73.6111ZM48.543 73.1725L48.543 72.8819L48.8325 72.8819L48.8325 73.1725L48.543 73.1725ZM48.543 72.7339L48.543 72.4433L48.8325 72.4433L48.8325 72.7339L48.543 72.7339ZM48.543 72.2953L48.543 72.0047L48.8325 72.0047L48.8325 72.2953L48.543 72.2953ZM48.543 71.8567L48.543 71.566L48.8325 71.566L48.8325 71.8567L48.543 71.8567ZM49.2697 71.566L48.9804 71.566L48.9804 71.8567L49.2697 71.8567L49.2697 71.566ZM49.2697 72.0047L48.9804 72.0047L48.9804 72.2953L49.2697 72.2953L49.2697 72.0047ZM49.2697 72.4433L48.9804 72.4433L48.9804 72.7339L49.2697 72.7339L49.2697 72.4433ZM49.2697 72.8819L48.9804 72.8819L48.9804 73.1725L49.2697 73.1725L49.2697 72.8819ZM49.2697 73.3205L48.9804 73.3205L48.9804 73.6111L49.2697 73.6111L49.2697 73.3205ZM49.2697 73.7591L48.9804 73.7591L48.9804 74.0497L49.2697 74.0497L49.2697 73.7591ZM49.2697 74.1977L48.9804 74.1977L48.9804 74.4883L49.2697 74.4883L49.2697 74.1977ZM49.4177 74.4883L49.4177 74.1977L49.7069 74.1977L49.7069 74.4883L49.4177 74.4883ZM49.4177 74.0497L49.4177 73.7591L49.7069 73.7591L49.7069 74.0497L49.4177 74.0497ZM49.4177 73.6111L49.4177 73.3205L49.7069 73.3205L49.7069 73.6111L49.4177 73.6111ZM49.4177 73.1725L49.4177 72.8819L49.7069 72.8819L49.7069 73.1725L49.4177 73.1725ZM49.4177 72.7339L49.4177 72.4433L49.7069 72.4433L49.7069 72.7339L49.4177 72.7339ZM49.4177 72.2953L49.4177 72.0047L49.7069 72.0047L49.7069 72.2953L49.4177 72.2953ZM49.4177 71.8567L49.4177 71.566L49.7069 71.566L49.7069 71.8567L49.4177 71.8567ZM50.1444 71.566L49.8549 71.566L49.8549 71.8567L50.1444 71.8567L50.1444 71.566ZM50.1444 72.0047L49.8549 72.0047L49.8549 72.2953L50.1444 72.2953L50.1444 72.0047ZM50.1444 72.4433L49.8549 72.4433L49.8549 72.7339L50.1444 72.7339L50.1444 72.4433ZM50.1444 72.8819L49.8549 72.8819L49.8549 73.1725L50.1444 73.1725L50.1444 72.8819ZM50.1444 73.3205L49.8549 73.3205L49.8549 73.6111L50.1444 73.6111L50.1444 73.3205ZM50.1444 73.7591L49.8549 73.7591L49.8549 74.0497L50.1444 74.0497L50.1444 73.7591ZM50.1444 74.1977L49.8549 74.1977L49.8549 74.4883L50.1444 74.4883L50.1444 74.1977ZM50.2924 74.4883L50.2924 74.1977L50.5817 74.1977L50.5817 74.4883L50.2924 74.4883ZM50.2924 74.0497L50.2924 73.7591L50.5817 73.7591L50.5817 74.0497L50.2924 74.0497ZM50.2924 73.6111L50.2924 73.3205L50.5817 73.3205L50.5817 73.6111L50.2924 73.6111ZM50.2924 73.1725L50.2924 72.8819L50.5817 72.8819L50.5817 73.1725L50.2924 73.1725ZM50.2924 72.7339L50.2924 72.4433L50.5817 72.4433L50.5817 72.7339L50.2924 72.7339ZM50.2924 72.2953L50.2924 72.0047L50.5817 72.0047L50.5817 72.2953L50.2924 72.2953ZM50.2924 71.8567L50.2924 71.566L50.5817 71.566L50.5817 71.8567L50.2924 71.8567ZM51.0189 71.566L50.7296 71.566L50.7296 71.8567L51.0189 71.8567L51.0189 71.566ZM51.0189 72.0047L50.7296 72.0047L50.7296 72.2953L51.0189 72.2953L51.0189 72.0047ZM51.0189 72.4433L50.7296 72.4433L50.7296 72.7339L51.0189 72.7339L51.0189 72.4433ZM51.0189 72.8819L50.7296 72.8819L50.7296 73.1725L51.0189 73.1725L51.0189 72.8819ZM51.0189 73.3205L50.7296 73.3205L50.7296 73.6111L51.0189 73.6111L51.0189 73.3205ZM51.0189 73.7591L50.7296 73.7591L50.7296 74.0497L51.0189 74.0497L51.0189 73.7591ZM51.0189 74.1977L50.7296 74.1977L50.7296 74.4883L51.0189 74.4883L51.0189 74.1977ZM51.1669 74.4883L51.1669 74.1977L51.4562 74.1977L51.4562 74.4883L51.1669 74.4883ZM51.1669 74.0497L51.1669 73.7591L51.4562 73.7591L51.4562 74.0497L51.1669 74.0497ZM51.1669 73.6111L51.1669 73.3205L51.4562 73.3205L51.4562 73.6111L51.1669 73.6111ZM51.1669 73.1725L51.1669 72.8819L51.4562 72.8819L51.4562 73.1725L51.1669 73.1725ZM51.1669 72.7339L51.1669 72.4433L51.4562 72.4433L51.4562 72.7339L51.1669 72.7339ZM51.1669 72.2953L51.1669 72.0047L51.4562 72.0047L51.4562 72.2953L51.1669 72.2953ZM51.1669 71.8567L51.1669 71.566L51.4562 71.566L51.4562 71.8567L51.1669 71.8567ZM51.8936 71.566L51.6042 71.566L51.6042 71.8567L51.8936 71.8567L51.8936 71.566ZM51.8936 72.0047L51.6042 72.0047L51.6042 72.2953L51.8936 72.2953L51.8936 72.0047ZM51.8936 72.4433L51.6042 72.4433L51.6042 72.7339L51.8936 72.7339L51.8936 72.4433ZM51.8936 72.8819L51.6042 72.8819L51.6042 73.1725L51.8936 73.1725L51.8936 72.8819ZM51.8936 73.3205L51.6042 73.3205L51.6042 73.6111L51.8936 73.6111L51.8936 73.3205ZM51.8936 73.7591L51.6042 73.7591L51.6042 74.0497L51.8936 74.0497L51.8936 73.7591ZM51.8936 74.1977L51.6042 74.1977L51.6042 74.4883L51.8936 74.4883L51.8936 74.1977Z" fill="#939EA8"></path>
    </g>
    <defs>
      <clipPath id="clip0_20_11811">
        <rect width="76" height="89" fill="white" transform="translate(89) rotate(90)"></rect>
      </clipPath>
    </defs>
  </symbol>
</svg>