<svg width="0" height="0" class="hidden">
  <symbol fill="none" xmlns="http://www.w3.org/2000/svg" viewBox="0 0 41 17" id="line-8">
    <path d="M1 15.2131C1 15.2131 6.62196 1 20.543 1C34.4641 1 40.086 15.2131 40.086 15.2131" stroke="white" stroke-width="0.888319" stroke-linecap="round" stroke-dasharray="5.33 5.33"></path>
  </symbol>
  <symbol fill="none" xmlns="http://www.w3.org/2000/svg" viewBox="0 0 41 17" id="line-7">
    <path d="M1 15.2131C1 15.2131 6.62196 1 20.543 1C34.4641 1 40.086 15.2131 40.086 15.2131" stroke="white" stroke-width="1.77664" stroke-linecap="round"></path>
  </symbol>
  <symbol fill="none" xmlns="http://www.w3.org/2000/svg" viewBox="0 0 41 17" id="line-6">
    <path d="M0.586977 15.0497C0.49675 15.2778 0.608524 15.5359 0.83663 15.6261C1.06474 15.7163 1.3228 15.6046 1.41302 15.3765L0.586977 15.0497ZM40.086 15.2131L40.3464 10.091L35.7804 12.4265L40.086 15.2131ZM1 15.2131C1.41302 15.3765 1.413 15.3765 1.41299 15.3766C1.41299 15.3766 1.41297 15.3766 1.41297 15.3766C1.41295 15.3766 1.41295 15.3767 1.41295 15.3766C1.41296 15.3766 1.41299 15.3766 1.41305 15.3764C1.41317 15.3761 1.41341 15.3755 1.41375 15.3746C1.41445 15.3729 1.4156 15.37 1.4172 15.3661C1.4204 15.3582 1.42542 15.3458 1.43227 15.3293C1.44596 15.2962 1.46698 15.2462 1.49544 15.1805C1.55236 15.0492 1.63901 14.8554 1.75638 14.6097C1.99118 14.1181 2.34853 13.4193 2.83614 12.5968L2.07201 12.1438C1.56911 12.9921 1.19943 13.7147 0.954809 14.2268C0.832473 14.483 0.741333 14.6866 0.680381 14.8272C0.649902 14.8976 0.626964 14.9521 0.611441 14.9897C0.603679 15.0084 0.59777 15.0229 0.593698 15.033C0.591662 15.038 0.590085 15.0419 0.588966 15.0447C0.588406 15.0461 0.587961 15.0473 0.587629 15.0481C0.587464 15.0485 0.587327 15.0488 0.587218 15.0491C0.587164 15.0493 0.587116 15.0494 0.587076 15.0495C0.587056 15.0495 0.587032 15.0496 0.587022 15.0496C0.586999 15.0497 0.586977 15.0497 1 15.2131ZM6.63276 7.59136C7.99013 6.1884 9.62665 4.83438 11.563 3.75619L11.1308 2.98008C9.10461 4.10832 7.40033 5.52047 5.99433 6.97368L6.63276 7.59136ZM17.4259 1.69763C18.4126 1.53354 19.4511 1.44416 20.543 1.44416V0.555841C19.4024 0.555841 18.3152 0.649227 17.2801 0.821349L17.4259 1.69763ZM20.543 1.44416C21.6349 1.44416 22.6734 1.53354 23.6602 1.69763L23.8059 0.821349C22.7709 0.649227 21.6836 0.555841 20.543 0.555841V1.44416ZM29.5231 3.75619C31.4594 4.83438 33.0959 6.1884 34.4533 7.59136L35.0917 6.97368C33.6857 5.52047 31.9814 4.10832 29.9552 2.98008L29.5231 3.75619ZM0.173955 14.8864C-0.00649905 15.3426 0.217047 15.8587 0.673259 16.0391C1.12947 16.2196 1.64559 15.9961 1.82605 15.5398L0.173955 14.8864ZM40.086 15.2131L40.6069 4.96891L31.4747 9.63994L40.086 15.2131ZM1 15.2131C1.82605 15.5398 1.82601 15.5399 1.82597 15.54C1.82596 15.54 1.82593 15.5401 1.82591 15.5402C1.82587 15.5403 1.82584 15.5404 1.82582 15.5404C1.82577 15.5405 1.82575 15.5406 1.82576 15.5406C1.82578 15.5405 1.82591 15.5402 1.82615 15.5396C1.82663 15.5384 1.82756 15.5361 1.82895 15.5326C1.83172 15.5258 1.83629 15.5146 1.84268 15.4991C1.85546 15.4682 1.87552 15.4205 1.90296 15.3571C1.95787 15.2305 2.04228 15.0417 2.15717 14.8011C2.38705 14.3199 2.73825 13.6329 3.21821 12.8233L1.68994 11.9173C1.17939 12.7785 0.803551 13.513 0.554022 14.0354C0.429202 14.2967 0.335822 14.5053 0.272853 14.6506C0.241364 14.7233 0.217465 14.7801 0.201028 14.8198C0.192809 14.8397 0.186455 14.8553 0.181948 14.8664C0.179695 14.872 0.177903 14.8765 0.176572 14.8798C0.175906 14.8815 0.175355 14.8828 0.174919 14.8839C0.174701 14.8845 0.174512 14.885 0.174351 14.8854C0.174271 14.8856 0.174197 14.8857 0.174131 14.8859C0.174098 14.886 0.174054 14.8861 0.174038 14.8861C0.173995 14.8863 0.173955 14.8864 1 15.2131ZM6.95197 7.9002C8.28503 6.52237 9.88768 5.19741 11.779 4.14425L10.9147 2.59203C8.84359 3.74529 7.10543 5.18651 5.67512 6.66484L6.95197 7.9002ZM17.4987 2.13578C18.4614 1.97569 19.4755 1.88832 20.543 1.88832V0.111681C19.3781 0.111681 18.2664 0.207073 17.2073 0.383207L17.4987 2.13578ZM20.543 1.88832C21.6105 1.88832 22.6247 1.97569 23.5873 2.13578L23.8788 0.383206C22.8196 0.207073 21.708 0.111681 20.543 0.111681V1.88832ZM29.307 4.14425C31.1984 5.19741 32.801 6.52237 34.1341 7.9002L35.4109 6.66484C33.9806 5.18651 32.2424 3.74529 30.1713 2.59202L29.307 4.14425Z" fill="white"></path>
  </symbol>
  <symbol fill="none" xmlns="http://www.w3.org/2000/svg" viewBox="0 0 41 17" id="line-5">
    <path d="M0.173955 14.8864C-0.00649905 15.3426 0.217047 15.8587 0.673259 16.0391C1.12947 16.2196 1.64559 15.9961 1.82605 15.5398L0.173955 14.8864ZM40.086 15.2131L39.6981 4.96302L31.0152 10.424L40.086 15.2131ZM1 15.2131C1.82605 15.5398 1.82593 15.5401 1.82584 15.5404C1.82584 15.5404 1.82576 15.5405 1.82576 15.5406C1.82575 15.5406 1.82582 15.5404 1.82598 15.54C1.8263 15.5392 1.82696 15.5376 1.82796 15.5351C1.82997 15.5301 1.83334 15.5218 1.83808 15.5103C1.84757 15.4872 1.86257 15.4512 1.88314 15.4031C1.92429 15.307 1.98773 15.1628 2.07409 14.9773C2.24688 14.6061 2.511 14.0706 2.87141 13.4256C3.59325 12.1338 4.6957 10.413 6.21624 8.69537C9.25733 5.26019 13.9197 1.88832 20.543 1.88832V0.111681C13.2453 0.111681 8.13615 3.84636 4.88598 7.51773C3.26091 9.3534 2.0878 11.1858 1.32049 12.559C0.936318 13.2465 0.652466 13.8214 0.463422 14.2275C0.368867 14.4306 0.297929 14.5917 0.249931 14.7038C0.22593 14.7599 0.207655 14.8037 0.195022 14.8344C0.188706 14.8497 0.183799 14.8618 0.180292 14.8705C0.178538 14.8749 0.177134 14.8784 0.176078 14.881C0.17555 14.8823 0.17511 14.8834 0.174756 14.8843C0.174579 14.8848 0.174378 14.8853 0.17429 14.8855C0.174112 14.886 0.173955 14.8864 1 15.2131ZM20.543 1.88832C27.3757 1.88832 32.1229 5.47749 35.1541 9.02209L36.5043 7.86743C33.2718 4.08732 28.0732 0.111681 20.543 0.111681V1.88832Z" fill="white"></path>
  </symbol>
  <symbol fill="none" xmlns="http://www.w3.org/2000/svg" viewBox="0 0 36 36" id="line-4">
    <path d="M1 34.2913L34.2912 1.00004" stroke="white" stroke-width="0.888319" stroke-linecap="round" stroke-dasharray="5.33 5.33"></path>
  </symbol>
  <symbol fill="none" xmlns="http://www.w3.org/2000/svg" viewBox="0 0 36 36" id="line-3">
    <path d="M1 34.2913L34.2912 1.00004" stroke="white" stroke-width="1.77664" stroke-linecap="round"></path>
  </symbol>
  <symbol fill="none" xmlns="http://www.w3.org/2000/svg" viewBox="0 0 26 26" id="line-2">
    <path d="M0.685932 24.6859C0.512477 24.8594 0.512477 25.1406 0.685932 25.3141C0.859387 25.4875 1.14061 25.4875 1.31407 25.3141L0.685932 24.6859ZM25.8729 0.127075L20.919 1.45448L24.5455 5.08103L25.8729 0.127075ZM1.31407 25.3141L3.38681 23.2413L2.75868 22.6132L0.685932 24.6859L1.31407 25.3141ZM7.5323 19.0958L11.6778 14.9503L11.0497 14.3222L6.90416 18.4677L7.5323 19.0958ZM15.8233 10.8049L19.9688 6.65938L19.3406 6.03124L15.1951 10.1767L15.8233 10.8049ZM0.371864 24.3719C0.0249538 24.7188 0.0249538 25.2812 0.371864 25.6281C0.718774 25.975 1.28123 25.975 1.62814 25.6281L0.371864 24.3719ZM25.8729 0.127075L15.965 2.78189L23.2181 10.035L25.8729 0.127075ZM1.62814 25.6281L3.70088 23.5554L2.44461 22.2991L0.371864 24.3719L1.62814 25.6281ZM7.84637 19.4099L11.9919 15.2644L10.7356 14.0081L6.5901 18.1536L7.84637 19.4099ZM16.1373 11.1189L20.2828 6.97344L19.0266 5.71717L14.8811 9.86266L16.1373 11.1189Z" fill="white"></path>
  </symbol>
  <symbol fill="none" xmlns="http://www.w3.org/2000/svg" viewBox="0 0 26 26" id="line-1">
    <path d="M0.371864 24.3719C0.0249538 24.7188 0.0249538 25.2812 0.371864 25.6281C0.718774 25.975 1.28123 25.975 1.62814 25.6281L0.371864 24.3719ZM25.8729 0.127075L15.965 2.78189L23.2181 10.035L25.8729 0.127075ZM1.62814 25.6281L20.8478 6.40844L19.5916 5.15216L0.371864 24.3719L1.62814 25.6281Z" fill="white"></path>
  </symbol>
  <symbol fill="none" xmlns="http://www.w3.org/2000/svg" viewBox="0 0 18 12" id="format-strel">
    <path d="M1 5.11168C0.509395 5.11168 0.111681 5.5094 0.111681 6C0.111681 6.4906 0.509395 6.88832 1 6.88832V5.11168ZM17.5243 6L8.64107 0.87129V11.1287L17.5243 6ZM1 6.88832H9.52939V5.11168H1V6.88832Z" fill="white"></path>
  </symbol>
  <symbol xmlns="http://www.w3.org/2000/svg" viewBox="0 0 12 12" id="close-line">
    <path d="M12 1.20857L10.7914 0L6 4.79143L1.20857 0L0 1.20857L4.79143 6L0 10.7914L1.20857 12L6 7.20857L10.7914 12L12 10.7914L7.20857 6L12 1.20857Z" ></path>
  </symbol>
  <symbol xmlns="http://www.w3.org/2000/svg" viewBox="0 0 12 12" id="refresh">
    <path d="M6.00375 0C7.66133 0 9.15962 0.670476 10.2439 1.755L12 0V5.25H6.74672L9.16323 2.835C8.35339 2.01817 7.24386 1.50085 5.99933 1.5C4.04252 1.50189 2.37852 2.75381 1.7636 4.5H1.75034C1.66482 4.74126 1.59934 4.99193 1.55589 5.25H0.0462714C0.414321 2.2893 2.93334 0 5.99625 0H6.00375Z"></path>
    <path d="M0 6.75V12L1.7561 10.245C2.84038 11.3295 4.33867 12 5.99625 12L6.00375 12C9.06666 12 11.5857 9.7107 11.9537 6.75H10.4441C10.4007 7.00807 10.3352 7.25874 10.2497 7.5H10.2364C9.6215 9.24612 7.9576 10.498 6.00089 10.5C4.75627 10.4992 3.64666 9.98187 2.83677 9.165L5.25328 6.75H0Z"></path>
  </symbol>
  <symbol fill="none" xmlns="http://www.w3.org/2000/svg" viewBox="0 0 33 38" id="line-12">
    <path d="M1.37845 36.5696C1.37845 36.5696 1.28847 31.2745 4.87875 27.6842C7.28901 25.274 13.6447 28.6114 16.4567 25.7994C18.9605 23.2956 16.6522 15.9108 18.88 13.683C20.7996 11.7634 26.1936 16.1015 30.191 12.104C34.1885 8.10661 30.1911 1.00005 30.1911 1.00005" stroke="white" stroke-width="0.888319" stroke-linecap="round" stroke-dasharray="5.33 5.33"></path>
  </symbol>
  <symbol fill="none" xmlns="http://www.w3.org/2000/svg" viewBox="0 0 33 39" id="line-11">
    <path d="M1.37845 37.3784C1.37845 37.3784 1.28847 32.0833 4.87875 28.4931C7.28901 26.0828 13.6447 29.4202 16.4567 26.6083C18.9605 24.1045 16.6522 16.7196 18.88 14.4918C20.7996 12.5722 26.1936 16.9103 30.191 12.9129C34.1885 8.91544 30.1911 1.80889 30.1911 1.80889" stroke="white" stroke-width="1.77664" stroke-linecap="round"></path>
  </symbol>
  <symbol fill="none" xmlns="http://www.w3.org/2000/svg" viewBox="0 0 39 40" id="line-10">
    <path d="M1.24845 38.7001C1.25261 38.9454 1.45482 39.1408 1.70009 39.1366C1.94536 39.1325 2.14081 38.9303 2.13664 38.685L1.24845 38.7001ZM38.9216 0.544265L34.0366 2.10656L37.8321 5.55592L38.9216 0.544265ZM1.69254 38.6925C2.13664 38.685 2.13664 38.6851 2.13664 38.6851C2.13664 38.6851 2.13664 38.6852 2.13664 38.6852C2.13664 38.6853 2.13664 38.6853 2.13664 38.6853C2.13664 38.6854 2.13664 38.6854 2.13664 38.6853C2.13664 38.6852 2.13664 38.6848 2.13663 38.6842C2.13661 38.683 2.13659 38.6808 2.13657 38.6776C2.13652 38.6714 2.13648 38.6614 2.13651 38.6478C2.13657 38.6207 2.13695 38.5791 2.13823 38.5243C2.1408 38.4146 2.14698 38.252 2.16156 38.0453C2.19073 37.6315 2.2534 37.0429 2.3873 36.3502L1.51513 36.1816C1.37336 36.915 1.30669 37.5397 1.27544 37.9828C1.25981 38.2044 1.25302 38.3811 1.25016 38.5035C1.24872 38.5648 1.24827 38.6126 1.24819 38.6457C1.24815 38.6622 1.2482 38.6752 1.24827 38.6843C1.24831 38.6888 1.24834 38.6924 1.24838 38.6951C1.24839 38.6964 1.24841 38.6975 1.24842 38.6983C1.24843 38.6987 1.24843 38.6991 1.24844 38.6994C1.24844 38.6995 1.24844 38.6997 1.24844 38.6998C1.24844 38.6998 1.24844 38.6999 1.24844 38.6999C1.24845 38.7 1.24845 38.7001 1.69254 38.6925ZM4.05797 31.9564C4.45446 31.3181 4.9319 30.6962 5.50692 30.1212L4.87878 29.4931C4.25096 30.1209 3.7321 30.7975 3.30339 31.4876L4.05797 31.9564ZM5.50692 30.1212C6.06147 29.5667 6.90568 29.3492 8.00776 29.3168L7.98162 28.4288C6.81403 28.4632 5.67941 28.6924 4.87878 29.4931L5.50692 30.1212ZM14.0841 29.5145C15.1991 29.3955 16.2655 29.0558 17.0848 28.2364L16.4567 27.6083C15.8349 28.2301 14.9947 28.5239 13.9898 28.6312L14.0841 29.5145ZM17.0848 28.2364C17.8627 27.4586 18.205 26.3128 18.3681 25.1026L17.4878 24.9839C17.3322 26.138 17.0238 27.0412 16.4567 27.6083L17.0848 28.2364ZM18.6207 18.774C18.7343 17.5442 18.9933 16.6348 19.5081 16.12L18.88 15.4919C18.1256 16.2463 17.8516 17.443 17.7361 18.6923L18.6207 18.774ZM19.5081 16.12C19.9947 15.6334 20.7041 15.3316 21.6106 15.0815L21.3743 14.2252C20.4319 14.4852 19.5353 14.8365 18.88 15.4919L19.5081 16.12ZM26.675 13.6378C27.4699 13.2673 28.2401 12.7731 28.932 12.0812L28.3039 11.4531C27.6978 12.0592 27.0181 12.4978 26.2997 12.8327L26.675 13.6378ZM28.932 12.0812C29.3217 11.6915 30.3221 10.6165 31.5461 9.28695L30.8926 8.68529C29.6626 10.0213 28.6773 11.0796 28.3039 11.4531L28.932 12.0812ZM0.804352 38.7076C0.812687 39.1982 1.2171 39.5891 1.70763 39.5807C2.19817 39.5724 2.58907 39.168 2.58073 38.6775L0.804352 38.7076ZM38.9216 0.544265L29.1517 3.66885L36.7426 10.5676L38.9216 0.544265ZM1.69254 38.6925C2.58073 38.6775 2.58074 38.6776 2.58074 38.6777C2.58074 38.6777 2.58074 38.6779 2.58074 38.6779C2.58074 38.6781 2.58075 38.6782 2.58075 38.6783C2.58075 38.6785 2.58075 38.6787 2.58075 38.6788C2.58076 38.679 2.58076 38.679 2.58075 38.6787C2.58075 38.6782 2.58073 38.6767 2.58071 38.6743C2.58068 38.6695 2.58064 38.661 2.58067 38.6489C2.58073 38.6248 2.58106 38.5863 2.58227 38.5347C2.58468 38.4314 2.59057 38.2757 2.60462 38.0765C2.63276 37.6775 2.69342 37.1068 2.82339 36.4345L1.07904 36.0973C0.933338 36.851 0.864664 37.4937 0.832383 37.9515C0.816224 38.1807 0.809131 38.3643 0.806117 38.4932C0.80461 38.5576 0.804122 38.6085 0.804034 38.6446C0.80399 38.6627 0.804046 38.677 0.804125 38.6876C0.804164 38.6929 0.804209 38.6972 0.80425 38.7005C0.804271 38.7022 0.80429 38.7036 0.804308 38.7048C0.804316 38.7054 0.804325 38.7059 0.804332 38.7064C0.804336 38.7066 0.804339 38.7069 0.804343 38.7071C0.804344 38.7072 0.804347 38.7073 0.804347 38.7074C0.80435 38.7075 0.804352 38.7076 1.69254 38.6925ZM4.43526 32.1908C4.81564 31.5784 5.27238 30.9839 5.82098 30.4353L4.56471 29.179C3.91048 29.8332 3.37093 30.5372 2.92611 31.2533L4.43526 32.1908ZM5.82098 30.4353C6.25249 30.0038 6.95151 29.7922 8.02083 29.7608L7.96855 27.9849C6.7682 28.0202 5.48839 28.2553 4.56471 29.179L5.82098 30.4353ZM14.1313 29.9562C15.3013 29.8313 16.4809 29.4686 17.3989 28.5505L16.1426 27.2942C15.6196 27.8173 14.8925 28.0882 13.9427 28.1896L14.1313 29.9562ZM17.3989 28.5505C18.2821 27.6673 18.6414 26.4001 18.8083 25.1619L17.0476 24.9246C16.8958 26.0507 16.6043 26.8325 16.1426 27.2942L17.3989 28.5505ZM19.063 18.8149C19.1757 17.5948 19.4272 16.829 19.8222 16.4341L18.5659 15.1778C17.6917 16.052 17.4102 17.3924 17.2939 18.6514L19.063 18.8149ZM19.8222 16.4341C20.2244 16.0319 20.8403 15.7548 21.7287 15.5097L21.2562 13.797C20.2958 14.062 19.3057 14.4381 18.5659 15.1778L19.8222 16.4341ZM26.8627 14.0404C27.6958 13.652 28.5113 13.1301 29.2461 12.3953L27.9898 11.139C27.4266 11.7022 26.7922 12.113 26.112 12.4302L26.8627 14.0404ZM29.2461 12.3953C29.6439 11.9975 30.6518 10.9141 31.8729 9.58778L30.5658 8.38446C29.3328 9.72372 28.3551 10.7737 27.9898 11.139L29.2461 12.3953Z" fill="white"></path>
  </symbol>
  <symbol fill="none" xmlns="http://www.w3.org/2000/svg" viewBox="0 0 39 40" id="line-9">
    <path d="M0.804352 38.3964C0.812687 38.8869 1.2171 39.2778 1.70763 39.2695C2.19817 39.2611 2.58907 38.8567 2.58073 38.3662L0.804352 38.3964ZM38.9216 0.232986L29.1488 3.3487L36.7335 10.2543L38.9216 0.232986ZM17.3989 28.2392C18.2231 27.4151 18.5889 26.2589 18.7699 25.1135C18.9526 23.9572 18.9671 22.6629 18.9742 21.4546C18.9816 20.214 18.9813 19.0679 19.1086 18.0903C19.2386 17.0915 19.4816 16.4634 19.8222 16.1228L18.5659 14.8665C17.7926 15.6398 17.4888 16.7702 17.3468 17.8609C17.2021 18.9728 17.2047 20.2471 17.1976 21.4441C17.1904 22.6735 17.1733 23.8341 17.015 24.8363C16.855 25.8493 16.5704 26.5552 16.1426 26.983L17.3989 28.2392ZM1.69254 38.3813C2.58073 38.3662 2.58074 38.3665 2.58074 38.3667C2.58074 38.3668 2.58075 38.367 2.58075 38.3671C2.58075 38.3674 2.58075 38.3675 2.58076 38.3676C2.58076 38.3678 2.58076 38.3676 2.58075 38.3672C2.58074 38.3662 2.58072 38.364 2.5807 38.3606C2.58066 38.3538 2.58062 38.3422 2.58071 38.3258C2.58089 38.2931 2.58156 38.2417 2.58361 38.1734C2.58771 38.0366 2.59734 37.8324 2.61961 37.5742C2.66425 37.0568 2.75922 36.3277 2.96003 35.4926C3.36385 33.8135 4.18153 31.7635 5.82098 30.124L4.56471 28.8677C2.61388 30.8186 1.68142 33.2112 1.23265 35.0772C1.00717 36.0148 0.900245 36.8338 0.849551 37.4215C0.824165 37.7157 0.812773 37.9532 0.807769 38.1201C0.805266 38.2036 0.804359 38.2695 0.804103 38.316C0.803976 38.3393 0.804011 38.3578 0.804091 38.3713C0.804132 38.378 0.804183 38.3835 0.804232 38.3877C0.804256 38.3898 0.804279 38.3915 0.8043 38.393C0.80431 38.3937 0.80432 38.3944 0.804329 38.3949C0.804333 38.3952 0.804339 38.3956 0.804341 38.3957C0.804347 38.396 0.804352 38.3964 1.69254 38.3813ZM5.82098 30.124C6.20272 29.7423 6.7962 29.5297 7.68666 29.466C8.58148 29.402 9.60897 29.4963 10.7595 29.5895C11.8704 29.6795 13.0885 29.7672 14.2175 29.6353C15.3587 29.5019 16.5033 29.1348 17.3989 28.2392L16.1426 26.983C15.6323 27.4933 14.928 27.7635 14.0113 27.8706C13.0824 27.9791 12.0336 27.9103 10.9029 27.8187C9.81168 27.7303 8.62257 27.6179 7.55993 27.6939C6.49294 27.7702 5.3881 28.0443 4.56471 28.8677L5.82098 30.124ZM19.8222 16.1228C20.157 15.788 20.6456 15.5353 21.3304 15.3164C22.0251 15.0943 22.8028 14.9404 23.7134 14.732C25.4707 14.3298 27.5716 13.7585 29.2461 12.084L27.9898 10.8277C26.7025 12.115 25.0513 12.6032 23.317 13.0001C22.4818 13.1913 21.5788 13.3718 20.7894 13.6241C19.99 13.8797 19.191 14.2415 18.5659 14.8665L19.8222 16.1228ZM29.2461 12.084C29.8691 11.461 32.0289 9.1135 34.1944 6.74452L32.8831 5.54583C30.6988 7.9353 28.5765 10.241 27.9898 10.8277L29.2461 12.084Z" fill="white"></path>
  </symbol>
</svg>