<svg width="0" height="0" class="hidden">
  <symbol xmlns="http://www.w3.org/2000/svg" viewBox="0 0 10 10" id="strelka-right">
    <path d="M5 -2.18557e-07L3.94588 1.05412L7.14627 4.25451L-2.51143e-07 4.25451L-1.85971e-07 5.74549L7.14627 5.74549L3.94588 8.94588L5 10L10 5L5 -2.18557e-07Z"></path>
  </symbol>
  <symbol fill="none" xmlns="http://www.w3.org/2000/svg" viewBox="0 0 6 3" id="galka">
    <path d="M3 3L0.401923 -1.25623e-08L5.59808 4.417e-07L3 3Z" fill="white"></path>
  </symbol>
   <symbol xmlns="http://www.w3.org/2000/svg" viewBox="0 0 13 10" id="see">
    <path d="M4.77054 5C4.77054 5.45559 4.94647 5.89251 5.25962 6.21466C5.57277 6.53681 5.9975 6.71779 6.44036 6.71779C6.88322 6.71779 7.30795 6.53681 7.6211 6.21466C7.93425 5.89251 8.11018 5.45559 8.11018 5C8.11018 4.54441 7.93425 4.10749 7.6211 3.78534C7.30795 3.46319 6.88322 3.28221 6.44036 3.28221C5.9975 3.28221 5.57277 3.46319 5.25962 3.78534C4.94647 4.10749 4.77054 4.54441 4.77054 5ZM12.9139 4.60429C11.5005 1.54141 9.36404 0 6.5 0C3.63446 0 1.49948 1.54141 0.0860931 4.60583C0.0294018 4.72932 0 4.8642 0 5.00077C0 5.13734 0.0294018 5.27221 0.0860931 5.39571C1.49948 8.45859 3.63595 10 6.5 10C9.36553 10 11.5005 8.45859 12.9139 5.39417C13.0287 5.14571 13.0287 4.85736 12.9139 4.60429ZM6.44036 7.69939C4.99119 7.69939 3.81635 6.4908 3.81635 5C3.81635 3.5092 4.99119 2.30061 6.44036 2.30061C7.88953 2.30061 9.06437 3.5092 9.06437 5C9.06437 6.4908 7.88953 7.69939 6.44036 7.69939Z" ></path>
  </symbol>
  <symbol fill="none" xmlns="http://www.w3.org/2000/svg" viewBox="0 0 50 68" id="gerb">
    <path d="M46.0865 35.9807L46.087 35.9686V35.9565V9.08696V7.94197L45.1021 8.526C42.2445 10.2207 40.3959 11.8452 39.0987 13.3289C37.939 14.6553 37.231 15.8589 36.6561 16.8363C36.5894 16.9497 36.5246 17.0599 36.461 17.167L36.5391 17.2277C35.9864 17.9758 35.5414 19.0447 35.1678 20.2748C34.7664 21.5961 34.4288 23.1684 34.1371 24.865C33.5539 28.258 33.1442 32.21 32.7859 35.7606L32.7858 35.7606L32.7849 35.7719L32.6544 37.3372L32.6034 37.95L33.168 38.0306C33.2256 38.0471 33.2829 38.0635 33.3397 38.0798C33.6902 38.194 34.0558 38.3848 34.4365 38.6647C35.8617 40.16 36.8232 41.932 37.5625 43.8093C36.5267 44.7768 35.3286 45.5666 33.949 46.3167C33.8606 46.3443 33.6609 46.3823 33.3414 46.4203C33.1454 46.4437 32.9331 46.4642 32.7163 46.484C32.5032 46.0504 32.2867 45.626 32.0718 45.2048C31.5914 44.2633 31.1191 43.3378 30.7117 42.3603C30.3645 41.5077 30.0946 40.6672 29.8337 39.8438C29.8206 39.8026 29.8076 39.7614 29.7945 39.7202C29.5513 38.9519 29.3101 38.1902 29.0225 37.4846C27.1461 32.2073 27.5227 26.628 27.9033 20.987C27.9207 20.7306 27.938 20.474 27.9551 20.2173L27.9551 20.2173L27.9556 20.2088C28.0101 19.1921 28.0807 18.1653 28.1512 17.1424C28.3301 14.5436 28.5073 11.9696 28.4125 9.64732L28.4126 9.64731L28.412 9.63671C28.2714 7.17642 27.2137 5.14359 25.6887 3.5492L25.2174 3.05649L24.7461 3.5492C23.2246 5.13989 22.1593 7.17711 22.0874 9.58564C21.9929 11.907 22.17 14.4797 22.3488 17.0772C22.4193 18.1001 22.4899 19.1269 22.5444 20.1436L22.5445 20.1449C22.5734 20.665 22.6041 21.1846 22.6348 21.7034C22.9535 27.0913 23.2673 32.3967 21.4726 37.4333L21.471 37.4379C21.2861 37.9696 21.1232 38.4948 20.9592 39.0238C20.6352 40.0686 20.3068 41.1277 19.7953 42.2786L19.7922 42.2856L19.7893 42.2926C19.3816 43.271 18.909 44.1973 18.4282 45.1396C18.2123 45.5627 17.9948 45.9891 17.7807 46.4249C17.748 46.4227 17.7156 46.4205 17.6835 46.4184L17.6645 46.4172C17.4775 46.4048 17.3035 46.3932 17.1434 46.3779C16.982 46.3626 16.8504 46.3449 16.7482 46.3236C16.6515 46.3034 16.616 46.2867 16.6158 46.2871C16.6158 46.2871 16.6158 46.2871 16.6158 46.2872C16.5501 46.2472 16.4847 46.2074 16.4196 46.1678C15.117 45.3757 13.9377 44.6586 12.941 43.7446C13.6769 41.9054 14.5808 40.1021 16.0392 38.6227C16.4842 38.3493 16.9244 38.1296 17.3598 37.9614L17.8966 37.8847L17.8456 37.2719L17.7151 35.7067L17.7152 35.7067L17.7141 35.6954C17.3558 32.1448 16.9461 28.1928 16.3629 24.7998C16.0712 23.1032 15.7336 21.5309 15.3322 20.2096C14.9421 18.925 14.4741 17.8162 13.8868 17.065L13.0615 15.6682L13.052 15.6521L13.0415 15.6366C11.9301 13.9805 11.2976 13.0943 10.9394 12.6186C10.7606 12.3811 10.6455 12.2396 10.5699 12.1531C10.532 12.1097 10.5004 12.076 10.4727 12.0489C10.4587 12.0351 10.4439 12.0214 10.4284 12.008C10.4207 12.0014 10.4123 11.9945 10.4033 11.9874C9.78974 11.4964 9.54166 11.2624 9.42319 11.139C9.37878 11.0927 9.35372 11.0636 9.32358 11.0286C9.31305 11.0164 9.3019 11.0035 9.28909 10.9888C9.23326 10.925 9.16995 10.8583 9.07102 10.7798C8.91056 10.6525 8.64989 10.4919 8.12973 10.182C7.86425 10.0237 7.519 9.81967 7.06844 9.55336C6.60859 9.28155 6.03904 8.94491 5.33266 8.526L4.34783 7.94197V9.08696V35.9565V35.9686L4.34827 35.9807C4.41473 37.775 4.59855 39.0014 4.87637 40.0172C5.12899 40.9408 5.45587 41.6733 5.80446 42.4545C5.83747 42.5285 5.87068 42.6029 5.90404 42.6779L5.90402 42.6779L5.90628 42.6829C6.19221 43.312 6.56689 43.9315 6.90943 44.4596C4.9639 47.9731 4.34783 51.97 4.34783 56.5652C4.34783 57.1198 4.58725 57.7488 4.90406 58.2288C5.06719 58.476 5.27125 58.7155 5.51214 58.8994C5.75024 59.0813 6.06571 59.2391 6.43478 59.2391H16.0533C16.5415 60.2764 17.2327 61.24 18.0303 62.0396C18.9424 63.0192 20.065 63.7902 21.3288 64.2817C22.5657 64.7627 23.8198 65.0435 25.2174 65.0435C27.9461 65.0435 30.4521 63.9227 32.3875 62.0564L32.3876 62.0565L32.3959 62.0481C33.2135 61.2306 33.8513 60.257 34.3643 59.2391H44C44.3568 59.2391 44.6704 59.0951 44.9142 58.9216C45.1612 58.7458 45.3748 58.5136 45.5467 58.2658C45.8746 57.7932 46.1251 57.1529 46.087 56.5427C46.0849 51.9597 45.4685 47.9722 43.5289 44.466C43.9058 43.8973 44.2423 43.303 44.532 42.6103C44.5539 42.5627 44.5758 42.5153 44.5977 42.4681C44.9584 41.6881 45.2975 40.955 45.558 40.0104C45.8363 39.0017 46.0201 37.7746 46.0865 35.9807ZM26.4234 10.9231C26.4544 11.7594 26.4527 12.7328 26.4161 13.8427C26.3677 15.3134 26.259 17.0038 26.0912 18.9015C25.9579 17.1477 25.9182 15.2626 26.0626 13.645L26.0627 13.645L26.0631 13.639C26.1259 12.8547 26.2341 11.8801 26.4234 10.9231ZM11.5262 48.8727C12.1539 49.372 12.9305 49.7591 13.673 50.0607C14.4383 50.3717 15.2246 50.6136 15.8851 50.798C15.4293 51.8848 15.175 53.0434 15.1201 54.2413C14.8668 54.2268 14.6166 54.2137 14.3688 54.2006C13.1767 54.1381 12.0388 54.0783 10.8757 53.8846C10.9064 53.614 10.9367 53.3197 10.9692 53.0045C11.0873 51.8596 11.2339 50.4384 11.5262 48.8727ZM38.7081 25.0442C39.1261 22.5886 39.9254 20.2504 41.5217 18.1085V32.6304C41.5217 36.1962 41.0504 38.4543 40.3237 40.0171C39.7337 38.8882 38.9872 37.626 37.3709 36.5836C37.5776 33.3512 38.0238 28.7773 38.7067 25.0524L38.7068 25.0524L38.7081 25.0442ZM10.1547 39.9704C9.44035 38.4094 8.97826 36.1608 8.97826 32.6304V18.1085C10.5744 20.2501 11.3736 22.5879 11.7917 25.0431C12.4134 28.774 12.9156 33.3998 13.0697 36.5638C11.4146 37.5539 10.6977 38.8072 10.1547 39.9704ZM39.6267 53.8858C38.214 54.1286 36.7973 54.2048 35.3807 54.2588C35.3274 53.0535 35.0724 51.8878 34.6135 50.7948C35.2774 50.6042 36.0646 50.352 36.831 50.0346C37.5724 49.7276 38.3459 49.3395 38.9708 48.8539C39.2716 50.453 39.4195 51.8921 39.5394 53.058C39.5696 53.3519 39.598 53.6284 39.6267 53.8858ZM25.2174 44.5C24.7095 44.5 24.2264 44.5434 23.7484 44.6164L25.2174 40.596L26.6864 44.6164C26.2084 44.5434 25.7253 44.5 25.2174 44.5Z" fill="url(#paint0_linear_63_1023)" stroke="white" stroke-width="1.30435"></path>
    <path fill-rule="evenodd" clip-rule="evenodd" d="M26.9358 7.22231C25.917 8.6724 25.5816 11.4543 25.4161 13.1909C25.0119 17.4316 25.8693 23.4261 26.4306 24.4336L24.1573 24.5801L23.9769 8.35753L25.5285 5.57442L26.9358 7.22231Z" fill="url(#paint1_linear_63_1023)"></path>
    <path fill-rule="evenodd" clip-rule="evenodd" d="M25.2172 37.3054L20.7969 46.8265L22.4387 46.0026L25.2172 38.3486L27.9956 46.0026L29.6373 46.8265L25.2172 37.3054Z" fill="url(#paint2_linear_63_1023)"></path>
    <path fill-rule="evenodd" clip-rule="evenodd" d="M25.2175 3.63467C23.777 5.1226 22.8247 7.01881 22.7197 9.25345C22.5691 12.4574 22.9553 16.1026 23.1691 19.7304C23.5135 25.574 24.0798 31.6257 22.0394 37.271C21.5062 38.7465 21.1149 40.404 20.3703 42.1788C19.1126 45.1767 17.1624 48.108 16.5754 50.7083L21.5009 46.0209L25.2175 37.8199L28.9341 46.0209L33.8595 50.7083C33.2725 48.108 31.3223 45.1767 30.0646 42.1788C29.32 40.404 28.9287 38.7465 28.3955 37.271C26.3551 31.6257 26.9214 25.574 27.2658 19.7304C27.4796 16.1026 27.8659 12.4574 27.7153 9.25345C27.6103 7.01881 26.658 5.1226 25.2175 3.63467ZM25.8947 6.3248C26.2547 6.31337 26.4634 6.72951 26.6781 7.38885C27.4215 9.67126 27.2045 15.5261 26.1478 24.14C24.2391 19.2759 24.4261 10.9989 25.1964 7.89346C25.3652 7.21303 25.5356 6.36206 25.8947 6.3248Z" fill="url(#paint3_linear_63_1023)"></path>
    <path fill-rule="evenodd" clip-rule="evenodd" d="M13.3098 17.1279C15.3972 19.7043 16.2928 28.3365 17.0313 35.425L13.7771 36.828C13.6116 33.6 13.1268 28.5982 12.4241 24.5802C11.8512 21.3045 10.6756 18.1837 7.83215 15.4913L9.56717 13.601L13.3098 17.1279Z" fill="url(#paint4_linear_63_1023)"></path>
    <path fill-rule="evenodd" clip-rule="evenodd" d="M5 8.73299L5.00001 35.5884L5.2884 37.3406L7.36321 42.2055L11.3077 47.3651C12.4385 48.8441 15.559 49.6528 16.9802 50.0416L18.2678 46.7714C17.5612 46.7027 16.6247 46.6729 16.2521 46.5124C13.5157 44.9211 11.2382 43.3137 9.68261 40.1745C8.83385 38.4616 8.30637 36.0459 8.31699 32.2774V15.857C8.63209 13.0425 11.2883 15.7435 13.3944 17.1486C12.1698 15.0667 10.616 12.0402 5 8.73299Z" fill="url(#paint5_linear_63_1023)"></path>
    <path fill-rule="evenodd" clip-rule="evenodd" d="M5 35.5884C5.63465 38.8775 7.78023 42.0952 10.2922 43.939C11.5934 44.8941 12.9968 45.7344 14.5061 46.1671C15.7068 46.5113 16.8728 46.8411 17.954 47.1829L17.2217 48.8041C15.5859 48.7888 13.9729 48.7129 12.6189 48.0701C10.0563 46.8536 7.8787 44.9887 6.50388 42.0153C5.70128 40.2794 5.12125 39.1293 5 35.5884Z" fill="url(#paint6_linear_63_1023)"></path>
    <path fill-rule="evenodd" clip-rule="evenodd" d="M15.7364 37.5985C14.0043 39.3301 12.9446 41.4353 12.1587 43.5344C10.5759 47.7621 10.3967 52.0766 10.1344 54.0499C12.1941 54.4737 14.222 54.4774 16.2596 54.6083V55.8992H7.19421L9.03129 44.7258L13.8026 38.7702L15.7364 37.5985Z" fill="url(#paint7_radial_63_1023)"></path>
    <path fill-rule="evenodd" clip-rule="evenodd" d="M17.0313 35.4251C12.1753 36.5265 11.3701 38.6616 10.4061 40.6333L15.0071 37.8448C15.6237 37.4711 16.4422 37.135 17.1835 36.9835L17.0313 35.4251Z" fill="url(#paint8_linear_63_1023)"></path>
    <path fill-rule="evenodd" clip-rule="evenodd" d="M17.1627 36.9941C13.9037 37.9295 11.6554 39.2981 10.0878 40.946C6.12381 45.1131 4.9728 50.0079 5.01156 56.2053C5.00066 56.997 5.72658 58.2074 6.47116 58.197L17.2439 58.1786L16.0532 54.7913L9.16118 54.773C8.46129 54.8251 8.56006 53.9766 8.71013 53.0702C9.84369 46.3124 12.7844 38.2104 17.1627 36.9941Z" fill="url(#paint9_linear_63_1023)"></path>
    <path fill-rule="evenodd" clip-rule="evenodd" d="M37.1248 17.1279C35.0374 19.7043 34.1418 28.3365 33.4033 35.425L36.6574 36.828C36.823 33.6 37.3078 28.5982 38.0105 24.5802C38.5834 21.3045 39.759 18.1837 42.6024 15.4913L40.8674 13.601L37.1248 17.1279Z" fill="url(#paint10_linear_63_1023)"></path>
    <path fill-rule="evenodd" clip-rule="evenodd" d="M45.4347 8.73299L45.4347 35.5884L45.1463 37.3406L43.0715 42.2055L39.127 47.3651C37.9962 48.8441 34.8757 49.6528 33.4545 50.0416L32.1669 46.7714C32.8735 46.7027 33.81 46.6729 34.1826 46.5124C36.919 44.9211 39.1965 43.3137 40.7521 40.1745C41.6008 38.4616 42.1283 36.0459 42.1177 32.2774V15.857C41.8026 13.0425 39.1464 15.7435 37.0403 17.1486C38.2649 15.0667 39.8186 12.0402 45.4347 8.73299Z" fill="url(#paint11_linear_63_1023)"></path>
    <path fill-rule="evenodd" clip-rule="evenodd" d="M45.4347 35.5884C44.8 38.8775 42.6545 42.0952 40.1425 43.939C38.8413 44.8941 37.4379 45.7344 35.9286 46.1671C34.7279 46.5113 33.5618 46.8411 32.4807 47.1829L33.213 48.8041C34.8488 48.7888 36.4618 48.7129 37.8157 48.0701C40.3784 46.8536 42.556 44.9887 43.9308 42.0153C44.7334 40.2794 45.3134 39.1293 45.4347 35.5884Z" fill="url(#paint12_linear_63_1023)"></path>
    <path fill-rule="evenodd" clip-rule="evenodd" d="M34.6982 37.5985C36.4303 39.3301 37.49 41.4353 38.2759 43.5344C39.8586 47.7621 40.0379 52.0766 40.3002 54.0499C38.2405 54.4737 36.2125 54.4774 34.175 54.6083V55.8992H43.2404L41.4033 44.7258L36.632 38.7702L34.6982 37.5985Z" fill="url(#paint13_radial_63_1023)"></path>
    <path fill-rule="evenodd" clip-rule="evenodd" d="M33.4032 35.4251C38.2592 36.5265 39.0645 38.6616 40.0284 40.6333L35.4275 37.8448C34.8109 37.4711 33.9923 37.135 33.2511 36.9835L33.4032 35.4251Z" fill="url(#paint14_linear_63_1023)"></path>
    <path fill-rule="evenodd" clip-rule="evenodd" d="M33.2717 36.9942C36.5307 37.9296 38.7791 39.2982 40.3466 40.9461C44.3106 45.1132 45.4617 50.008 45.4229 56.2054C45.4338 56.9971 44.7079 58.2075 43.9633 58.1971L33.1905 58.1788L34.3813 54.7914L41.2733 54.7731C41.9732 54.8252 41.8744 53.9767 41.7243 53.0703C40.5908 46.3125 37.65 38.2105 33.2717 36.9942Z" fill="url(#paint15_linear_63_1023)"></path>
    <path d="M34.6859 54.3842C34.6859 56.9345 33.6884 59.3803 31.9127 61.1836C30.1371 62.9869 27.7288 64 25.2176 64C23.9742 64 22.743 63.7513 21.5942 63.268C20.4455 62.7848 19.4017 62.0765 18.5225 61.1836C17.6433 60.2907 16.9458 59.2306 16.47 58.064C15.9942 56.8974 15.7493 55.647 15.7493 54.3842C15.7493 51.8339 16.7468 49.3881 18.5225 47.5848C20.2981 45.7815 22.7064 44.7684 25.2176 44.7684C27.7288 44.7684 30.1371 45.7815 31.9127 47.5848C33.6884 49.3881 34.6859 51.8339 34.6859 54.3842Z" fill="#2B4B7B"></path>
    <path fill-rule="evenodd" clip-rule="evenodd" d="M23.3166 46.4607C19.4613 47.3886 18.0439 50.1953 17.2583 52.3602C16.2581 55.1165 16.8091 58.0814 17.5787 60.0461C18.1112 60.7866 18.7453 61.446 19.4617 62.0041L21.0968 60.7542C19.8237 59.6453 18.8541 58.5765 19.1321 57.6729L24.0821 48.1439L23.3166 46.4607Z" fill="url(#paint16_linear_63_1023)"></path>
    <path fill-rule="evenodd" clip-rule="evenodd" d="M30.3739 46.3297C32.1871 50.555 32.4665 53.5648 31.9009 54.8605L25.1295 62.055C32.0083 61.4692 34.5435 57.7404 33.8524 50.4683C33.1094 48.7774 31.9016 47.3404 30.3739 46.3297Z" fill="url(#paint17_linear_63_1023)"></path>
    <path d="M32.0896 54.3842C32.0896 56.2352 31.3656 58.0103 30.0768 59.3192C28.788 60.628 27.0401 61.3633 25.2175 61.3633C23.3949 61.3633 21.6469 60.628 20.3581 59.3192C19.0694 58.0103 18.3453 56.2352 18.3453 54.3842C18.3453 52.5332 19.0694 50.758 20.3581 49.4492C21.6469 48.1403 23.3949 47.405 25.2175 47.405C27.0401 47.405 28.788 48.1403 30.0768 49.4492C31.3656 50.758 32.0896 52.5332 32.0896 54.3842Z" fill="url(#paint18_linear_63_1023)"></path>
    <path d="M31.2603 54.3842C31.2603 56.0118 30.6236 57.5728 29.4904 58.7237C28.3571 59.8745 26.8201 60.5211 25.2175 60.5211C24.4239 60.5211 23.6382 60.3624 22.905 60.054C22.1719 59.7456 21.5057 59.2935 20.9446 58.7237C20.3835 58.1538 19.9383 57.4773 19.6347 56.7327C19.331 55.9881 19.1747 55.1901 19.1747 54.3842C19.1747 53.5783 19.331 52.7803 19.6347 52.0357C19.9383 51.2912 20.3835 50.6146 20.9446 50.0448C21.5057 49.4749 22.1719 49.0229 22.905 48.7145C23.6382 48.4061 24.4239 48.2473 25.2175 48.2473C26.8201 48.2473 28.3571 48.8939 29.4904 50.0448C30.6236 51.1957 31.2603 52.7566 31.2603 54.3842Z" fill="white"></path>
    <path fill-rule="evenodd" clip-rule="evenodd" d="M20.6892 51.6053L21.898 51.4772L22.0153 53.4455L20.7614 54.9652L19.9675 54.1779C19.9331 53.289 20.1472 52.4455 20.6892 51.6053Z" fill="url(#paint19_linear_63_1023)"></path>
    <path fill-rule="evenodd" clip-rule="evenodd" d="M21.3117 56.7137L23.17 57.1532L24.2615 58.8102L23.2872 59.3595C22.4275 58.9716 21.7113 58.4382 21.1403 57.7574L21.3117 56.7137Z" fill="url(#paint20_linear_63_1023)"></path>
    <path fill-rule="evenodd" clip-rule="evenodd" d="M25.2177 52.3662L23.188 53.8757L23.9727 56.1644H26.4625L27.2474 53.8757L25.2177 52.3662Z" fill="url(#paint21_linear_63_1023)"></path>
    <path fill-rule="evenodd" clip-rule="evenodd" d="M25.2177 49.0556C24.768 49.0556 24.2609 49.106 23.8686 49.1981L23.3201 50.4481L25.2177 51.1583L27.1153 50.4481L26.5667 49.1981C26.1745 49.106 25.6674 49.0556 25.2177 49.0556Z" fill="url(#paint22_linear_63_1023)"></path>
    <path fill-rule="evenodd" clip-rule="evenodd" d="M29.7462 51.6053L28.5374 51.4772L28.4202 53.4455L29.6741 54.9652L30.4679 54.1779C30.5023 53.289 30.2882 52.4455 29.7462 51.6053Z" fill="url(#paint23_linear_63_1023)"></path>
    <path fill-rule="evenodd" clip-rule="evenodd" d="M29.1237 56.7137L27.2654 57.1532L26.1738 58.8102L27.1481 59.3595C28.0078 58.9716 28.724 58.4382 29.2951 57.7574L29.1237 56.7137Z" fill="url(#paint24_linear_63_1023)"></path>
    <defs>
      <linearGradient id="paint0_linear_63_1023" x1="-78.2065" y1="35.6818" x2="59.5857" y2="33.6851" gradientUnits="userSpaceOnUse">
        <stop stop-color="#4172B8"></stop>
        <stop offset="0.2695" stop-color="#3A67A4"></stop>
        <stop offset="0.5049" stop-color="#345B93"></stop>
        <stop offset="0.755" stop-color="#2C4E7F"></stop>
        <stop offset="1" stop-color="#2B4B7B"></stop>
      </linearGradient>
      <linearGradient id="paint1_linear_63_1023" x1="29.7747" y1="6.22129" x2="29.9849" y2="24.2435" gradientUnits="userSpaceOnUse">
        <stop stop-color="#C98B2B"></stop>
        <stop offset="0.181732" stop-color="#D6A02D"></stop>
        <stop offset="0.586063" stop-color="#F5DB33"></stop>
        <stop offset="1" stop-color="#F9E736"></stop>
      </linearGradient>
      <linearGradient id="paint2_linear_63_1023" x1="25.3862" y1="46.7196" x2="25.2811" y2="37.9156" gradientUnits="userSpaceOnUse">
        <stop stop-color="#DAA62E"></stop>
        <stop offset="0.129848" stop-color="#D8A32E"></stop>
        <stop offset="0.311467" stop-color="#CF952C"></stop>
        <stop offset="0.558347" stop-color="#C98B2B"></stop>
        <stop offset="0.779089" stop-color="#C7872B"></stop>
        <stop offset="1" stop-color="#C6872B"></stop>
      </linearGradient>
      <linearGradient id="paint3_linear_63_1023" x1="25.3865" y1="50.8626" x2="25.1763" y2="3.9426" gradientUnits="userSpaceOnUse">
        <stop stop-color="#36609A"></stop>
        <stop offset="0.0573745" stop-color="#365F99"></stop>
        <stop offset="0.132457" stop-color="#365F99"></stop>
        <stop offset="0.267103" stop-color="#335991"></stop>
        <stop offset="0.408361" stop-color="#2F5488"></stop>
        <stop offset="0.657873" stop-color="#2B4B7B"></stop>
        <stop offset="1" stop-color="#2B4B7B"></stop>
      </linearGradient>
      <linearGradient id="paint4_linear_63_1023" x1="24.8927" y1="36.4082" x2="24.8927" y2="14.2898" gradientUnits="userSpaceOnUse">
        <stop stop-color="#F9E736"></stop>
        <stop offset="0.251656" stop-color="#F8E435"></stop>
        <stop offset="0.496689" stop-color="#F5DA33"></stop>
        <stop offset="0.754967" stop-color="#F2CE30"></stop>
        <stop offset="0.81457" stop-color="#E5B92F"></stop>
        <stop offset="0.900662" stop-color="#D39B2D"></stop>
        <stop offset="1" stop-color="#C98C2B"></stop>
      </linearGradient>
      <linearGradient id="paint5_linear_63_1023" x1="5.07655" y1="32.6332" x2="18.1402" y2="32.5327" gradientUnits="userSpaceOnUse">
        <stop stop-color="#4071B6"></stop>
        <stop offset="0.156363" stop-color="#3C6AA9"></stop>
        <stop offset="0.390784" stop-color="#38639F"></stop>
        <stop offset="0.672017" stop-color="#345C94"></stop>
        <stop offset="0.859323" stop-color="#2B4B7B"></stop>
        <stop offset="1" stop-color="#2C4E7F"></stop>
      </linearGradient>
      <linearGradient id="paint6_linear_63_1023" x1="4.97448" y1="42.1622" x2="17.9106" y2="42.0365" gradientUnits="userSpaceOnUse">
        <stop stop-color="#C7872B"></stop>
        <stop offset="0.20788" stop-color="#CD922C"></stop>
        <stop offset="0.39977" stop-color="#F2CF30"></stop>
        <stop offset="0.616029" stop-color="#F3D131"></stop>
        <stop offset="0.816106" stop-color="#F4D632"></stop>
        <stop offset="0.885593" stop-color="#F1C930"></stop>
        <stop offset="0.950715" stop-color="#D8A32E"></stop>
        <stop offset="1" stop-color="#D29A2D"></stop>
      </linearGradient>
      <radialGradient id="paint7_radial_63_1023" cx="0" cy="0" r="1" gradientUnits="userSpaceOnUse" gradientTransform="translate(8.54651 55.0058) rotate(-89.3198) scale(17.1949 9.01642)">
        <stop stop-color="#D7A12D"></stop>
        <stop offset="0.18828" stop-color="#F9E736"></stop>
        <stop offset="0.707589" stop-color="#F9E736"></stop>
        <stop offset="1" stop-color="#F9E736"></stop>
      </radialGradient>
      <linearGradient id="paint8_linear_63_1023" x1="10.2816" y1="37.5014" x2="17.1198" y2="37.7026" gradientUnits="userSpaceOnUse">
        <stop stop-color="#F5D532" stop-opacity="0.862745"></stop>
        <stop offset="0.238975" stop-color="#F3D231"></stop>
        <stop offset="0.403118" stop-color="#F2CF30"></stop>
        <stop offset="0.716481" stop-color="#E0B02F"></stop>
        <stop offset="1" stop-color="#D39B2D"></stop>
      </linearGradient>
      <linearGradient id="paint9_linear_63_1023" x1="11.2011" y1="36.9834" x2="11.2011" y2="57.8022" gradientUnits="userSpaceOnUse">
        <stop stop-color="#4274BB"></stop>
        <stop offset="0.298508" stop-color="#3C6AAA"></stop>
        <stop offset="0.741294" stop-color="#2F5488"></stop>
        <stop offset="0.895522" stop-color="#2B4B7B"></stop>
        <stop offset="1" stop-color="#2B4B7B"></stop>
      </linearGradient>
      <linearGradient id="paint10_linear_63_1023" x1="25.5419" y1="36.4082" x2="25.5419" y2="14.2898" gradientUnits="userSpaceOnUse">
        <stop stop-color="#F9E736"></stop>
        <stop offset="0.251656" stop-color="#F8E435"></stop>
        <stop offset="0.496689" stop-color="#F5DA33"></stop>
        <stop offset="0.754967" stop-color="#F2CE30"></stop>
        <stop offset="0.81457" stop-color="#E5B92F"></stop>
        <stop offset="0.900662" stop-color="#D39B2D"></stop>
        <stop offset="1" stop-color="#C98C2B"></stop>
      </linearGradient>
      <linearGradient id="paint11_linear_63_1023" x1="45.3581" y1="32.6332" x2="32.2944" y2="32.5327" gradientUnits="userSpaceOnUse">
        <stop stop-color="#4071B6"></stop>
        <stop offset="0.156363" stop-color="#3C6AA9"></stop>
        <stop offset="0.390784" stop-color="#38639F"></stop>
        <stop offset="0.672017" stop-color="#345C94"></stop>
        <stop offset="0.859323" stop-color="#2B4B7B"></stop>
        <stop offset="1" stop-color="#2C4E7F"></stop>
      </linearGradient>
      <linearGradient id="paint12_linear_63_1023" x1="45.4602" y1="42.1622" x2="32.5241" y2="42.0365" gradientUnits="userSpaceOnUse">
        <stop stop-color="#C7872B"></stop>
        <stop offset="0.20788" stop-color="#CD922C"></stop>
        <stop offset="0.39977" stop-color="#F2CF30"></stop>
        <stop offset="0.616029" stop-color="#F3D131"></stop>
        <stop offset="0.816106" stop-color="#F4D632"></stop>
        <stop offset="0.885593" stop-color="#F1C930"></stop>
        <stop offset="0.950715" stop-color="#D8A32E"></stop>
        <stop offset="1" stop-color="#D29A2D"></stop>
      </linearGradient>
      <radialGradient id="paint13_radial_63_1023" cx="0" cy="0" r="1" gradientUnits="userSpaceOnUse" gradientTransform="translate(41.8881 55.0058) rotate(-90.6802) scale(17.1949 9.01642)">
        <stop stop-color="#D7A12D"></stop>
        <stop offset="0.18828" stop-color="#F9E736"></stop>
        <stop offset="0.707589" stop-color="#F9E736"></stop>
        <stop offset="1" stop-color="#F9E736"></stop>
      </radialGradient>
      <linearGradient id="paint14_linear_63_1023" x1="40.1529" y1="37.5014" x2="33.3147" y2="37.7026" gradientUnits="userSpaceOnUse">
        <stop stop-color="#F5D532" stop-opacity="0.862745"></stop>
        <stop offset="0.238975" stop-color="#F3D231"></stop>
        <stop offset="0.403118" stop-color="#F2CF30"></stop>
        <stop offset="0.716481" stop-color="#E0B02F"></stop>
        <stop offset="1" stop-color="#D39B2D"></stop>
      </linearGradient>
      <linearGradient id="paint15_linear_63_1023" x1="39.2333" y1="36.9835" x2="39.2333" y2="57.8024" gradientUnits="userSpaceOnUse">
        <stop stop-color="#4274BB"></stop>
        <stop offset="0.298508" stop-color="#3C6AAA"></stop>
        <stop offset="0.741294" stop-color="#2F5488"></stop>
        <stop offset="0.895522" stop-color="#2B4B7B"></stop>
        <stop offset="1" stop-color="#2B4B7B"></stop>
      </linearGradient>
      <linearGradient id="paint16_linear_63_1023" x1="20.3463" y1="62.1154" x2="20.495" y2="46.6619" gradientUnits="userSpaceOnUse">
        <stop stop-color="#2B4B7B"></stop>
        <stop offset="0.156519" stop-color="#2E5285"></stop>
        <stop offset="0.383897" stop-color="#37629D"></stop>
        <stop offset="0.511713" stop-color="#3F6FB3"></stop>
        <stop offset="0.625581" stop-color="#3B68A6"></stop>
        <stop offset="0.815183" stop-color="#345B93"></stop>
        <stop offset="1" stop-color="#2B4B7B"></stop>
      </linearGradient>
      <linearGradient id="paint17_linear_63_1023" x1="29.8264" y1="61.8935" x2="29.7213" y2="46.3053" gradientUnits="userSpaceOnUse">
        <stop stop-color="#2B4B7B"></stop>
        <stop offset="0.209293" stop-color="#38639F"></stop>
        <stop offset="0.411942" stop-color="#3C69A8"></stop>
        <stop offset="0.493204" stop-color="#3E6DB0"></stop>
        <stop offset="0.571425" stop-color="#38639F"></stop>
        <stop offset="0.810662" stop-color="#2E5183"></stop>
        <stop offset="1" stop-color="#2B4B7B"></stop>
      </linearGradient>
      <linearGradient id="paint18_linear_63_1023" x1="24.8763" y1="47.341" x2="25.0865" y2="61.1166" gradientUnits="userSpaceOnUse">
        <stop stop-color="#F9E736"></stop>
        <stop offset="0.195445" stop-color="#F9E736"></stop>
        <stop offset="0.473464" stop-color="#F5D933"></stop>
        <stop offset="0.774374" stop-color="#E2B22F"></stop>
        <stop offset="1" stop-color="#C7872B"></stop>
      </linearGradient>
      <linearGradient id="paint19_linear_63_1023" x1="19.9776" y1="54.1252" x2="30.3878" y2="54.2761" gradientUnits="userSpaceOnUse">
        <stop stop-color="#4172B8"></stop>
        <stop offset="0.269477" stop-color="#3A67A4"></stop>
        <stop offset="0.504937" stop-color="#345B93"></stop>
        <stop offset="0.755027" stop-color="#2C4E7F"></stop>
        <stop offset="1" stop-color="#2B4B7B"></stop>
      </linearGradient>
      <linearGradient id="paint20_linear_63_1023" x1="19.9776" y1="54.1251" x2="30.3878" y2="54.276" gradientUnits="userSpaceOnUse">
        <stop stop-color="#4172B8"></stop>
        <stop offset="0.269477" stop-color="#3A67A4"></stop>
        <stop offset="0.504937" stop-color="#345B93"></stop>
        <stop offset="0.755027" stop-color="#2C4E7F"></stop>
        <stop offset="1" stop-color="#2B4B7B"></stop>
      </linearGradient>
      <linearGradient id="paint21_linear_63_1023" x1="19.9775" y1="54.1251" x2="30.3877" y2="54.276" gradientUnits="userSpaceOnUse">
        <stop stop-color="#4172B8"></stop>
        <stop offset="0.269477" stop-color="#3A67A4"></stop>
        <stop offset="0.504937" stop-color="#345B93"></stop>
        <stop offset="0.755027" stop-color="#2C4E7F"></stop>
        <stop offset="1" stop-color="#2B4B7B"></stop>
      </linearGradient>
      <linearGradient id="paint22_linear_63_1023" x1="19.9776" y1="54.1251" x2="30.3877" y2="54.2759" gradientUnits="userSpaceOnUse">
        <stop stop-color="#4172B8"></stop>
        <stop offset="0.269477" stop-color="#3A67A4"></stop>
        <stop offset="0.504937" stop-color="#345B93"></stop>
        <stop offset="0.755027" stop-color="#2C4E7F"></stop>
        <stop offset="1" stop-color="#2B4B7B"></stop>
      </linearGradient>
      <linearGradient id="paint23_linear_63_1023" x1="19.9776" y1="54.1252" x2="30.3878" y2="54.2761" gradientUnits="userSpaceOnUse">
        <stop stop-color="#4172B8"></stop>
        <stop offset="0.269477" stop-color="#3A67A4"></stop>
        <stop offset="0.504937" stop-color="#345B93"></stop>
        <stop offset="0.755027" stop-color="#2C4E7F"></stop>
        <stop offset="1" stop-color="#2B4B7B"></stop>
      </linearGradient>
      <linearGradient id="paint24_linear_63_1023" x1="19.9775" y1="54.1251" x2="30.3877" y2="54.276" gradientUnits="userSpaceOnUse">
        <stop stop-color="#4172B8"></stop>
        <stop offset="0.269477" stop-color="#3A67A4"></stop>
        <stop offset="0.504937" stop-color="#345B93"></stop>
        <stop offset="0.755027" stop-color="#2C4E7F"></stop>
        <stop offset="1" stop-color="#2B4B7B"></stop>
      </linearGradient>
    </defs>
  </symbol>
  <symbol fill="none" xmlns="http://www.w3.org/2000/svg" viewBox="0 0 18 18" id="add-video">
    <path d="M12.2344 8.4375H9.5625V5.76562C9.5625 5.68828 9.49922 5.625 9.42188 5.625H8.57812C8.50078 5.625 8.4375 5.68828 8.4375 5.76562V8.4375H5.76562C5.68828 8.4375 5.625 8.50078 5.625 8.57812V9.42188C5.625 9.49922 5.68828 9.5625 5.76562 9.5625H8.4375V12.2344C8.4375 12.3117 8.50078 12.375 8.57812 12.375H9.42188C9.49922 12.375 9.5625 12.3117 9.5625 12.2344V9.5625H12.2344C12.3117 9.5625 12.375 9.49922 12.375 9.42188V8.57812C12.375 8.50078 12.3117 8.4375 12.2344 8.4375Z" fill="white"></path>
    <path d="M9 1.125C4.65117 1.125 1.125 4.65117 1.125 9C1.125 13.3488 4.65117 16.875 9 16.875C13.3488 16.875 16.875 13.3488 16.875 9C16.875 4.65117 13.3488 1.125 9 1.125ZM9 15.5391C5.38945 15.5391 2.46094 12.6105 2.46094 9C2.46094 5.38945 5.38945 2.46094 9 2.46094C12.6105 2.46094 15.5391 5.38945 15.5391 9C15.5391 12.6105 12.6105 15.5391 9 15.5391Z" fill="white"></path>
  </symbol>
  <symbol xmlns="http://www.w3.org/2000/svg" viewBox="0 0 13 12" id="back-video">
    <path d="M7 12L7 7L13 7L13 5L7 5L7 -2.62268e-07L-2.62268e-07 6L7 12Z"></path>
  </symbol>
  <symbol xmlns="http://www.w3.org/2000/svg" viewBox="0 0 13 12" id="next-video">
    <path d="M6 -2.62268e-07L6 5L-3.0598e-07 5L-2.18557e-07 7L6 7L6 12L13 6L6 -2.62268e-07Z"></path>
  </symbol>
  <symbol xmlns="http://www.w3.org/2000/svg" viewBox="0 0 16 13" id="next">
    <path d="M5 13H8V11H5C3.346 11 2 9.654 2 8C2 6.346 3.346 5 5 5H11V8L16 4L11 0V3H5C2.243 3 0 5.243 0 8C0 10.757 2.243 13 5 13Z" ></path>
  </symbol>
  <symbol xmlns="http://www.w3.org/2000/svg" viewBox="0 0 16 13" id="back">
    <path d="M11 13H8V11H11C12.654 11 14 9.654 14 8C14 6.346 12.654 5 11 5H5V8L0 4L5 0V3H11C13.757 3 16 5.243 16 8C16 10.757 13.757 13 11 13Z"></path>
  </symbol>
  <symbol xmlns="http://www.w3.org/2000/svg" viewBox="0 0 20 20" id="graph">
    <path d="M10 0C4.48 0 0 4.48 0 10C0 15.52 4.48 20 10 20C15.52 20 20 15.52 20 10C20 4.48 15.52 0 10 0ZM11 3.3L12.35 2.35C14.17 2.91 15.72 4.11 16.73 5.69L16.34 7.03L14.99 7.49L11 4.7V3.3ZM7.65 2.35L9 3.3V4.7L5.01 7.49L3.66 7.03L3.27 5.69C4.28 4.12 5.83 2.92 7.65 2.35ZM5.08 15.11L3.94 15.21C2.73 13.81 2 11.99 2 10C2 9.88 2.01 9.77 2.02 9.65L3.02 8.92L4.4 9.4L5.86 13.74L5.08 15.11ZM12.5 17.59C11.71 17.85 10.87 18 10 18C9.13 18 8.29 17.85 7.5 17.59L6.81 16.1L7.45 15H12.56L13.2 16.11L12.5 17.59ZM12.27 13H7.73L6.38 8.98L10 6.44L13.63 8.98L12.27 13ZM16.06 15.21L14.92 15.11L14.13 13.74L15.59 9.4L16.98 8.93L17.98 9.66C17.99 9.77 18 9.88 18 10C18 11.99 17.27 13.81 16.06 15.21Z"></path>
  </symbol>
  <symbol xmlns="http://www.w3.org/2000/svg" viewBox="0 0 22 22" id="texts">
    <path d="M22 6V0H16V2H6V0H0V6H2V16H0V22H6V20H16V22H22V16H20V6H22ZM2 2H4V4H2V2ZM4 20H2V18H4V20ZM16 18H6V16H4V6H6V4H16V6H18V16H16V18ZM20 20H18V18H20V20ZM18 4V2H20V4H18ZM12.73 13H9.24L8.51 15H6.89L10.29 6H11.69L15.1 15H13.47L12.73 13ZM9.69 11.74H12.3L11 7.91L9.69 11.74Z" ></path>
  </symbol>
  <symbol xmlns="http://www.w3.org/2000/svg" viewBox="0 0 24 16" id="forms">
    <path d="M24.0003 6.32969H14.6337V15.6957H24.0003V6.32969Z" ></path>
    <path d="M12.889 10.843V4.81551H18.3975C18.0826 2.13126 15.8043 0.0476074 13.0362 0.0476074C10.1189 0.0476074 7.74819 2.36147 7.64454 5.25302L11.1236 10.4903C11.6755 10.6997 12.2681 10.8262 12.889 10.843Z" ></path>
    <path d="M6.56271 6.07301L0 15.9524H13.1262L6.56271 6.07301Z" ></path>
  </symbol>
  <symbol xmlns="http://www.w3.org/2000/svg" viewBox="0 0 18 20" id="line">
    <path d="M6.78 9.16L5.36 10.58C4.68 9.89 4.02 9 3.57 7.64L5.51 7.15C5.83 8.04 6.28 8.65 6.78 9.16ZM8 4L4 0L0 4H3.02C3.04 4.81 3.1 5.54 3.21 6.17L5.15 5.68C5.08 5.2 5.03 4.63 5.02 4H8ZM18 4L14 0L10 4H12.99C12.89 7.68 11.71 8.75 10.45 9.88C9.95 10.32 9.44 10.8 9 11.43C8.66 10.94 8.27 10.55 7.87 10.19L6.46 11.6C7.39 12.45 8 13.14 8 15V20H10V15C10 12.98 10.71 12.34 11.79 11.37C13.17 10.13 14.87 8.59 14.99 4H18Z" ></path>
  </symbol>
  <symbol xmlns="http://www.w3.org/2000/svg" viewBox="0 0 12 12" id="close">
    <path d="M7.31406 5.89994L10.8491 2.36394C10.9446 2.27169 11.0208 2.16135 11.0732 2.03935C11.1256 1.91734 11.1532 1.78612 11.1543 1.65334C11.1555 1.52056 11.1302 1.38888 11.0799 1.26599C11.0296 1.14309 10.9554 1.03144 10.8615 0.937546C10.7676 0.843654 10.6559 0.769401 10.533 0.71912C10.4101 0.668839 10.2784 0.643537 10.1457 0.644691C10.0129 0.645845 9.88166 0.673431 9.75966 0.72584C9.63766 0.778249 9.52731 0.854431 9.43506 0.949941L5.89906 4.48494L2.36406 0.949941C2.27182 0.854431 2.16147 0.778249 2.03947 0.72584C1.91746 0.673431 1.78624 0.645845 1.65346 0.644691C1.52069 0.643537 1.38901 0.668839 1.26611 0.71912C1.14321 0.769401 1.03156 0.843654 0.937668 0.937546C0.843776 1.03144 0.769523 1.14309 0.719242 1.26599C0.668961 1.38888 0.643659 1.52056 0.644813 1.65334C0.645967 1.78612 0.673553 1.91734 0.725962 2.03935C0.778371 2.16135 0.854553 2.27169 0.950063 2.36394L4.48506 5.89894L0.950063 9.43494C0.854553 9.52719 0.778371 9.63753 0.725962 9.75954C0.673553 9.88154 0.645967 10.0128 0.644813 10.1455C0.643659 10.2783 0.668961 10.41 0.719242 10.5329C0.769523 10.6558 0.843776 10.7674 0.937668 10.8613C1.03156 10.9552 1.14321 11.0295 1.26611 11.0798C1.38901 11.13 1.52069 11.1553 1.65346 11.1542C1.78624 11.153 1.91746 11.1255 2.03947 11.073C2.16147 11.0206 2.27182 10.9445 2.36406 10.8489L5.89906 7.31394L9.43506 10.8489C9.52731 10.9445 9.63766 11.0206 9.75966 11.073C9.88166 11.1255 10.0129 11.153 10.1457 11.1542C10.2784 11.1553 10.4101 11.13 10.533 11.0798C10.6559 11.0295 10.7676 10.9552 10.8615 10.8613C10.9554 10.7674 11.0296 10.6558 11.0799 10.5329C11.1302 10.41 11.1555 10.2783 11.1543 10.1455C11.1532 10.0128 11.1256 9.88154 11.0732 9.75954C11.0208 9.63753 10.9446 9.52719 10.8491 9.43494L7.31406 5.89894V5.89994Z" ></path>
  </symbol>
  <symbol  xmlns="http://www.w3.org/2000/svg" viewBox="0 0 14 16" id="trash">
    <path fill-rule="evenodd" clip-rule="evenodd" d="M9.75 0.999883H13.5C13.6326 0.999883 13.7598 1.05256 13.8536 1.14633C13.9473 1.2401 14 1.36727 14 1.49988V2.49988C14 2.63249 13.9473 2.75967 13.8536 2.85344C13.7598 2.9472 13.6326 2.99988 13.5 2.99988H0.5C0.367392 2.99988 0.240215 2.9472 0.146447 2.85344C0.0526784 2.75967 0 2.63249 0 2.49988V1.49988C0 1.36727 0.0526784 1.2401 0.146447 1.14633C0.240215 1.05256 0.367392 0.999883 0.5 0.999883H4.25L4.54375 0.415508C4.60492 0.290407 4.7001 0.185068 4.81838 0.11156C4.93665 0.0380515 5.07324 -0.000651921 5.2125 -0.000116591H8.78438C8.92395 -0.000216694 9.06078 0.0386316 9.17947 0.112058C9.29817 0.185484 9.39402 0.290575 9.45625 0.415508L9.75 0.999883ZM2.13252 15.5931C1.85443 15.3319 1.68635 14.9744 1.6625 14.5936L1 3.99988H13L12.3375 14.5936C12.3137 14.9744 12.1456 15.3319 11.8675 15.5931C11.5894 15.8544 11.2222 15.9998 10.8406 15.9999H3.15937C2.77781 15.9998 2.41061 15.8544 2.13252 15.5931ZM4.86954 7.7913H3.89563V12.6609H4.86954V7.7913ZM6.81738 6.81739H7.7913V13.6348H6.81738V6.81739ZM10.713 7.7913H9.73914V12.6609H10.713V7.7913Z" ></path>
  </symbol>
  <symbol  xmlns="http://www.w3.org/2000/svg" viewBox="0 0 14 18" id="exit">
    <path d="M0 9C0 9.23869 0.0921874 9.46761 0.256282 9.6364C0.420376 9.80518 0.642936 9.9 0.875 9.9H7.51625L5.50375 11.961C5.42174 12.0447 5.35664 12.1442 5.31222 12.2539C5.2678 12.3636 5.24493 12.4812 5.24493 12.6C5.24493 12.7188 5.2678 12.8364 5.31222 12.9461C5.35664 13.0558 5.42174 13.1553 5.50375 13.239C5.58509 13.3234 5.68187 13.3903 5.7885 13.436C5.89512 13.4817 6.00949 13.5052 6.125 13.5052C6.24051 13.5052 6.35488 13.4817 6.4615 13.436C6.56813 13.3903 6.66491 13.3234 6.74625 13.239L10.2463 9.639C10.3259 9.55341 10.3884 9.45248 10.43 9.342C10.5175 9.12288 10.5175 8.87712 10.43 8.658C10.3884 8.54752 10.3259 8.44659 10.2463 8.361L6.74625 4.761C6.66467 4.67709 6.56781 4.61052 6.46122 4.56511C6.35462 4.51969 6.24038 4.49632 6.125 4.49632C6.00962 4.49632 5.89538 4.51969 5.78878 4.56511C5.68219 4.61052 5.58533 4.67709 5.50375 4.761C5.42217 4.84491 5.35745 4.94454 5.3133 5.05418C5.26914 5.16382 5.24642 5.28133 5.24642 5.4C5.24642 5.51867 5.26914 5.63618 5.3133 5.74582C5.35745 5.85546 5.42217 5.95509 5.50375 6.039L7.51625 8.1H0.875C0.642936 8.1 0.420376 8.19482 0.256282 8.3636C0.0921874 8.53239 0 8.7613 0 9ZM11.375 0H2.625C1.92881 0 1.26113 0.284464 0.768845 0.790812C0.276562 1.29716 0 1.98392 0 2.7V5.4C0 5.63869 0.0921874 5.86761 0.256282 6.0364C0.420376 6.20518 0.642936 6.3 0.875 6.3C1.10706 6.3 1.32962 6.20518 1.49372 6.0364C1.65781 5.86761 1.75 5.63869 1.75 5.4V2.7C1.75 2.46131 1.84219 2.23239 2.00628 2.0636C2.17038 1.89482 2.39294 1.8 2.625 1.8H11.375C11.6071 1.8 11.8296 1.89482 11.9937 2.0636C12.1578 2.23239 12.25 2.46131 12.25 2.7V15.3C12.25 15.5387 12.1578 15.7676 11.9937 15.9364C11.8296 16.1052 11.6071 16.2 11.375 16.2H2.625C2.39294 16.2 2.17038 16.1052 2.00628 15.9364C1.84219 15.7676 1.75 15.5387 1.75 15.3V12.6C1.75 12.3613 1.65781 12.1324 1.49372 11.9636C1.32962 11.7948 1.10706 11.7 0.875 11.7C0.642936 11.7 0.420376 11.7948 0.256282 11.9636C0.0921874 12.1324 0 12.3613 0 12.6V15.3C0 16.0161 0.276562 16.7028 0.768845 17.2092C1.26113 17.7155 1.92881 18 2.625 18H11.375C12.0712 18 12.7389 17.7155 13.2312 17.2092C13.7234 16.7028 14 16.0161 14 15.3V2.7C14 1.98392 13.7234 1.29716 13.2312 0.790812C12.7389 0.284464 12.0712 0 11.375 0Z" ></path>
  </symbol>
  <symbol fill="none" xmlns="http://www.w3.org/2000/svg" viewBox="0 0 20 20" id="link">
    <path d="M7.859 14.691L7.049 15.496C6.70967 15.83 6.25263 16.0172 5.7765 16.0172C5.30037 16.0172 4.84333 15.83 4.504 15.496C4.33855 15.3322 4.20722 15.1372 4.11759 14.9223C4.02796 14.7074 3.98181 14.4769 3.98181 14.244C3.98181 14.0112 4.02796 13.7807 4.11759 13.5658C4.20722 13.3509 4.33855 13.1559 4.504 12.992L7.484 10.037C8.101 9.42403 9.263 8.52203 10.11 9.36203C10.2011 9.45922 10.3109 9.53706 10.4328 9.59088C10.5547 9.64471 10.6862 9.67343 10.8194 9.67533C10.9527 9.67723 11.0849 9.65227 11.2083 9.60194C11.3317 9.55161 11.4436 9.47693 11.5375 9.38238C11.6314 9.28782 11.7053 9.17532 11.7547 9.05159C11.8042 8.92786 11.8282 8.79544 11.8254 8.66222C11.8225 8.529 11.7928 8.39773 11.7381 8.27622C11.6835 8.15472 11.6048 8.04548 11.507 7.95503C10.069 6.52703 7.941 6.79103 6.088 8.63003L3.108 11.586C2.75589 11.9332 2.47654 12.347 2.28629 12.8034C2.09604 13.2598 1.99871 13.7496 2 14.244C1.99877 14.7385 2.09612 15.2282 2.28637 15.6846C2.47661 16.141 2.75593 16.5549 3.108 16.902C3.81769 17.606 4.77739 18.0001 5.777 17.998C6.744 17.998 7.711 17.633 8.446 16.902L9.257 16.097C9.34948 16.0056 9.423 15.8967 9.47332 15.7768C9.52365 15.6568 9.5498 15.5281 9.55026 15.3981C9.55072 15.268 9.5255 15.1391 9.47603 15.0188C9.42656 14.8985 9.35383 14.7892 9.262 14.697C9.07636 14.5109 8.82461 14.4058 8.56173 14.4047C8.29886 14.4035 8.04622 14.5065 7.859 14.691ZM16.891 3.20703C15.344 1.67303 13.182 1.59003 11.752 3.01003L10.743 4.01203C10.5566 4.19715 10.4513 4.44875 10.4503 4.71149C10.4494 4.97423 10.5529 5.22658 10.738 5.41303C10.9231 5.59948 11.1747 5.70475 11.4375 5.70568C11.7002 5.70662 11.9525 5.60315 12.139 5.41803L13.149 4.41703C13.889 3.68103 14.86 3.98603 15.495 4.61403C15.831 4.94903 16.017 5.39303 16.017 5.86603C16.017 6.33903 15.831 6.78303 15.495 7.11703L12.315 10.271C10.861 11.712 10.179 11.037 9.888 10.748C9.79568 10.6564 9.68621 10.5838 9.56584 10.5344C9.44547 10.4851 9.31656 10.4599 9.18646 10.4604C9.05637 10.4608 8.92764 10.4869 8.80762 10.5371C8.68761 10.5873 8.57866 10.6607 8.487 10.753C8.39533 10.8453 8.32275 10.9548 8.2734 11.0752C8.22404 11.1956 8.19888 11.3245 8.19934 11.4546C8.19981 11.5847 8.22589 11.7134 8.2761 11.8334C8.32632 11.9534 8.39968 12.0624 8.492 12.154C9.16 12.816 9.922 13.144 10.72 13.144C11.697 13.144 12.73 12.652 13.713 11.677L16.893 8.52403C17.2443 8.17637 17.5231 7.76237 17.7132 7.30609C17.9032 6.8498 18.0007 6.36031 18 5.86603C18.0009 5.37139 17.9033 4.88153 17.7129 4.42501C17.5225 3.96848 17.2431 3.55444 16.891 3.20703Z" fill="#8D8E8E"></path>
  </symbol>
  <symbol fill="none" xmlns="http://www.w3.org/2000/svg" viewBox="0 0 22 18" id="youtube">
    <path d="M13 9L9.5 11V7L13 9Z" stroke-width="1.5" stroke-linecap="round" stroke-linejoin="round"></path>
    <path d="M1 9.70702V8.29202C1 5.39702 1 3.94902 1.905 3.01802C2.811 2.08602 4.237 2.04602 7.088 1.96502C8.438 1.92702 9.818 1.90002 11 1.90002C12.181 1.90002 13.561 1.92702 14.912 1.96502C17.763 2.04602 19.189 2.08602 20.094 3.01802C21 3.94902 21 5.39802 21 8.29202V9.70702C21 12.603 21 14.05 20.095 14.982C19.189 15.913 17.764 15.954 14.912 16.034C13.562 16.073 12.182 16.1 11 16.1C9.819 16.1 8.439 16.073 7.088 16.034C4.237 15.954 2.811 15.914 1.905 14.982C1 14.05 1 12.602 1 9.70802V9.70702Z" stroke-width="1.92"></path>
  </symbol>
  <symbol fill="none" xmlns="http://www.w3.org/2000/svg" viewBox="0 0 21 19" id="pc">
    <path d="M18.646 1.83337H2.35433C1.82506 1.83337 1.396 2.26243 1.396 2.79171V12.375C1.396 12.9043 1.82506 13.3334 2.35433 13.3334H18.646C19.1753 13.3334 19.6043 12.9043 19.6043 12.375V2.79171C19.6043 2.26243 19.1753 1.83337 18.646 1.83337Z"  stroke-width="1.91667"></path>
    <path d="M4.99976 17.1667H15.9998" stroke-width="1.91667" stroke-linecap="round" stroke-linejoin="round"></path>
  </symbol>
  <symbol xmlns="http://www.w3.org/2000/svg" viewBox="0 0 16 14" id="download">
    <g clip-path="url(#clip0_20_11849)">
      <path d="M0 11.6339C0.0125228 11.613 0.0250457 11.5879 0.0292199 11.5671C0.179494 11.0077 0.617793 10.6696 1.19384 10.6654C2.34594 10.6613 3.49387 10.6654 4.64597 10.6654C8.01878 10.6654 11.3958 10.6654 14.7686 10.6654C15.4073 10.6654 15.8873 11.0495 15.975 11.6589C16.0083 11.9094 16 12.1723 15.9583 12.4186C15.8706 12.9237 15.4114 13.2994 14.9022 13.3244C14.8437 13.3286 14.7895 13.3286 14.731 13.3286C10.2437 13.3286 5.75215 13.3286 1.26481 13.3328C0.768067 13.3328 0.384033 13.1491 0.141925 12.715C0.0793113 12.6023 0.045917 12.4771 0 12.356C0 12.1097 0 11.8718 0 11.6339Z"></path>
      <path d="M6.33656 4.66267C6.33656 4.57501 6.33656 4.51239 6.33656 4.45395C6.33656 3.27681 6.33656 2.09966 6.33656 0.922515C6.33656 0.325594 6.66215 0 7.26325 0C7.75581 0 8.25255 0 8.74511 0C9.33369 0 9.65928 0.329768 9.65928 0.922515C9.65928 2.09966 9.65928 3.27681 9.65928 4.45395C9.65928 4.51657 9.65928 4.57918 9.65928 4.65849C9.7219 4.66267 9.77616 4.66684 9.83043 4.66684C10.3647 4.66684 10.9032 4.67102 11.4375 4.66684C11.6755 4.66684 11.855 4.7545 11.951 4.97574C12.0428 5.1928 11.9844 5.38064 11.8257 5.54761C10.6778 6.7498 9.53405 7.952 8.38613 9.15001C8.14402 9.40464 7.84765 9.40464 7.60554 9.15001C6.45761 7.952 5.31386 6.7498 4.16593 5.54761C4.00731 5.38064 3.9447 5.1928 4.03653 4.97574C4.13254 4.7545 4.31203 4.66684 4.54997 4.66684C5.0801 4.67102 5.61023 4.66684 6.14454 4.66684C6.20298 4.66267 6.25725 4.66267 6.33656 4.66267Z" ></path>
    </g>
    <defs>
      <clipPath id="clip0_20_11849">
        <rect width="16" height="13.3285"></rect>
      </clipPath>
    </defs>
  </symbol>
  <symbol xmlns="http://www.w3.org/2000/svg" viewBox="0 0 18 18" id="add-page">
    <path d="M9 1.125C4.65117 1.125 1.125 4.65117 1.125 9C1.125 13.3488 4.65117 16.875 9 16.875C13.3488 16.875 16.875 13.3488 16.875 9C16.875 4.65117 13.3488 1.125 9 1.125Z" fill="#0A84FF"></path>
    <path d="M12.2344 8.4375H9.5625V5.76562C9.5625 5.68828 9.49922 5.625 9.42188 5.625H8.57812C8.50078 5.625 8.4375 5.68828 8.4375 5.76562V8.4375H5.76562C5.68828 8.4375 5.625 8.50078 5.625 8.57812V9.42188C5.625 9.49922 5.68828 9.5625 5.76562 9.5625H8.4375V12.2344C8.4375 12.3117 8.50078 12.375 8.57812 12.375H9.42188C9.49922 12.375 9.5625 12.3117 9.5625 12.2344V9.5625H12.2344C12.3117 9.5625 12.375 9.49922 12.375 9.42188V8.57812C12.375 8.50078 12.3117 8.4375 12.2344 8.4375Z" fill="white"></path>
  </symbol>
  <symbol xmlns="http://www.w3.org/2000/svg" viewBox="0 0 18 18" id="add-page2">
    <path d="M9 1.125C4.65117 1.125 1.125 4.65117 1.125 9C1.125 13.3488 4.65117 16.875 9 16.875C13.3488 16.875 16.875 13.3488 16.875 9C16.875 4.65117 13.3488 1.125 9 1.125Z" fill="white"></path>
    <path d="M12.2344 8.4375H9.5625V5.76562C9.5625 5.68828 9.49922 5.625 9.42188 5.625H8.57812C8.50078 5.625 8.4375 5.68828 8.4375 5.76562V8.4375H5.76562C5.68828 8.4375 5.625 8.50078 5.625 8.57812V9.42188C5.625 9.49922 5.68828 9.5625 5.76562 9.5625H8.4375V12.2344C8.4375 12.3117 8.50078 12.375 8.57812 12.375H9.42188C9.49922 12.375 9.5625 12.3117 9.5625 12.2344V9.5625H12.2344C12.3117 9.5625 12.375 9.49922 12.375 9.42188V8.57812C12.375 8.50078 12.3117 8.4375 12.2344 8.4375Z" fill="#0A84FF"></path>
  </symbol>
  <symbol xmlns="http://www.w3.org/2000/svg" viewBox="0 0 16 14" id="mail">
    <path d="M0 3.45898C0.779076 3.96205 1.52254 4.44285 2.27045 4.9281C4.04674 6.07668 5.82304 7.22081 7.59488 8.37829C7.8798 8.56527 8.1202 8.56527 8.40512 8.38275C10.867 6.78453 13.3333 5.19076 15.7952 3.59254C15.8531 3.55247 15.9154 3.51686 16 3.46789C16 3.55247 16 3.61035 16 3.66822C16 6.20579 16 8.74335 16 11.2854C16 12.4918 15.1497 13.3377 13.9432 13.3377C9.98553 13.3377 6.02337 13.3377 2.06567 13.3377C0.845854 13.3377 0 12.4874 0 11.272C0 8.7389 0 6.20579 0 3.67267C0 3.6148 0 3.55247 0 3.45898Z"></path>
    <path d="M8.00441 0C10.0033 0 12.0022 0 14.0011 0C14.9538 0 15.7417 0.636617 15.9421 1.53589C15.9643 1.64274 15.9376 1.69171 15.853 1.74958C13.271 3.41903 10.6889 5.08848 8.11125 6.76238C8.03112 6.8158 7.97324 6.82026 7.88866 6.76683C5.30658 5.08848 2.72449 3.41458 0.137961 1.74513C0.0533759 1.69171 0.0355685 1.64274 0.0533759 1.5448C0.249258 0.636617 1.04614 0.00445186 2.00774 0C4.00663 0 6.00552 0 8.00441 0Z"></path>
  </symbol>
  <symbol xmlns="http://www.w3.org/2000/svg" viewBox="0 0 17 16" id="print">
    <g clip-path="url(#clip0_20_11847)">
      <path d="M0 10.6697C0 8.72972 0 6.79381 0 4.85387C0.0079501 4.83777 0.0159002 4.8257 0.0198752 4.8096C0.111301 4.18576 0.659858 3.69474 1.39922 3.72291C1.86827 3.74303 2.3413 3.72693 2.81036 3.72693C2.86601 3.72693 2.92166 3.72693 2.98924 3.72693C2.98924 3.64644 2.98924 3.58607 2.98924 3.52972C2.98924 2.57585 2.98924 1.62198 2.98924 0.672136C2.98526 0.205263 3.18799 0 3.64114 0C6.63038 0 9.61564 0 12.6049 0C13.062 0 13.2647 0.205263 13.2647 0.664087C13.2647 1.62198 13.2647 2.57988 13.2647 3.53777C13.2647 3.59412 13.2647 3.65046 13.2647 3.72291C13.3403 3.72291 13.3999 3.72291 13.4555 3.72291C13.9365 3.72291 14.4175 3.72291 14.8985 3.72291C15.7173 3.72291 16.25 4.26223 16.25 5.09133C16.25 6.87028 16.25 8.6452 16.25 10.4241C16.25 11.2533 15.7213 11.7926 14.9025 11.7966C14.4175 11.7966 13.9286 11.7966 13.4436 11.7966C13.388 11.7966 13.3323 11.7966 13.2647 11.7966C13.2647 11.8771 13.2647 11.9375 13.2647 11.9938C13.2647 12.8793 13.2647 13.7607 13.2647 14.6461C13.2647 15.0848 13.0541 15.2941 12.6208 15.2941C9.62359 15.2941 6.62243 15.2941 3.62524 15.2941C3.19594 15.2941 2.98526 15.0808 2.98526 14.6421C2.98526 13.7567 2.98526 12.8752 2.98526 11.9898C2.98526 11.9294 2.98526 11.869 2.98526 11.7966C2.90179 11.7966 2.84216 11.7966 2.78651 11.7966C2.30155 11.7966 1.81262 11.7926 1.32767 11.7966C0.954012 11.8006 0.632033 11.6799 0.365705 11.4142C0.159002 11.209 0.0596257 10.9474 0 10.6697ZM4.0784 9.71579C4.0784 11.209 4.0784 12.6941 4.0784 14.1873C6.78143 14.1873 9.47254 14.1873 12.1756 14.1873C12.1756 12.6941 12.1756 11.209 12.1756 9.71579C9.47254 9.71579 6.77746 9.71579 4.0784 9.71579ZM4.0784 3.71486C6.78143 3.71486 9.47254 3.71486 12.1756 3.71486C12.1756 2.84149 12.1756 1.97616 12.1756 1.10681C9.47254 1.10681 6.78143 1.10681 4.0784 1.10681C4.0784 1.98019 4.0784 2.84551 4.0784 3.71486Z"></path>
    </g>
    <defs>
      <clipPath id="clip0_20_11847">
        <rect width="16.25" height="15.2941" fill="white"></rect>
      </clipPath>
    </defs>
  </symbol>
  <symbol xmlns="http://www.w3.org/2000/svg" viewBox="0 0 6 9" id="pages-navigation">
    <path d="M5.3662e-08 4.5L5.25 0.602886L5.25 8.39711L5.3662e-08 4.5Z" ></path>
  </symbol>
  <symbol fill="none" xmlns="http://www.w3.org/2000/svg" viewBox="0 0 18 14" id="ok">
    <path d="M1 7L7 13L17 1" stroke="white" stroke-width="2" stroke-linecap="round" stroke-linejoin="round"></path>
  </symbol>
  <symbol fill="none" xmlns="http://www.w3.org/2000/svg" viewBox="0 0 81 69" id="error">
    <path d="M74.0526 3H6.94737C4.7673 3 3 4.76286 3 6.93746V46.312C3 48.4866 4.7673 50.2495 6.94737 50.2495H74.0526C76.2327 50.2495 78 48.4866 78 46.312V6.93746C78 4.76286 76.2327 3 74.0526 3Z" stroke="#0A84FF" stroke-width="5"></path>
    <path d="M17.8439 66H63.1528" stroke="#0A84FF" stroke-width="5" stroke-linecap="round" stroke-linejoin="round"></path>
    <rect x="38" y="14" width="5" height="15" rx="2.5" fill="#0A84FF"></rect>
    <rect x="38" y="32" width="5" height="5" rx="2.5" fill="#0A84FF"></rect>
  </symbol>
</svg>